<?xml version="1.0" encoding="UTF-8" standalone="no"?>
<svg
   width="476.45914"
   height="509.26541"
   viewBox="-702 0 476.45914 509.26541"
   version="1.2"
   id="svg1"
   sodipodi:docname="dewdrop-planet.svg"
   inkscape:version="1.3.1 (9b9bdc1480, 2023-11-25, custom)"
   xmlns:inkscape="http://www.inkscape.org/namespaces/inkscape"
   xmlns:sodipodi="http://sodipodi.sourceforge.net/DTD/sodipodi-0.dtd"
   xmlns="http://www.w3.org/2000/svg"
   xmlns:svg="http://www.w3.org/2000/svg"
   xmlns:rdf="http://www.w3.org/1999/02/22-rdf-syntax-ns#"
   xmlns:cc="http://creativecommons.org/ns#"
   xmlns:dc="http://purl.org/dc/elements/1.1/"><defs
   id="defs1" />
<title
   id="title1">Dewdrop planet</title>
\n<g
   id="g1"
   transform="translate(-420.61653,-330.44523)">
  <path
     d="m -48.5341,811.98 v 0 l 1.3452,-0.297 4.3724,-2.394 2.5768,-3.533 15.3509,-2.389 2.5953,-1.083 -2.267,-0.152 -5.946,1.854 -7.99,-0.002 -1.3838,-0.51 -0.0353,-0.421 17.3694,-3.792 14.24139,-5.027 -1.16762,-1.076 -2.00187,0.694 -2.0734,0.002 1.6189,-1.349 20.89383,-7.003 13.28927,-5.184 12.9308,-7.031 7.005,-5.002 10.6085,-10.788 -0.9295,-0.361 -5.3418,5.706 -1.3279,-0.337 3.2999,-3.53 0.0041,-0.774 -6.3133,6.084 -2.6623,1.692 -2.3377,2.308 -5.3794,3.433 -0.6086,0.784 0.5972,0.998 -1.2719,1.341 -1.3279,-0.335 0.5974,-1.008 -0.3186,-0.32 -5.7731,3.403 -0.6516,1.834 -3.8273,1.91 -14.66771,5.541 -3.08258,-0.028 0.02454,-0.812 0.99686,-0.824 0.79281,0.509 1.55149,-1.575 1.44934,0.575 1.55072,-1.575 1.66214,0.662 -0.02893,-1.628 2.02912,0.628 -0.213,-1.086 1.705,-1.17 16.194,-9.257 1.6197,-1.57 15.3803,-10.43 10.8328,-10.813 1.6921,-2.662 3.5699,-3.62 1.4301,-2.38 5.5699,-5.62 1.692,-2.662 4.308,-4.338 9.4302,-13.38 1.5736,-1.626 6.4263,-10.374 1.5699,-1.62 12.0021,-17.005 5.813,-9.215 4.612,-9.154 1.573,-1.626 8.43,-12.38 1.784,-1.609 0.975,0.651 2.052,-10e-4 3.664,-2.566 4.095,-4.095 3.003,-4.006 4.037,-7.956 1.176,-3.261 4.871,-14.733 2.496,-9.673 -0.016,-2.087 -0.837,-1.978 -10e-4,-2.989 1.972,-11.014 v -16.986 l -1.958,-21.589 -2.515,-10.852 -4.297,-13.523 -4.89,-12.769 -6.82,-13.739 -6.362,-11.48 0.026,-1.081 1.112,0.337 10.005,15.003 12.039,24.96 2.397,6.445 0.959,1.498 0.17,-2.243 -0.821,-1.974 0.816,-3.047 -1.294,0.764 -1.414,-1.665 0.008,-2.099 1.532,1.265 0.177,-1.274 -2.436,-3.74 -1.837,-0.652 -11.296,-22.238 -9.002,-13.004 -3,-4 -5.57,-5.62 -1.43,-2.38 -4.57,-4.62 -1.43,-2.38 -4.57,-4.62 -1.43,-2.38 -12.0949,-12.095 -2.6624,-1.692 -8.3377,-7.308 -9.3802,-6.43 -5.6197,-4.57 -14.3742,-8.427 -3.5264,-2.999 -0.79,0.507 -0.5014,-0.32 -1.7159,-2.18 -0.5762,0.412 -1.411,-1.42 -0.8003,0.509 -0.5812,-0.955 -1.6938,-1.113 -10.6916,-4.551 -1.0287,0.621 -3.9709,-2.622 -1.0012,0.666 -1.0548,-0.001 -1.9721,-1.641 -0.9732,0.642 -1.0547,-0.001 -1.9721,-1.641 -0.9745,0.651 -2.0521,-10e-4 -1.9734,-1.65 -0.9723,0.65 -1.6874,0.042 -1.8141,-1.414 -2.18596,0.414 -1.55008,-1.604 -0.76322,0.553 -1.09045,0.024 -7.26013,-1.121 -39.65766,-3.523 -10.6604,-1.896 -1.5438,-2.096 -6.0025,2.955 -48.8464,2.47 -8.162,1.079 -11.698,3.325 -17.384,2.402 -4.469,1.183 -14.721,5.848 -8.891,5.366 0.333,0.975 1.999,-0.676 2.031,0.642 -0.213,-1.088 4.179,-2.533 0.825,0.534 1.408,-1.425 1.095,1.211 -0.323,0.505 -12.66,7.71 -10.005,7.002 -21.338,21.308 -2.944,1.954 -14.033,13.823 -0.337,-1.328 2.155,-3.252 8.181,-17.185 6.217,-10.219 3.004,-4.006 13.101,-11.099 6.964,-4.024 7.406,-3.401 5.904,-3.811 5.605,-2.242 -1.166,-1.075 -1.088,-0.019 -5.619,2.569 -3.636,2.579 -9.413,4.466 -6.957,3.959 -2.626,2.573 -2.662,1.692 -9.817,9.839 -4.217,7.219 -11.082,23.025 -2.907,0.078 -5.79,5.672 -4.002,6.004 -6.219,11.221 -4.821,10.71 -4.445,12.505 -1.277,2.071 -1.433,6.74 -2.831,16.232 -2.672,24.214 2.894,28.279 1.69,9.56 4.894,22.582 3.477,11.573 -0.284,1.214 -2.182,-3.713 -1.655,-3.445 -1.626,-5.25 -1.074,1.167 -0.014,2.084 8.365,17.442 3.749,6.776 8.46,21.4 0.798,0.623 0.349,-1.354 -3.718,-7.891 0.025,-2.078 1.123,0.341 5.429,9.373 12.3,12.311 1.13,0.58 14.57,22.109 1.57,1.62 7.43,11.38 1.57,1.62 9.43,13.38 3.57,3.62 1.692,2.662 3.308,3.338 1.43,2.38 5.813,5.833 7.662,5.692 2.62,2.57 2.503,1.476 2.215,-1.632 2.662,1.586 2.62,2.57 8,6 13.38,9.43 2.62,2.57 2.38,1.43 2.884,3.418 2.741,2.154 4.369,2.424 12.0061,9.004 4.6197,4.57 2.3803,1.43 7.2825,7.127 1.3279,-0.337 -0.3012,-0.48 -2.3092,-2.31 -2.6624,-1.692 -7.3271,-7.523 0.5987,-1 -0.5998,-1.006 0.2767,-0.332 2.0776,-0.024 19.1526,7.578 -1.8397,0.384 -2.6661,3.4 1.3399,1.339 9.4167,-1.75 2.0099,5.373 2.8561,2.831 5.6181,2.573 m 23.0805,-12.076 v 0 l -0.0266,-0.593 m 5.0332,-0.236 v 0 l -1.3341,-0.457 2.3292,-0.341 -0.0031,0.676 m -9.984,0.146 v 0 l -3.0604,-0.144 -0.3916,-0.788 17.3534,-3.917 1.3611,0.356 -0.585,0.76 -2.746,0.991 m -45.9461,2.547 v 0 l -0.0266,-0.593 m 47.2944,-0.724 v 0 l -1.31,0.359 -0.2818,-0.333 1.3326,-0.331 m -42.3342,-0.538 v 0 l -7.4179,-2.381 -8.9625,-3.963 -0.6571,-0.761 0.6836,-1.998 -0.3147,-1.369 -2.0514,-0.009 -2.3452,2.716 h -0.6219 l -3.6427,-2.939 -3.339,-3.768 -1.5086,0.339 -1.5467,1.326 -4.1821,-2.532 5.0283,-8.097 3.5445,-10.633 -0.0213,-1.09 -1.3409,-1.27 -0.9982,0.597 -0.753,-0.497 -2.7753,5.654 -4.0281,-29.869 -1.874,-23.613 -5.501,-36.284 -1.713,-14.652 -2.912,-47.129 -0.811,-3.845 0.717,-2.037 0.134,-4.019 -1.026,-6.851 -2.062,-33.775 -1.897,-54.381 0.156,-6.028 1.37,-0.314 0.947,0.694 2.052,-10e-4 1.297,-1.379 -3.538,-5.662 -3.084,-3.31 0.651,-0.974 -0.014,-3.05 -0.813,0.025 -1.766,1.72 -5.518,1.558 -3.242,3.236 -0.573,1.118 -4.635,3.581 2.18,2.128 1.084,0.014 4.607,-2.546 1.553,-2.5 1.758,-1.652 1.723,0.55 2.758,81.254 2.032,27.545 -0.134,3.019 -0.694,0.944 -0.024,1.093 0.859,4.78 2.86,46.214 1.784,15.969 5.437,35.955 2.154,24.563 3.885,33.034 0.857,2.424 -0.466,1.478 -3.015,3.884 -1.954,-1.884 -1.061,-2.059 -2.504,-6.869 -1.5,0.099 -1.269,1.348 0.651,0.975 0.132,3.022 -0.455,1.339 -1.057,0.007 -8.282,-7.127 -21.38,-15.43 -3.62,-3.57 -2.38,-1.43 -6.282,-6.136 -1.675,-0.249 -2.985,-2.003 -1.677,-2.179 -3.374,-1.428 -1.567,-3.515 -3.44,-2.49 -3.31,-3.31 0.299,-1.476 -0.299,-0.474 -2.997,-2.823 -0.787,0.506 -5.434,-6.412 -0.564,0.408 -2.001,-2.512 -22.218,-32.219 0.299,-1.471 -0.322,-0.505 -4.952,-3.995 -0.02,-1.801 -1.01,0.599 -0.324,-0.275 0.628,-2.029 -1.296,0.302 -0.784,-0.609 -3.226,-5.226 -2.348,-4.408 0.654,-2.059 -1.628,0.029 0.629,-2.029 -1.087,0.213 -1.17,-1.705 -5.789,-10.777 -7.435,-17.481 -13.07,-28.441 -0.554,0.404 -0.712,-1.062 -3.069,-13.513 -1.899,-12.641 v -19.986 l 2.593,-24.96 1.993,-13.652 2.234,-5.748 1.672,0.653 0.324,-0.275 -0.682,-1.999 -0.01,-2.08 9.368,-16.481 7.206,-14.149 4.841,-5.034 1.431,0.717 4.731,-6.689 11.095,-11.095 2.662,-1.692 3.338,-3.308 10.38,-7.43 7.62,-6.57 2.38,-1.43 5.62,-5.57 2.38,-1.432 0.674,-1.441 -1.365,-1.825 0.31,-0.298 16.226,-10.225 15.411,-7.356 2.687,-0.24 2.343,-2.749 4.02,-0.134 2.038,0.814 3.907,-1.695 4.053,-0.12 4.006,1.824 2.69,-1.553 1.535,-1.495 7.713,-1.66 2.362,0.365 -3.662,4.949 -0.242,1.716 -1.607,1.55 0.509,0.792 -0.641,0.971 0.338,1.328 3.739,-3.496 1.629,4.134 -0.848,3.064 -0.014,11.997 0.147,2.026 0.837,1.977 -0.001,24.993 -0.456,1.347 -2.528,0.219 -1.862,4.376 0.006,1.118 5.544,13.602 2.758,1.704 2.048,0.123 3.696,-1.7 4.0987,-4.101 2.5735,-4.63 0.1225,-3.051 -0.4821,-1.484 -0.9752,-0.861 -1.5408,0.371 -2.6934,5.648 -5.7902,5.62 -0.749,-0.572 -1.615,-3.666 0.356,-1.537 0.711,-0.742 1.66,-8.716 -1.852,-31.071 0.002,-14.989 0.477,-1.303 0.51,0.324 2.499,3.273 2.3395,-2.269 -2.6475,-9.926 -1.883,-2.806 11.1957,-1.783 5.6499,0.092 1.5094,1.684 14.8408,-1.776 h 7.0581 l 2.3106,4.45 -2.7265,3.012 -0.1353,6.017 3.9724,32.014 10e-5,11.986 -1.9576,15.007 1.8394,16.134 2.1181,12.873 -0.0013,18.989 -0.9697,3.008 -0.0014,15.989 2.9724,22.014 -0.0013,11.989 -0.8529,3.067 1.9199,26.217 2.9184,72.723 -0.7694,1.997 0.784,2.003 v 6.993 l -0.8369,1.978 -0.1478,3.026 0.1478,3.026 0.8369,1.977 0.0014,5.99 -3.9108,57.527 -1.9432,16.417 0.8526,3.066 8e-4,4.991 -1.8085,3.977 0.6754,1.003 0.0681,3.573 -7.0729,3.63 m 46.6929,4.14 v 0 l -1.3455,-0.314 1.3291,-0.333 m -2.7338,1.308 v 0 l -0.5931,0.027 m -67.4071,-0.985 v 0 l -2.815,-3.019 -0.7738,-0.005 2.823,3.003 m 74.5162,-0.682 v 0 l -1.3455,-0.314 1.3292,-0.333 m -20.9746,0.668 v 0 l -3.0761,0.014 -0.9464,-0.695 -2.0278,0.642 -3.6896,-2.514 -2.6515,-2.756 0.1605,-1.342 6.3553,-15.413 13.8245,-26.773 5.9954,-12.966 7.0043,-12.033 6.98562,-15.934 3.02197,-5.103 5.99545,-12.967 8.99266,-17.963 4.0028,-7.031 5.9972,-12.969 2.8266,-4.844 2.3535,-6.417 5.0068,-11.027 5.6321,-10.528 7.0127,-14.993 2.3484,-6.452 5.6506,-11.546 3.3494,-9.454 6.0068,-14.027 4.6372,-9.493 5.4541,-14.504 2.9808,-5.977 4.7604,-7.839 3.2995,-9.353 1.4338,-2.354 3.4351,-8.481 3.0298,-5.93 1.5814,-1.639 3.9354,-7.928 1.7616,-4.738 5.259,-10.287 2.593,-6.717 -1.712,-2.372 -1.113,0.365 -1.31,1.323 -2.9549,5.952 -2.4308,6.416 -2.5523,3.562 -3.2732,8.252 -6.8165,11.804 -2.3551,6.419 -2.5413,4.508 -2.4403,8.398 -7.5905,13.641 -6.434,16.479 -7.6362,16.491 -6.3639,16.509 -4.6439,9.52 -4.3621,11.447 -2.6328,4.588 -3.1722,8.16 -2.7538,4.804 -7.0791,16.001 -2.3535,6.417 -2.8251,4.842 L 11.5,661 l -13.00989,25.034 -16.99191,35.968 -6.0142,10.066 -6.3494,14.372 -0.2386,1.719 -1.6069,1.551 0.5327,0.82 -5.575,11.697 -3.4955,5.549 -7.0979,17.954 -2.0957,3.254 -5.0789,-0.147 3.6084,-33.88 2.5228,-40.329 1.5162,-16.726 4.6492,-5.151 9.7307,-3.737 3.0479,0.124 4.409,2.354 8.2271,5.223 2.2837,2.136 h 2.0522 l 2.3161,-2.324 -0.6587,-1.813 -16.6294,-9.576 h -9.108 l -9.9182,4.684 -1.3792,-1.296 -0.1334,-1.03 0.1326,-3.022 0.837,-1.978 0.0014,-11.989 -0.9771,-12.1 -1.9573,-60.627 -1.9199,-26.217 0.8529,-3.067 0.0013,-11.989 -2.9724,-23.014 0.0014,-14.989 0.9697,-3.008 0.0013,-18.989 -2.1181,-12.873 -1.7354,-15.07 1.8536,-13.071 0.032,-13.037 1.7875,-1.733 9.4221,-3.398 7.9578,-4.038 4.6242,-3.572 7.3738,-4.426 7.6819,-7.158 -0.6762,-1.414 -2.6613,-1.54 -6.344,6.111 -6.3681,3.424 -5.6319,4.576 -7.9296,4.03 -8.5209,3.439 -1.9749,-11.394 -1.63,-13.8 0.0285,-6.091 3.3394,-0.457 1.788,0.693 2.5255,-2.993 2.6357,-1.577 1.0602,-0.123 2.0546,0.117 35.173,11.233 36.5661,10.277 35.9281,13.033 9.519,4.644 10.4726,4.368 17.2505,9.135 0.8142,-0.53 3.001,3.518 7.401,11.906 0.165,-2.242 -4.693,-6.946 0.313,-1.363 1.056,-0.007 5.758,5.652 1.692,2.662 3.308,3.338 6,8 6.002,10.004 8.212,15.184 5.827,13.746 5.18,15.291 2.737,10.158 1.743,9.314 -0.135,18.019 -2.007,3.035 -0.871,3.701 -2.432,18.506 -2.583,9.19 -5.643,1.829 3.606,2.167 0.063,1.544 -3.666,9.756 -7.812,15.711 -5.221,8.225 -1.31,1.309 -0.805,0.027 0.113,-1.297 1.577,-3.67 -0.352,-1.358 -0.756,0.578 -3.429,9.45 -2.035,3.955 -2.573,2.626 -4.43,6.38 -2.57,2.62 -7.43,10.38 -2.57,2.62 -6.4302,9.38 -3.5698,3.62 -1.4301,2.38 -7.5699,7.62 -1.4301,2.38 -9.5699,9.62 -1.6921,2.662 -4.3078,4.338 -1.4302,2.38 -17.308,17.338 -1.954,2.944 -7.8328,7.813 -2.6624,1.692 -9.3376,9.308 -2.6624,1.692 -8.5507,8.551 -1.6922,2.662 -8.09468,8.095 -5.22546,3.221 -9.18916,4.244 -1.248,1.092 -1.8181,-0.553 -2.1634,1.682 -2.0465,-0.77 -1.9735,1.65 h -2.0498 l -0.7669,-0.562 -1.55,1.605 -2.6832,-0.042 -0.7668,-0.563 -1.5501,1.605 -2.6853,-0.042 -0.9744,-0.651 m -61.29,-1.679 v 0 l 0.5931,-0.027 m -2.762,-0.972 v 0 l -1.5402,-1.548 -0.0253,-0.805 1.5059,0.328 1.5183,1.527 0.0258,0.805 m 1.2653,-1.352 v 0 l -0.5931,0.027 m -7.6703,-5.716 v 0 l -0.359,-1.31 0.332,-0.281 0.332,1.332 m 116.6898,-3.321 v 0 l -0.0266,0.593 M 8.5217,779.79 v 0 l -0.02643,-0.593 m 7.71503,0.276 v 0 l 1.3101,0.359 0.2817,-0.333 -1.3326,-0.331 m -7.26189,-0.646 v 0 l 10.60219,-10.807 2.6624,-1.692 7.3376,-7.308 2.6624,-1.692 16.5507,-16.551 1.6921,-2.662 10.326,-10.335 1.9571,2.001 0.9769,0.024 14.0496,-13.999 0.8054,-0.026 -0.3277,1.506 -5.7873,6.829 -1.4301,2.38 -6.5699,6.62 -1.6922,2.662 -17.0213,17.026 -3.1917,2.217 -2.6197,2.57 -7.8895,4.463 1.1987,1.051 0.9747,-0.651 2.0499,0.014 -0.3347,1.12 -9.004,6.005 -16.6301,9.569 m 8.6544,-0.378 v 0 l 0.5931,0.027 m 5.7058,-1.681 v 0 l -0.0389,-0.656 1.3325,0.331 m -139.28,-0.709 v 0 l -0.027,-0.593 m 139.9643,-0.014 v 0 l 1.3454,0.314 -1.3291,0.332 m 6.0649,-3.012 v 0 l -1.3454,-0.314 1.329,-0.333 m -133.0023,-3.38 v 0 l -0.0266,-0.593 m 140.0266,-0.22 v 0 l -0.9897,0.866 -1.3327,-0.338 2.2731,-2.347 1.3279,0.337 m 1.7214,-1.705 v 0 l -0.0267,-0.593 m -1.0171,1.012 v 0 l 0.0267,0.593 m 2.017,-2.012 v 0 l -0.0266,-0.593 m -7.2875,-1.675 v 0 l 1.2653,-1.363 1.3276,0.336 -1.2729,1.346 m 3.0173,-2.012 v 0 l -1.3479,-0.321 1.3306,-1.531 2.6625,-1.692 5.8287,-5.787 1.506,-0.328 -0.0256,0.805 -6.027,6.048 M -153.79,750.522 v 0 l 0.593,-0.027 M 52.5219,749.79 v 0 l -0.0267,-0.593 m 0.7143,-0.675 v 0 l 0.5931,-0.027 m -207.2806,0.295 v 0 l -0.027,-0.593 m 208.2953,-0.719 v 0 l -0.593,0.027 m 3.3256,-2.546 v 0 l -1.5481,1.541 -0.8049,0.025 0.3277,-1.506 1.5271,-1.518 0.8052,-0.026 m -214.0399,2.003 v 0 l -0.593,0.027 m -0.407,-1.032 v 0 l -1.31,0.359 -0.282,-0.333 1.332,-0.331 M 59.5217,741.79 v 0 l -0.0266,-0.593 m -1.017,1.012 v 0 l 0.0265,0.594 M -160.21,742.478 v 0 l -0.593,0.027 M 60.5218,740.79 v 0 l -0.0266,-0.593 M -164.478,739.79 v 0 l -0.027,-0.593 m 225.9831,0.012 v 0 l 0.0266,0.593 M -132.5,735.871 v 0 l 2.395,-1.738 -0.424,-2.147 -4.97,-2.785 -0.975,0.651 -4.052,-10e-4 -2.325,-2.325 -0.134,-5.023 0.715,-1.714 8.145,-2.248 2.31,-1.254 1.666,-1.761 -0.349,-2.508 -1.975,-1.86 -1.056,0.007 -0.313,1.36 0.551,0.764 -4.155,2.573 -2.054,0.137 -6.059,-0.133 -5.887,-2.728 -3.082,0.019 -0.323,2.369 1.681,1.772 6.588,2.564 1.432,0.97 -0.347,0.967 -1.009,-0.599 -0.332,0.276 -0.146,1.028 -0.001,4.992 0.954,3.004 -0.819,1.972 -0.046,1.661 2.342,1.729 m 208.7635,-8.34 v 0 l 0.5931,-0.027 m 0.4068,-0.973 v 0 l 0.5932,-0.027 m -3.5931,0.027 v 0 l 0.5931,-0.027 m 4.4069,-1.973 v 0 l 0.5931,-0.027 m -4.0122,0.983 v 0 l -0.5931,0.027 M -175.79,724.522 v 0 l 0.593,-0.027 M 75.5218,723.79 v 0 l -0.0266,-0.593 m -10.7049,1.281 v 0 l -0.593,0.027 M -176.478,723.79 v 0 l -0.027,-0.593 M 69.5217,722.79 v 0 l -0.0266,-0.593 m -2.9733,0.593 v 0 l -0.0266,-0.593 m 4.0266,-0.407 v 0 l -0.0266,-0.593 m -4.9686,0.593 v 0 l -0.3586,-1.31 0.3325,-0.282 0.3317,1.332 m -2.0418,15.948 v 0 l -0.5931,0.027 M -177.21,722.478 v 0 l -0.593,0.027 m 34.325,-1.715 v 0 l -0.027,-0.593 M 72.5219,719.79 v 0 l -0.0267,-0.593 m -2.9734,0.78 v 0 l -1.0232,0.826 -0.3403,-1.331 4.6403,-4.976 -0.774,0.005 -1.5298,1.299 -0.3365,-1.328 0.3392,-0.453 2.0019,-1.818 1.001,0.598 1.9992,-1.824 -0.3426,-1.448 0.3406,-1.508 11.7873,-11.829 1.6921,-2.662 4.3078,-4.338 16.4302,-22.38 1.785,-1.609 0.472,0.298 0.74,0.798 -1.233,1.682 0.022,0.994 -8.786,11.837 -3.4301,5.38 -1.5699,1.62 -3.4301,5.38 -7.5699,8.62 -1.4301,2.38 m -18.7631,15.6 v 0 l -0.0266,-0.593 m 7.0265,-0.407 v 0 l -0.0266,-0.593 m -5.9732,0.593 v 0 l -0.0267,-0.593 m 1.0266,-0.407 v 0 l -0.0268,-0.593 m 6.2953,0.281 v 0 l -0.593,0.027 m 1.0121,-0.983 v 0 l 0.5932,-0.027 m -6.0123,-0.017 v 0 l -0.593,0.027 m 11.3475,-1.676 v 0 l -1.3478,-0.321 1.2755,-1.35 1.0524,0.012 -0.0252,0.804 m -3.9778,0.816 v 0 l -0.0267,-0.593 m 5.0267,-1.407 v 0 l -0.0267,-0.593 m -3.2857,0.325 v 0 l 0.5931,-0.027 m -1.3245,0.714 v 0 l 0.0266,0.594 m 4.7048,-3.281 v 0 l 0.5931,-0.027 m -2.2808,0.295 v 0 l -0.0266,-0.593 m -0.7048,1.281 v 0 l -0.5931,0.027 m -6.7192,-0.296 v 0 l 0.0265,0.594 m 11.0171,-2.013 v 0 l -0.0266,-0.593 m -9.7047,1.281 v 0 l -0.5931,0.027 m 11.3245,-1.715 v 0 l -0.0266,-0.593 m -2.2857,0.325 v 0 l 0.5931,-0.027 m 0.7196,-0.708 v 0 l -0.3662,-1.309 0.3419,-0.458 0.9746,-0.862 1.0524,0.012 -0.0257,0.805 m -228.5392,1.548 v 0 l 3.033,-3.445 10.158,-2.768 0.698,-0.784 0.047,-1.659 -2.397,-1.705 -2.944,1.694 -4.601,-0.934 -3.669,-6.112 -1.101,-1.098 -7.625,-3.578 -6.085,0.014 -2.325,2.326 -0.134,4.022 0.483,1.486 2.324,2.31 2.016,1.039 7.416,2.323 3.449,1.63 -2.15,1.577 -5.05,0.124 -1.485,-0.483 -2.518,-2.301 -1.351,1.273 v 2.052 l 3.325,3.325 9.022,0.134 m 232.0257,-4.008 v 0 l -1.0229,0.826 -0.3406,-1.331 2.1267,-2.282 1.4301,-2.38 3.7901,-3.611 0.3365,1.328 m -239.3196,0.263 v 0 l -0.027,-0.593 m -0.95,-0.373 v 0 l -3.104,0.041 -3.666,-1.594 -1.745,-1.725 0.135,-1.069 0.58,-0.197 6.425,2.422 1.329,1.322 m 241.0231,-0.237 v 0 l -0.3661,-1.31 2.5591,-3.667 1.7901,-1.611 0.3364,1.329 -2.5567,3.662 m -260.8279,-2.376 v 0 l 5.366,-5.107 8.618,-3.573 h 8.118 l 5.92,2.688 0.371,-2.346 -2.919,-1.993 -5.372,-2.349 h -8.118 l -8.618,3.573 -3.851,3.826 -1.742,3.782 m 107.2293,112.868 v 0 l 1.3455,0.314 -1.3292,0.332 m 3.0462,-2.039 v 0 l -0.0266,-0.593 M -163.522,689.209 v 0 l 0.027,0.594 m 265.015,-2.825 v 0 l -1.021,0.825 -0.341,-1.331 2.557,-3.662 1.79,-1.611 0.337,1.328 m -313.315,1.262 v 0 l -0.359,-1.31 0.332,-0.281 0.332,1.332 m -1.31,-1.74 v 0 l -0.027,-0.593 m 315.027,-0.41 v 0 l -0.366,-1.309 1.349,-1.279 0.337,1.328 m -317.315,1.263 v 0 l -0.359,-1.311 0.332,-0.281 0.332,1.332 m 191.0212,-2.986 v 0 l 0.9758,-2.078 -1.6948,-3.907 -0.1191,-3.056 1.0911,-3.647 4.3662,-2.834 2.8125,-2.832 3.01292,-4.02 2.68813,-7.676 -0.12381,-3.048 -2.57343,-4.63 -1.11207,-1.109 -5.67004,-2.55 -3.7945,2.658 -1.9616,3.866 -2.5481,14.008 -3.336,-2.763 -3.1512,-3.736 -1.5775,-2.636 v -3.108 l 2.6628,-3.951 -0.2768,-0.332 -2.5056,0.334 -2.8696,2.977 -0.1334,1.029 0.1334,7.023 3.1366,3.284 1.4071,2.356 2.4976,1.549 3.0089,2.993 1.9037,15.424 2.37,1.69 M 108.522,675.79 v 0 l -0.027,-0.593 m -0.678,1.262 v 0 l -0.314,1.346 -0.332,-1.329 m 2.351,-1.686 v 0 l -0.027,-0.593 m 1.027,-1.407 v 0 l -0.027,-0.593 m -256.743,-1.462 v 0 l 4.712,-1.704 2.387,-2.505 0.015,-3.085 -2.704,-5.942 1.676,-2.999 -2.68,-3.973 0.34,-1.508 1.353,-1.493 0.011,-7.08 -2.815,-5.367 -2.573,0.069 -4.246,3.099 -3.669,1.613 -1.54,-0.358 -1.829,-1.787 -2.662,-1.538 -1.379,1.297 -0.011,2.08 1.554,2.611 2.754,1.697 5.113,0.004 3.666,-1.616 1.247,-1.092 1.508,0.339 0.871,0.977 -0.008,5.054 -2.339,0.456 -3.063,-0.845 -3.666,1.611 -1.025,1.025 -1.72,4.728 0.971,1.997 1.822,1.793 1.951,1.021 3.692,1.515 2.034,-0.798 1.481,0.466 0.87,0.977 0.087,3.526 -4.434,1.849 -5.681,-2.556 -1.622,-1.793 0.599,-1.006 -1.3,-0.462 -1.481,0.465 -0.87,0.977 -0.118,1.026 0.469,1.375 3.316,3.414 4.63,2.573 m -68.924,-1.072 v 0 l -0.027,-0.593 m -0.973,-0.405 v 0 l -3.807,-3.602 -1.692,-2.662 -2.308,-2.338 -6.428,-11.376 -6.534,-9.586 -1.523,-3.543 2.567,-2.191 -1.027,0.2 -8.636,-23.135 0.18,-3.275 5.005,9.463 12.171,28.219 10.223,19.219 2.143,3.26 m 333.659,-1.656 v 0 l -1.338,-1.317 4.538,-6.662 1.79,-1.611 0.351,1.356 -2.569,4.63 m -276.077,81.337 v 0 l 0.593,-0.027 m 142.7188,-85.518 v 0 l -0.9896,0.866 -1.3747,-0.315 -0.1437,-7.022 1.9068,-8.199 1.7686,-3.067 3.5956,2.57 1.5712,2.633 0.0066,1.119 -2.5659,6.609 m 132.2253,2.619 v 0 l -0.027,-0.593 m -268.995,0.674 v 0 l -2.397,-1.738 0.369,-2.976 2.574,-0.079 1.814,3.363 -0.332,1.401 m 269.999,-3.052 v 0 l -0.359,-1.31 0.332,-0.282 0.332,1.332 m 0.69,-1.74 v 0 l -0.027,-0.593 m -278.017,97.012 v 0 l 0.027,0.594 m -0.983,-1.013 v 0 l -0.027,-0.593 M 124.527,649.79 v 0 l -0.359,-1.311 0.332,-0.281 0.332,1.333 m -361.359,0.679 v 0 l 0.359,1.31 -0.332,0.282 -0.332,-1.333 m -0.985,-0.928 v 0 l 0.314,-1.346 0.332,1.329 m 363.693,-2.734 v 0 l -0.027,-0.593 m -0.705,1.281 v 0 l -0.593,0.027 m 6.351,-1.549 v 0 l -1.016,0.887 -1.333,-0.338 5.088,-7.319 5.229,-9.255 4.855,-12.696 5.946,-21.887 2.735,-20.979 0.673,-2.074 0.145,18.267 -2.56,13.959 -1.948,7.751 -6.037,17.956 -1.821,3.738 -5.219,8.224 -2.095,2.095 m -6.663,1.505 v 0 l -0.359,-1.31 0.332,-0.282 0.332,1.332 m -3.31,0.26 v 0 l -0.027,-0.593 m 4.027,-1.407 v 0 l -0.027,-0.593 m 1.027,-0.407 v 0 l -0.027,-0.593 m 2.295,-2.719 v 0 l -0.593,0.027 m 3.325,-4.715 v 0 l -0.027,-0.593 m -284.743,0.538 v 0 l 8.476,-3.488 2.668,-2.114 -0.047,-1.662 -1.349,-1.27 -2.282,2.052 -7.657,2.615 -2.061,0.131 -7.054,-0.137 -6.892,-4.724 -2.354,0.356 0.599,1.006 -0.665,1.631 3.682,3.158 4.63,2.573 m 296.076,-2.072 v 0 l -0.027,-0.593 m -378.973,0.593 v 0 l -0.027,-0.593 m 322.3583,-0.653 v 0 l 0.9449,-2.048 -2.3258,0.346 -4.4943,-4.369 -2.8439,-5.914 -0.1191,-8.056 0.9696,-3.007 -0.0024,-5.041 -2.1848,-2.126 -1.0795,0.482 -1.5403,2.658 0.5324,0.824 -1.4681,0.973 -7.4265,3.446 -3.3151,3.087 -0.9746,-0.651 -2.052,10e-4 -1.3252,1.325 -0.0191,5.088 1.8946,9.289 2.4497,3 2.0498,-10e-4 2.3191,-3.356 -2.703,-6.934 0.0043,-1.116 2.6901,-4.751 6.0676,-3.628 2.7174,13.024 2.0928,4.095 2.1044,2.105 4.6287,2.567 1.5347,-0.353 m 58.5423,-1.713 v 0 l -0.027,-0.593 m 0.714,-0.675 v 0 l 0.594,-0.027 m -38.3197,0.346 v 0 l 0.4984,-1.335 -0.1304,-2.032 -2.0324,-1.573 -0.882,-1.351 -1.7103,-5.851 5.9974,-2.451 3.084,-2.082 2.676,-4.332 1.813,-8.519 5.065,8.131 0.124,4.048 -2.755,8.751 -2.516,2.565 -2.516,3.695 0.277,0.332 2.05,0.014 3.784,-2.689 5.556,-11.603 0.12,-6.053 -0.298,-1.308 -5.403,-8.388 -6.813,-6.833 -7.918,-4.839 -2.0502,-0.121 -1.3043,0.477 0.5998,1.006 -0.5973,0.998 3.5958,3.004 -3.0856,3.313 -1.9426,3.818 -2.5588,11.057 -3.4957,-3.5 -1.5774,-2.636 0.0197,-3.082 1.3699,-0.315 0.9768,0.642 0.2931,-0.294 -3.2423,-2.361 -1.5623,0.379 -1.855,2.923 -0.1233,3.048 1.7008,3.696 2.9999,4 2.0953,2.095 2.4448,1.492 2.3921,9.334 1.0624,2.069 2.1575,2.718 m -340.0341,0.592 v 0 l -0.672,0.039 0.339,-2.332 m -1.978,0.593 v 0 l -0.027,-0.593 m 385.027,-0.407 v 0 l -0.027,-0.593 m -383.968,-0.407 v 0 l -0.359,-1.31 0.332,-0.282 0.332,1.332 m -1.31,-2.74 v 0 l -0.027,-0.593 m 96.48,-2.666 v 0 l 1.161,-0.601 1.724,-2.374 0.174,-1.496 8.845,-2.858 -1.123,-1.72 0.967,-1.151 -3.22,-0.316 -1.977,0.837 -4.05,-10e-4 -4.191,-6.041 -2.095,-2.095 -2.636,-1.577 -6.051,-0.123 -2.636,1.059 -1.728,2.372 0.01,2.08 3.378,3.496 12.183,5.683 -1.184,1.146 -6.088,0.018 -6.016,-1.763 -2.894,-1.948 h -1.055 l -1.324,1.316 0.349,2.508 1.284,1.271 7.657,2.614 9.057,0.118 m -95.974,-0.195 v 0 l -0.027,-0.593 M 63.2095,728.522 v 0 l 0.5931,-0.027 m -42.0122,49.027 v 0 l -0.5931,-0.027 M 97.5287,611.962 v 0 l -1.3731,-0.429 -0.0214,-9.092 2.5726,-5.618 1.7902,-1.621 0.755,0.584 0.991,2.712 1.613,7.058 -1.833,2.916 -3.0411,3.03 m -255.7779,-2.808 v 0 l -4.385,-2.407 -0.618,-0.794 1.303,-0.477 3.022,0.133 2.316,2.323 -0.312,1.362 m 308.997,-6.044 v 0 l -0.359,-1.31 0.332,-0.282 0.332,1.332 m -405.31,0.26 v 0 l -0.027,-0.593 m 78.463,-0.672 v 0 l 3.856,-2.812 5.784,-2.931 9.84,-2.651 7.121,0.003 6.481,2.914 2.463,3.749 1.348,-1.271 v -3.052 l -2.661,-2.759 -2.941,-1.943 -4.688,-1.64 -9.123,-10e-4 -5.951,1.613 -7.714,3.009 -5.963,3.962 -1.652,1.757 v 1.055 l 1.316,1.324 m 283.048,-2.061 v 0 l -0.027,-0.593 m 48.322,-2.656 v 0 l -0.314,-1.346 -0.333,1.329 M 34.2076,771.522 v 0 l 1.2654,-1.363 1.3274,0.336 -1.2728,1.346 M -76.0881,581.534 v 0 l 11.3094,-4.283 1.6296,-1.725 0.1175,-1.026 -0.4408,-1.343 -1.0257,-0.126 -4.4275,1.893 -4.7207,-18.033 -1.3469,-2.368 -1.5523,-0.493 -1.5942,1.551 -2.5623,6.589 -3.1495,3.304 -0.1318,2.022 0.4531,1.338 1.0851,0.022 5.7012,-3.556 2.6115,7.139 -0.0168,4.084 -0.6267,0.724 -5.4009,2.46 -1.6225,1.793 1.2699,1.341 1.0886,0.019 M 37.2095,769.522 v 0 l 0.5931,-0.027 M 152.527,519.79 v 0 l -0.359,-1.31 0.332,-0.282 0.332,1.332 M 66.7904,725.478 v 0 l -0.5931,0.027 m 2.0122,-1.983 v 0 l 0.5931,-0.027 M 151.79,514.522 v 0 l -0.593,-0.027 M 67.7904,721.478 v 0 l -0.5932,0.027 m -4.4068,16.973 v 0 l -0.5932,0.027 M 150.79,512.522 v 0 l -0.593,-0.027 m -0.407,-1.973 v 0 l -0.593,-0.027 m -0.407,-1.973 v 0 l -0.593,-0.027 m -0.407,-1.973 v 0 l -0.593,-0.027 m -0.407,-1.973 v 0 l -0.593,-0.027 m -395.675,-0.705 v 0 l -0.027,-0.593 m 395.295,-0.675 v 0 l -0.593,-0.027 m -260.675,0.295 v 0 l -0.027,-0.593 m -4.968,0.593 v 0 l -0.359,-1.31 0.332,-0.282 0.332,1.332 m -128.305,-0.74 v 0 l -0.359,-1.31 0.332,-0.282 0.332,1.332 m 392.958,-1.008 v 0 l -0.593,-0.027 m -391.67,-0.705 v 0 l -0.359,-1.31 0.332,-0.282 0.332,1.332 m 390.958,-1.008 v 0 l -0.593,-0.027 m -389.677,-0.709 v 0 l -0.382,-2.34 4.545,-10.701 8.03,-14.931 5.002,-7.004 3.764,-2.633 0.377,1.378 -4.567,7.629 -1.574,1.626 -4.002,6.004 -5.466,11.413 -4.962,8.956 m 388.505,-0.661 v 0 l -0.593,-0.027 M 71.2095,720.522 v 0 l 0.5931,-0.027 M 141.79,494.522 v 0 l -0.593,-0.027 m -391.373,111.997 v 0 l -0.656,0.038 0.332,-1.332 M 140.79,492.52 v 0 l -0.815,-1.016 -0.774,-0.008 0.825,1.003 m -1.236,-2.979 v 0 l -0.815,-1.016 -0.774,-0.008 0.825,1.003 m -2.236,-3.977 v 0 l -0.593,-0.027 M 82.2095,709.522 v 0 l 0.5931,-0.027 M -200.543,485.998 v 0 l 2.098,-0.13 3.673,-1.621 2.962,-1.962 4.31,-4.084 1.974,1.65 3.08,0.011 5.578,-2.939 1.706,-2.424 -1.553,-2.689 -2.095,-2.095 -2.38,-1.43 -3.609,-3.785 1.873,-2.633 2.427,-1.705 2.978,1.661 0.362,-1.347 -0.616,-0.723 -3.667,-1.619 -2.112,0.004 -2.636,1.577 -2.095,2.095 -1.571,2.635 0.548,1.775 -5.154,1.747 -5.222,4.75 -0.416,-1.85 -2.344,-1.722 -1.328,0.138 -5.534,2.551 -2.545,3.64 -0.133,1.03 0.122,2.05 1.577,2.636 3.039,3.042 4.685,1.635 M 133.79,482.52 v 0 l -0.815,-1.016 -0.774,-0.008 0.825,1.003 m -4.504,-0.707 v 0 l -1.363,-1.265 0.336,-1.328 1.346,1.273 M -204.478,689.79 v 0 l -0.027,-0.593 m 2.111,-208.21 v 0 l -2.127,-0.132 -1.478,-1.355 -0.852,-0.974 -0.001,-2.052 0.926,-1.607 2.372,-1.729 3.082,0.019 0.34,2.404 -1.884,5.391 m 161.838,-1.284 v 0 l 2.6483,-1.492 1.0706,0.663 8.3854,-1.916 -0.4033,-0.764 -2.5338,-0.227 -2.9906,-10.596 -0.8104,-1.21 -6.7145,0.023 -1.9732,1.65 -0.9717,-0.642 -1.0839,-0.013 -2.9162,1.679 -1.0572,-0.646 -4.1872,2.508 6.2091,0.301 6.9451,-1.855 4.0892,0.026 0.3146,1.37 -0.6945,0.947 -0.0101,3.08 1.6091,2.708 -6.5066,2.419 m 172.5498,0.841 v 0 l -0.593,-0.027 m -3.675,0.295 v 0 l -0.027,-0.593 m -322.973,0.593 v 0 l -0.027,-0.593 m 10.027,-0.407 v 0 l -0.027,-0.593 m -8.981,0.634 v 0 l -0.496,-1.325 0.131,-2.032 2.87,-2.976 1.508,-0.34 1.324,1.316 v 2.052 l -1.661,1.759 -2.64,1.574 m 10.02,-2.015 v 0 l -1.413,-0.313 -0.141,-3.027 0.455,-1.339 1.51,0.333 1.884,2.011 m 309.925,1.011 v 0 l -0.815,-1.016 -0.774,-0.008 0.825,1.003 M -217.79,666.478 v 0 l 0.593,0.027 M 123.79,474.478 v 0 l -0.593,0.027 M -2.50742,472.882 v 0 l 4.9701,-1.715 1.04284,0.634 0.32911,-1.33 -1.33838,-0.455 -9.0226,0.133 -2.18219,2.137 1.90584,1.381 M -186.478,470.79 v 0 l -0.027,-0.593 m 46.295,-0.518 v 0 l 2.914,-1.963 -7.992,-7.532 -2.214,-4.205 -1.494,-3.72 -1.982,-12.722 -1.924,0.446 -1.902,11.705 -0.699,-0.485 -1.003,0.597 -0.331,-0.276 -0.015,-2.05 0.704,-0.948 0.132,-2.022 -0.481,-1.485 -0.974,-0.861 -1.331,0.155 -2.388,1.402 -4.118,3.119 -1.548,2.611 0.022,1.085 2.33,0.454 2.01,-0.784 0.332,0.276 0.264,5.657 2.398,1.705 4.684,-2.549 2.106,-1.998 3.422,5.893 2.98,3.982 2.498,1.549 2.833,2.783 m 198.7931,-1.959 v 0 l -0.3105,-1.515 -0.9794,-0.875 -10.0225,-0.133 -1.3384,0.455 0.3069,1.371 3.0538,0.01 1.971,-0.822 6.9739,1.806 m -19.6806,-0.311 v 0 l -0.5246,-0.732 -9.7657,-1.791 -10.7802,1.796 -0.5168,0.706 1.2673,1.337 1.0918,0.023 6.9444,-1.85 5.0195,0.134 0.9467,0.695 1.9999,-0.686 3.0268,0.811 M -226.478,467.79 v 0 l -0.027,-0.593 m 1.027,-0.407 v 0 l -0.027,-0.593 m 345.295,-0.675 v 0 l -0.593,-0.027 m -44.6983,0.349 v 0 l 1.3426,-1.317 -0.3733,-1.362 -5.3772,1.87 0.3844,0.798 2.0248,-0.632 0.9766,0.644 m -245.6346,-2.3 v 0 l 2.987,-9.011 -0.658,-1.068 1.934,-4.77 2.716,-9.17 -1.349,-1.349 -2.782,1.661 -4.362,9.188 -3.17,-3.499 0.827,-3.031 -0.134,-4.022 -1.325,-1.325 h -3.052 l -5.517,3.897 -1.822,3.396 0.004,2.111 1.577,2.15 2.034,-3.928 1.723,-1.617 1.052,0.012 -0.446,4.885 2.828,2.119 -3.706,3.325 0.598,1.001 -0.642,0.973 0.008,1.056 2.361,0.322 5.979,-4.652 0.478,1.305 -0.117,2.055 -1.732,3.882 0.004,2.112 1.729,2.343 m -50.345,-1.106 v 0 l -0.027,-0.593 M 92.9928,461.52 v 0 l 1.981,-0.02 0.8678,-0.972 -0.0069,-1.057 -1.6394,-0.153 -2.0485,2.177 m -219.1838,0.036 v 0 l -3.796,-9.994 5.118,-5.347 1.577,-2.636 0.24,-2.687 2.205,-1.701 1.555,-2.612 -0.011,-8.08 -1.324,-1.316 -1.735,0.568 -1.585,6.959 -2.041,-2.993 -2.612,-1.554 -2.08,0.011 -1.77,1.679 -1.826,5.083 -1.679,9.772 -1.949,-3.908 -1.102,-1.249 -0.133,-4.023 0.837,-1.977 -0.01,-2.054 -1.37,-0.314 -0.453,0.34 -2.304,2.312 -1.571,2.634 1.648,6.004 2.92,5.736 1.762,1.668 2.578,0.23 4.638,10.08 2.782,1.661 1.381,-1.301 m 33.6688,-1.732 v 0 l -0.0266,-0.593 m -13.9682,-0.408 v 0 l -0.493,-1.282 0.466,-1.309 0.467,1.301 m 219.823,-0.977 v 0 l -0.593,-0.027 m -6.675,0.295 v 0 l -0.027,-0.593 m -219.531,0.316 v 0 l 1.134,-2.652 1.901,-10.361 -0.13,-4.062 -2.608,-11.891 -1.754,-4.518 -4.221,-8.212 -0.762,-0.668 -3.052,0.008 -0.334,2.397 5.079,9.042 3.652,14.842 0.116,7.058 -0.97,3.007 0.001,4.993 0.455,1.339 m 220.319,-1.357 v 0 l -0.593,0.027 m -0.675,-0.715 v 0 l -0.027,-0.593 m -119.6574,-1.659 v 0 l 1.0048,-2.011 -0.8116,-3.027 0.8212,-1.974 0.2616,-3.682 5.353,-2.816 2.81828,-2.838 3.5773,-5.636 0.12201,-6.05 -0.45639,-1.347 -5.08204,-0.019 -2.61136,1.554 -3.0855,4.086 -2.498,5.917 -4.093,-5.168 v -1.054 l 1.6229,-1.728 2.7494,-1.702 -1.0038,-0.894 h -3.0528 l -3.3251,3.325 v 4.052 l 3.5627,5.658 2.1254,2.355 -1.7059,6.899 0.0175,2.088 0.7031,0.946 0.2492,1.661 2.381,1.691 M 103.522,452.79 v 0 l -0.027,-0.593 m -0.973,-0.407 v 0 l -0.027,-0.593 m -0.973,-0.407 v 0 l -0.027,-0.593 m -0.708,-0.719 v 0 l -1.3094,0.366 -4.2782,-4.349 1.3279,-0.337 m -2.3178,-0.636 v 0 l 0.5931,-0.027 m -5.5931,0.027 v 0 l 0.5931,-0.027 m -221.6316,0.055 v 0 l -0.036,-6.108 2.04,-3.35 1.687,2.354 v 4.108 l -1.855,2.923 M 76.5218,715.79 v 0 l -0.0266,-0.593 M 93.5218,443.79 v 0 l -0.0267,-0.593 m -0.9732,-0.407 v 0 l -0.0267,-0.593 m -0.9734,-0.407 v 0 l -0.0266,-0.593 m -2.9734,0.593 v 0 l -0.0267,-0.593 m -0.9545,-0.38 v 0 l -1.3455,-0.314 1.3291,-0.332 m -79.55856,0.343 v 0 l 2.28126,-3.287 2.6149,-5.673 -0.3562,-2.354 -1.0056,0.599 -1.0005,-0.598 -1.79259,1.622 -2.39246,5.395 -2.11389,3.282 1.27335,1.351 m 80.06799,-1.034 v 0 l -1.3568,-0.139 -9.3474,-4.368 -2.6384,-3.815 1.3281,-0.337 10.6561,6.553 1.3155,1.313 m -6.2895,0.498 v 0 l 0.5931,-0.027 m -277.2806,0.295 v 0 l -0.027,-0.593 m 286.2954,0.281 v 0 l -0.5932,0.027 m -0.9877,-0.983 v 0 l 0.5931,-0.027 M -211.478,678.79 v 0 l -0.027,-0.593 m 15.027,-239.407 v 0 l -0.027,-0.593 m 282.7145,-0.675 v 0 l 0.5931,-0.027 m -282.2806,0.295 v 0 l -0.027,-0.593 m 281.0456,-0.38 v 0 l -1.3455,-0.314 1.3291,-0.332 m -96.9794,0.658 v 0 l -1.3755,-0.353 1.5125,-3.736 2.03021,-3.924 1.79306,-1.617 0.47876,1.305 -0.13242,3.022 -2.56654,3.664 m -183.73987,1.639 v 0 l -1.348,-0.321 1.276,-1.35 1.052,0.012 -0.025,0.804 M 65.5218,723.79 v 0 l -0.0266,-0.593 M 83.5218,435.79 v 0 l -0.0267,-0.593 m -10.017,1.013 v 0 l 0.0265,0.593 m -1.9742,-0.841 v 0 l -1.3365,-0.276 -5.0014,-3.006 -13.6494,-4.464 -23.0135,-8.461 -38.977,-10.527 -22.1127,-7.45 -12.8274,-3.63 -1.5823,-1.602 0.1287,-1.076 1.3447,-0.454 6.9896,-0.002 19.0136,2.971 2.0192,-0.133 0.9482,-0.704 2.0862,-0.015 4.68536,1.635 1.29063,1.065 4.90303,-1.701 10.05448,-0.118 21.4389,5.478 17.0349,7 4.2161,2.22 1.5703,1.52 4.7349,1.758 11.6947,6.721 8.2885,6.266 1.3282,1.528 -1.328,0.337 -8.5077,-5.348 -21.9988,-11.004 -21.1904,-9.24 -1.2807,-1.051 -0.3357,1.326 0.6574,0.761 8.2174,4.224 11.932,4.98 13.0674,7.014 13.1505,6.208 1.0479,1.042 1.7363,4.709 0.8323,1.042 m 9.7403,-0.688 v 0 l -1.3455,-0.314 1.3292,-0.332 m -274.0023,0.619 v 0 l -0.027,-0.593 M 80.5218,433.79 v 0 l -0.0266,-0.593 m -269.9502,0.632 v 0 l -1.348,-0.321 0.304,-0.484 7.027,-7.047 4.945,-3.819 1.052,0.012 -0.026,0.805 -4.027,4.048 -2.662,1.692 m 263.7309,4.103 v 0 l -1.5169,-0.312 -0.8246,-1.011 1.3279,-0.337 1.2756,1.35 m -131.0366,-3.786 v 0 l 6.4551,-2.393 5.9626,-3.041 8.8176,-6.79 2.283,-2.308 1.5382,-2.662 -0.3247,-0.504 -0.9707,-0.866 h -1.055 l -10.2823,8.127 -5.9662,3.964 -6.6646,2.612 -3.0868,-0.703 -1.3146,1.315 8e-4,1.052 3.2848,2.331 M 0.521759,786.79 v 0 l -0.02652,-0.593 M 110.787,409.681 v 0 l 6.501,-4.497 4.578,-9.625 0.002,-9.12 -2.57,-6.609 -2.584,-2.539 -1.569,2.154 -10e-4,1.111 2.723,6.883 -0.005,8.115 -3.569,7.623 -2.116,2.116 -5.098,2.59 m -267.51,0.961 v 0 l -1.435,-0.353 -0.018,-0.532 3.355,-1.787 0.392,0.959 m 1.684,-0.321 v 0 l -0.384,-1.334 0.31,-0.318 2.242,0.153 m 0.807,-0.521 v 0 l -0.027,-0.593 m 3.046,-0.38 v 0 l -1.346,-0.314 1.329,-0.332 m 94.9841,-0.346 v 0 l -0.0129,-0.795 0.9773,-0.872 1.328,0.337 -1.2782,1.349 m -92.9813,-0.027 v 0 l -1.346,-0.314 1.329,-0.332 m 4.017,-0.354 v 0 l -1.346,-0.314 1.329,-0.332 m 88.0211,-0.347 v 0 l -2.3878,-0.297 0.1539,-3.242 2.1892,2.741 M 80.8296,399.55 v 0 l 0.0217,-4.076 -1.7828,-2.39 9.3911,-2.047 4.7719,-4.791 1.62,-4.746 -1.62,-4.746 -0.734,-0.755 -0.9713,-0.85 -3.0804,-0.011 -4.6295,2.573 -2.5314,3.479 -2.7901,2.61 -0.4631,-1.3 0.9374,-3 -0.7977,-2.034 1.5802,-3.165 0.7544,0.496 0.2926,-0.293 -2.3269,-2.327 -2.6618,1.538 -1.6614,1.759 -0.1342,9.02 1.8477,3.952 -0.0104,2.08 -0.8356,1.978 0.1218,2.05 2.8548,4.923 1.5066,0.492 M -53.4531,397.81 v 0 l -0.3839,-1.334 0.3099,-0.318 2.2417,0.153 m 113.0943,-0.635 v 0 l 1.7163,-1.635 -1.8184,-1.864 -2.5726,-5.618 -0.1199,-4.053 0.2975,-1.308 5.5501,-8.644 -0.011,-2.08 -1.3506,-1.273 -1.6339,0.873 -4.1545,4.742 -2.0306,3.924 -1.6663,4.766 0.1229,2.048 3.569,7.623 2.7643,2.665 M -54.4782,395.79 v 0 l -0.0266,-0.593 m 99.2562,-2.462 v 0 l 4.7121,-1.704 1.3586,-1.558 -4.6877,-9.914 0.0229,-2.087 2.3389,-0.456 1.4838,0.481 0.8191,1.002 -0.6419,0.974 0.3141,1.362 1.5086,-0.332 0.871,-0.977 0.011,-2.08 -1.5543,-2.612 -2.7535,-1.696 -4.0805,0.011 -2.3251,2.325 -0.0108,7.08 2.7272,3.955 -2.3114,2.352 h -2.1069 l -2.1552,-1.575 1.5599,-1.76 0.0109,-6.08 -1.6717,-2.728 -3.632,-1.584 -4.1126,0.004 -4.6948,2.63 -1.8196,8.2 -5.4577,-0.116 -0.9455,-0.703 -1.6726,-0.255 -2.7179,-4.34 0.0112,-3.078 0.6679,-0.763 4.4951,-2.473 2.1806,1.624 1.007,-0.89 -10e-5,-0.949 -1.9733,-1.876 -6.0804,-0.011 -2.9164,1.838 -2.3917,3.47 -0.00342,3.113 1.61889,3.669 1.93973,2.938 4.7529,2.696 8.0508,0.123 1.9773,-0.837 2.026,-0.146 4.0272,0.841 2.0211,-0.814 3.9254,3.822 m 63.3514,-4.306 v 0 l 0.307,-2.101 1.618,-3.669 1.072,-1.302 -1.513,-2.232 -2.591,1.568 -1.5835,3.632 0.0144,2.085 1.8751,1.973 m -15.4743,-0.661 v 0 l -3.0778,0.004 -0.3138,-1.37 2.557,-3.662 2.7846,-2.809 0.9726,-0.843 1.0565,0.007 0.4553,1.339 -0.1328,3.022 m -87.88408,3.986 v 0 l 2.01249,-5.471 1.88891,-27.478 -0.366,-1.543 -0.97522,-0.862 -1.50854,0.34 -2.8703,2.976 -0.1334538,4.022 0.9539798,3.004 -0.821259,1.974 -0.1327208,5.022 0.9549558,3.001 -1.881561,6.394 -2.423981,-4.693 -2.71335,-8.237 -3.41783,-1.79 -1.37494,1.3 3.51685,10.757 4.03642,7.956 3.155273,3.712 M 36.5114,385.817 v 0 l -6.7801,-1.606 -0.5823,-0.689 -0.0705,-2.568 3.3631,-1.819 3.0846,0.014 1.3252,1.325 0.1329,4.021 M 63.5218,370.79 v 0 l -0.0267,-0.593 m 69.4629,-6.674 v 0 l 0.894,-0.992 0.133,-2.024 -1.81,-5.805 -12.889,-3.732 -68.7929,-4.956 -6.9897,10e-4 -1.9774,0.837 -2.0259,0.147 -20.9967,-0.014 -1.9774,-0.837 -2.0259,-0.147 -4.99671,0.014 -3.00696,0.97 -3.02255,-0.133 -0.94666,-0.694 -1.36194,0.313 0.33228,1.51 2.00195,1.818 2.00394,-0.784 9.98965,-10e-4 46.6883,1.869 55.5626,4.108 10.296,3.059 2.669,5.127 0.765,0.664 M 4.52179,353.79 v 0 l -0.02658,-0.593"
     id="path1" />
</g>
<metadata
   id="metadata1">
  <rdf:RDF>
    <cc:Work
       rdf:about="">
      <dc:title>Dewdrop planet</dc:title>
    </cc:Work>
  </rdf:RDF>
</metadata>
</svg>
