<?xml version="1.0" encoding="utf-8" standalone="no"?>
<!DOCTYPE svg PUBLIC "-//W3C//DTD SVG 1.1//EN"
  "http://www.w3.org/Graphics/SVG/1.1/DTD/svg11.dtd">
<svg xmlns:xlink="http://www.w3.org/1999/xlink" width="1008pt" height="432pt" viewBox="0 0 504 216" xmlns="http://www.w3.org/2000/svg" version="1.1">
 <metadata>
  <rdf:RDF xmlns:dc="http://purl.org/dc/elements/1.1/" xmlns:cc="http://creativecommons.org/ns#" xmlns:rdf="http://www.w3.org/1999/02/22-rdf-syntax-ns#">
   <cc:Work>
    <dc:type rdf:resource="http://purl.org/dc/dcmitype/StillImage"/>
    <dc:date>2024-03-04T13:19:15.024214</dc:date>
    <dc:format>image/svg+xml</dc:format>
    <dc:creator>
     <cc:Agent>
      <dc:title>Matplotlib v3.8.2, https://matplotlib.org/</dc:title>
     </cc:Agent>
    </dc:creator>
   </cc:Work>
  </rdf:RDF>
 </metadata>
 <defs>
  <style type="text/css">*{stroke-linejoin: round; stroke-linecap: butt}</style>
 </defs>
 <g id="figure_1">
  <g id="patch_1">
   <path d="M 0 216 
L 504 216 
L 504 0 
L 0 0 
z
" style="fill: #ffffff"/>
  </g>
  <g id="axes_1">
   <g id="patch_2">
    <path d="M 55.28 181.415333 
L 493.2 181.415333 
L 493.2 10.8 
L 55.28 10.8 
z
" style="fill: #eaeaf2"/>
   </g>
   <g id="matplotlib.axis_1">
    <g id="xtick_1">
     <g id="line2d_1">
      <path d="M 75.185455 181.415333 
L 75.185455 10.8 
" clip-path="url(#p02b77aada8)" style="fill: none; stroke: #ffffff; stroke-linecap: round"/>
     </g>
     <g id="line2d_2"/>
     <g id="text_1">
      <!-- 0.0 -->
      <g style="fill: #262626" transform="translate(68.235455 195.573146) scale(0.1 -0.1)">
       <defs>
        <path id="ArialMT-30" d="M 266 2259 
Q 266 3072 433 3567 
Q 600 4063 929 4331 
Q 1259 4600 1759 4600 
Q 2128 4600 2406 4451 
Q 2684 4303 2865 4023 
Q 3047 3744 3150 3342 
Q 3253 2941 3253 2259 
Q 3253 1453 3087 958 
Q 2922 463 2592 192 
Q 2263 -78 1759 -78 
Q 1097 -78 719 397 
Q 266 969 266 2259 
z
M 844 2259 
Q 844 1131 1108 757 
Q 1372 384 1759 384 
Q 2147 384 2411 759 
Q 2675 1134 2675 2259 
Q 2675 3391 2411 3762 
Q 2147 4134 1753 4134 
Q 1366 4134 1134 3806 
Q 844 3388 844 2259 
z
" transform="scale(0.015625)"/>
        <path id="ArialMT-2e" d="M 581 0 
L 581 641 
L 1222 641 
L 1222 0 
L 581 0 
z
" transform="scale(0.015625)"/>
       </defs>
       <use xlink:href="#ArialMT-30"/>
       <use xlink:href="#ArialMT-2e" x="55.615234"/>
       <use xlink:href="#ArialMT-30" x="83.398438"/>
      </g>
     </g>
    </g>
    <g id="xtick_2">
     <g id="line2d_3">
      <path d="M 147.568926 181.415333 
L 147.568926 10.8 
" clip-path="url(#p02b77aada8)" style="fill: none; stroke: #ffffff; stroke-linecap: round"/>
     </g>
     <g id="line2d_4"/>
     <g id="text_2">
      <!-- 0.2 -->
      <g style="fill: #262626" transform="translate(140.618926 195.573146) scale(0.1 -0.1)">
       <defs>
        <path id="ArialMT-32" d="M 3222 541 
L 3222 0 
L 194 0 
Q 188 203 259 391 
Q 375 700 629 1000 
Q 884 1300 1366 1694 
Q 2113 2306 2375 2664 
Q 2638 3022 2638 3341 
Q 2638 3675 2398 3904 
Q 2159 4134 1775 4134 
Q 1369 4134 1125 3890 
Q 881 3647 878 3216 
L 300 3275 
Q 359 3922 746 4261 
Q 1134 4600 1788 4600 
Q 2447 4600 2831 4234 
Q 3216 3869 3216 3328 
Q 3216 3053 3103 2787 
Q 2991 2522 2730 2228 
Q 2469 1934 1863 1422 
Q 1356 997 1212 845 
Q 1069 694 975 541 
L 3222 541 
z
" transform="scale(0.015625)"/>
       </defs>
       <use xlink:href="#ArialMT-30"/>
       <use xlink:href="#ArialMT-2e" x="55.615234"/>
       <use xlink:href="#ArialMT-32" x="83.398438"/>
      </g>
     </g>
    </g>
    <g id="xtick_3">
     <g id="line2d_5">
      <path d="M 219.952397 181.415333 
L 219.952397 10.8 
" clip-path="url(#p02b77aada8)" style="fill: none; stroke: #ffffff; stroke-linecap: round"/>
     </g>
     <g id="line2d_6"/>
     <g id="text_3">
      <!-- 0.4 -->
      <g style="fill: #262626" transform="translate(213.002397 195.573146) scale(0.1 -0.1)">
       <defs>
        <path id="ArialMT-34" d="M 2069 0 
L 2069 1097 
L 81 1097 
L 81 1613 
L 2172 4581 
L 2631 4581 
L 2631 1613 
L 3250 1613 
L 3250 1097 
L 2631 1097 
L 2631 0 
L 2069 0 
z
M 2069 1613 
L 2069 3678 
L 634 1613 
L 2069 1613 
z
" transform="scale(0.015625)"/>
       </defs>
       <use xlink:href="#ArialMT-30"/>
       <use xlink:href="#ArialMT-2e" x="55.615234"/>
       <use xlink:href="#ArialMT-34" x="83.398438"/>
      </g>
     </g>
    </g>
    <g id="xtick_4">
     <g id="line2d_7">
      <path d="M 292.335868 181.415333 
L 292.335868 10.8 
" clip-path="url(#p02b77aada8)" style="fill: none; stroke: #ffffff; stroke-linecap: round"/>
     </g>
     <g id="line2d_8"/>
     <g id="text_4">
      <!-- 0.6 -->
      <g style="fill: #262626" transform="translate(285.385868 195.573146) scale(0.1 -0.1)">
       <defs>
        <path id="ArialMT-36" d="M 3184 3459 
L 2625 3416 
Q 2550 3747 2413 3897 
Q 2184 4138 1850 4138 
Q 1581 4138 1378 3988 
Q 1113 3794 959 3422 
Q 806 3050 800 2363 
Q 1003 2672 1297 2822 
Q 1591 2972 1913 2972 
Q 2475 2972 2870 2558 
Q 3266 2144 3266 1488 
Q 3266 1056 3080 686 
Q 2894 316 2569 119 
Q 2244 -78 1831 -78 
Q 1128 -78 684 439 
Q 241 956 241 2144 
Q 241 3472 731 4075 
Q 1159 4600 1884 4600 
Q 2425 4600 2770 4297 
Q 3116 3994 3184 3459 
z
M 888 1484 
Q 888 1194 1011 928 
Q 1134 663 1356 523 
Q 1578 384 1822 384 
Q 2178 384 2434 671 
Q 2691 959 2691 1453 
Q 2691 1928 2437 2201 
Q 2184 2475 1800 2475 
Q 1419 2475 1153 2201 
Q 888 1928 888 1484 
z
" transform="scale(0.015625)"/>
       </defs>
       <use xlink:href="#ArialMT-30"/>
       <use xlink:href="#ArialMT-2e" x="55.615234"/>
       <use xlink:href="#ArialMT-36" x="83.398438"/>
      </g>
     </g>
    </g>
    <g id="xtick_5">
     <g id="line2d_9">
      <path d="M 364.719339 181.415333 
L 364.719339 10.8 
" clip-path="url(#p02b77aada8)" style="fill: none; stroke: #ffffff; stroke-linecap: round"/>
     </g>
     <g id="line2d_10"/>
     <g id="text_5">
      <!-- 0.8 -->
      <g style="fill: #262626" transform="translate(357.769339 195.573146) scale(0.1 -0.1)">
       <defs>
        <path id="ArialMT-38" d="M 1131 2484 
Q 781 2613 612 2850 
Q 444 3088 444 3419 
Q 444 3919 803 4259 
Q 1163 4600 1759 4600 
Q 2359 4600 2725 4251 
Q 3091 3903 3091 3403 
Q 3091 3084 2923 2848 
Q 2756 2613 2416 2484 
Q 2838 2347 3058 2040 
Q 3278 1734 3278 1309 
Q 3278 722 2862 322 
Q 2447 -78 1769 -78 
Q 1091 -78 675 323 
Q 259 725 259 1325 
Q 259 1772 486 2073 
Q 713 2375 1131 2484 
z
M 1019 3438 
Q 1019 3113 1228 2906 
Q 1438 2700 1772 2700 
Q 2097 2700 2305 2904 
Q 2513 3109 2513 3406 
Q 2513 3716 2298 3927 
Q 2084 4138 1766 4138 
Q 1444 4138 1231 3931 
Q 1019 3725 1019 3438 
z
M 838 1322 
Q 838 1081 952 856 
Q 1066 631 1291 507 
Q 1516 384 1775 384 
Q 2178 384 2440 643 
Q 2703 903 2703 1303 
Q 2703 1709 2433 1975 
Q 2163 2241 1756 2241 
Q 1359 2241 1098 1978 
Q 838 1716 838 1322 
z
" transform="scale(0.015625)"/>
       </defs>
       <use xlink:href="#ArialMT-30"/>
       <use xlink:href="#ArialMT-2e" x="55.615234"/>
       <use xlink:href="#ArialMT-38" x="83.398438"/>
      </g>
     </g>
    </g>
    <g id="xtick_6">
     <g id="line2d_11">
      <path d="M 437.10281 181.415333 
L 437.10281 10.8 
" clip-path="url(#p02b77aada8)" style="fill: none; stroke: #ffffff; stroke-linecap: round"/>
     </g>
     <g id="line2d_12"/>
     <g id="text_6">
      <!-- 1.0 -->
      <g style="fill: #262626" transform="translate(430.15281 195.573146) scale(0.1 -0.1)">
       <defs>
        <path id="ArialMT-31" d="M 2384 0 
L 1822 0 
L 1822 3584 
Q 1619 3391 1289 3197 
Q 959 3003 697 2906 
L 697 3450 
Q 1169 3672 1522 3987 
Q 1875 4303 2022 4600 
L 2384 4600 
L 2384 0 
z
" transform="scale(0.015625)"/>
       </defs>
       <use xlink:href="#ArialMT-31"/>
       <use xlink:href="#ArialMT-2e" x="55.615234"/>
       <use xlink:href="#ArialMT-30" x="83.398438"/>
      </g>
     </g>
    </g>
    <g id="text_7">
     <!-- $\rho$ -->
     <g style="fill: #262626" transform="translate(270.72 209.31049) scale(0.11 -0.11)">
      <defs>
       <path id="DejaVuSans-Oblique-3c1" d="M 1203 2875 
Q 1453 3194 1981 3475 
Q 2188 3584 2756 3584 
Q 3394 3584 3694 3078 
Q 3994 2572 3834 1747 
Q 3672 922 3175 415 
Q 2678 -91 2041 -91 
Q 1656 -91 1409 63 
Q 1163 213 1044 525 
L 681 -1331 
L 103 -1331 
L 697 1716 
Q 838 2438 1203 2875 
z
M 3238 1747 
Q 3359 2381 3169 2744 
Q 2978 3103 2522 3103 
Q 2066 3103 1734 2744 
Q 1403 2381 1281 1747 
Q 1156 1113 1347 750 
Q 1538 391 1994 391 
Q 2450 391 2781 750 
Q 3113 1113 3238 1747 
z
" transform="scale(0.015625)"/>
      </defs>
      <use xlink:href="#DejaVuSans-Oblique-3c1"/>
     </g>
    </g>
   </g>
   <g id="matplotlib.axis_2">
    <g id="ytick_1">
     <g id="line2d_13">
      <path d="M 55.28 181.415333 
L 493.2 181.415333 
" clip-path="url(#p02b77aada8)" style="fill: none; stroke: #ffffff; stroke-linecap: round"/>
     </g>
     <g id="line2d_14"/>
     <g id="text_8">
      <!-- −0.1 -->
      <g style="fill: #262626" transform="translate(28.539375 184.99424) scale(0.1 -0.1)">
       <defs>
        <path id="ArialMT-2212" d="M 3381 1997 
L 356 1997 
L 356 2522 
L 3381 2522 
L 3381 1997 
z
" transform="scale(0.015625)"/>
       </defs>
       <use xlink:href="#ArialMT-2212"/>
       <use xlink:href="#ArialMT-30" x="58.398438"/>
       <use xlink:href="#ArialMT-2e" x="114.013672"/>
       <use xlink:href="#ArialMT-31" x="141.796875"/>
      </g>
     </g>
    </g>
    <g id="ytick_2">
     <g id="line2d_15">
      <path d="M 55.28 148.604692 
L 493.2 148.604692 
" clip-path="url(#p02b77aada8)" style="fill: none; stroke: #ffffff; stroke-linecap: round"/>
     </g>
     <g id="line2d_16"/>
     <g id="text_9">
      <!-- 0.0 -->
      <g style="fill: #262626" transform="translate(34.38 152.183599) scale(0.1 -0.1)">
       <use xlink:href="#ArialMT-30"/>
       <use xlink:href="#ArialMT-2e" x="55.615234"/>
       <use xlink:href="#ArialMT-30" x="83.398438"/>
      </g>
     </g>
    </g>
    <g id="ytick_3">
     <g id="line2d_17">
      <path d="M 55.28 115.794051 
L 493.2 115.794051 
" clip-path="url(#p02b77aada8)" style="fill: none; stroke: #ffffff; stroke-linecap: round"/>
     </g>
     <g id="line2d_18"/>
     <g id="text_10">
      <!-- 0.1 -->
      <g style="fill: #262626" transform="translate(34.38 119.372958) scale(0.1 -0.1)">
       <use xlink:href="#ArialMT-30"/>
       <use xlink:href="#ArialMT-2e" x="55.615234"/>
       <use xlink:href="#ArialMT-31" x="83.398438"/>
      </g>
     </g>
    </g>
    <g id="ytick_4">
     <g id="line2d_19">
      <path d="M 55.28 82.98341 
L 493.2 82.98341 
" clip-path="url(#p02b77aada8)" style="fill: none; stroke: #ffffff; stroke-linecap: round"/>
     </g>
     <g id="line2d_20"/>
     <g id="text_11">
      <!-- 0.2 -->
      <g style="fill: #262626" transform="translate(34.38 86.562317) scale(0.1 -0.1)">
       <use xlink:href="#ArialMT-30"/>
       <use xlink:href="#ArialMT-2e" x="55.615234"/>
       <use xlink:href="#ArialMT-32" x="83.398438"/>
      </g>
     </g>
    </g>
    <g id="ytick_5">
     <g id="line2d_21">
      <path d="M 55.28 50.172769 
L 493.2 50.172769 
" clip-path="url(#p02b77aada8)" style="fill: none; stroke: #ffffff; stroke-linecap: round"/>
     </g>
     <g id="line2d_22"/>
     <g id="text_12">
      <!-- 0.3 -->
      <g style="fill: #262626" transform="translate(34.38 53.751675) scale(0.1 -0.1)">
       <defs>
        <path id="ArialMT-33" d="M 269 1209 
L 831 1284 
Q 928 806 1161 595 
Q 1394 384 1728 384 
Q 2125 384 2398 659 
Q 2672 934 2672 1341 
Q 2672 1728 2419 1979 
Q 2166 2231 1775 2231 
Q 1616 2231 1378 2169 
L 1441 2663 
Q 1497 2656 1531 2656 
Q 1891 2656 2178 2843 
Q 2466 3031 2466 3422 
Q 2466 3731 2256 3934 
Q 2047 4138 1716 4138 
Q 1388 4138 1169 3931 
Q 950 3725 888 3313 
L 325 3413 
Q 428 3978 793 4289 
Q 1159 4600 1703 4600 
Q 2078 4600 2393 4439 
Q 2709 4278 2876 4000 
Q 3044 3722 3044 3409 
Q 3044 3113 2884 2869 
Q 2725 2625 2413 2481 
Q 2819 2388 3044 2092 
Q 3269 1797 3269 1353 
Q 3269 753 2831 336 
Q 2394 -81 1725 -81 
Q 1122 -81 723 278 
Q 325 638 269 1209 
z
" transform="scale(0.015625)"/>
       </defs>
       <use xlink:href="#ArialMT-30"/>
       <use xlink:href="#ArialMT-2e" x="55.615234"/>
       <use xlink:href="#ArialMT-33" x="83.398438"/>
      </g>
     </g>
    </g>
    <g id="ytick_6">
     <g id="line2d_23">
      <path d="M 55.28 17.362128 
L 493.2 17.362128 
" clip-path="url(#p02b77aada8)" style="fill: none; stroke: #ffffff; stroke-linecap: round"/>
     </g>
     <g id="line2d_24"/>
     <g id="text_13">
      <!-- 0.4 -->
      <g style="fill: #262626" transform="translate(34.38 20.941034) scale(0.1 -0.1)">
       <use xlink:href="#ArialMT-30"/>
       <use xlink:href="#ArialMT-2e" x="55.615234"/>
       <use xlink:href="#ArialMT-34" x="83.398438"/>
      </g>
     </g>
    </g>
    <g id="text_14">
     <!-- $f(\rho, \varphi)$ -->
     <g style="fill: #262626" transform="translate(22.229375 112.277667) rotate(-90) scale(0.11 -0.11)">
      <defs>
       <path id="DejaVuSans-Oblique-66" d="M 3059 4863 
L 2969 4384 
L 2419 4384 
Q 2106 4384 1964 4261 
Q 1822 4138 1753 3809 
L 1691 3500 
L 2638 3500 
L 2553 3053 
L 1606 3053 
L 1013 0 
L 434 0 
L 1031 3053 
L 481 3053 
L 563 3500 
L 1113 3500 
L 1159 3744 
Q 1278 4363 1576 4613 
Q 1875 4863 2516 4863 
L 3059 4863 
z
" transform="scale(0.015625)"/>
       <path id="DejaVuSans-28" d="M 1984 4856 
Q 1566 4138 1362 3434 
Q 1159 2731 1159 2009 
Q 1159 1288 1364 580 
Q 1569 -128 1984 -844 
L 1484 -844 
Q 1016 -109 783 600 
Q 550 1309 550 2009 
Q 550 2706 781 3412 
Q 1013 4119 1484 4856 
L 1984 4856 
z
" transform="scale(0.015625)"/>
       <path id="DejaVuSans-2c" d="M 750 794 
L 1409 794 
L 1409 256 
L 897 -744 
L 494 -744 
L 750 256 
L 750 794 
z
" transform="scale(0.015625)"/>
       <path id="DejaVuSans-Oblique-3c6" d="M 2969 3034 
Q 2766 3034 2675 2581 
L 2259 438 
Q 2553 438 2916 763 
Q 3244 1053 3375 1750 
Q 3497 2400 3300 2750 
Q 3138 3034 2969 3034 
z
M 3063 3525 
Q 3513 3525 3819 3113 
Q 4147 2672 3981 1750 
Q 3828 903 3291 400 
Q 2784 -75 2159 -75 
L 1916 -1331 
L 1344 -1331 
L 1588 -78 
Q 963 -78 641 400 
Q 309 888 475 1747 
Q 647 2641 1166 3097 
Q 1556 3438 2084 3525 
L 1984 3016 
Q 1766 2944 1538 2700 
Q 1194 2341 1081 1747 
Q 963 1116 1156 756 
Q 1334 434 1688 434 
L 2103 2581 
Q 2288 3525 3063 3525 
z
" transform="scale(0.015625)"/>
       <path id="DejaVuSans-29" d="M 513 4856 
L 1013 4856 
Q 1481 4119 1714 3412 
Q 1947 2706 1947 2009 
Q 1947 1309 1714 600 
Q 1481 -109 1013 -844 
L 513 -844 
Q 928 -128 1133 580 
Q 1338 1288 1338 2009 
Q 1338 2731 1133 3434 
Q 928 4138 513 4856 
z
" transform="scale(0.015625)"/>
      </defs>
      <use xlink:href="#DejaVuSans-Oblique-66" transform="translate(0 0.015625)"/>
      <use xlink:href="#DejaVuSans-28" transform="translate(35.205078 0.015625)"/>
      <use xlink:href="#DejaVuSans-Oblique-3c1" transform="translate(74.21875 0.015625)"/>
      <use xlink:href="#DejaVuSans-2c" transform="translate(137.695312 0.015625)"/>
      <use xlink:href="#DejaVuSans-Oblique-3c6" transform="translate(188.964844 0.015625)"/>
      <use xlink:href="#DejaVuSans-29" transform="translate(254.931641 0.015625)"/>
     </g>
    </g>
   </g>
   <g id="line2d_25">
    <path d="M 75.185455 148.604692 
L 79.166545 148.723809 
L 83.147636 149.081333 
L 87.128727 149.677784 
L 91.109818 150.514026 
L 95.090909 151.591274 
L 99.072 152.911091 
L 103.053091 154.475391 
L 107.034182 156.286442 
L 111.015273 158.346867 
L 114.996364 160.65965 
L 118.977455 163.228137 
L 122.958545 166.056041 
L 126.939636 169.147446 
L 130.920727 172.506813 
L 134.901818 176.138982 
L 138.882909 180.049183 
L 142.864 184.243038 
L 146.845091 188.726566 
L 151.394909 194.213567 
L 155.944727 200.097583 
L 160.494545 206.389593 
L 165.044364 213.101313 
L 167.561376 217 
L 167.561376 217 
" clip-path="url(#p02b77aada8)" style="fill: none; stroke: #55a868; stroke-opacity: 0.2; stroke-width: 1.75; stroke-linecap: round"/>
   </g>
   <g id="line2d_26">
    <path d="M 75.185455 148.604692 
L 79.166545 144.302614 
L 83.147636 140.312086 
L 87.128727 136.623476 
L 91.109818 133.227607 
L 95.090909 130.115747 
L 99.072 127.279597 
L 103.053091 124.711283 
L 107.034182 122.403349 
L 111.015273 120.34874 
L 114.996364 118.540803 
L 118.977455 116.973271 
L 122.958545 115.64026 
L 126.939636 114.536259 
L 130.920727 113.656125 
L 134.901818 112.995076 
L 138.882909 112.548683 
L 142.864 112.312867 
L 146.845091 112.283892 
L 150.826182 112.458361 
L 154.807273 112.83321 
L 158.788364 113.405707 
L 163.338182 114.298935 
L 167.888 115.444109 
L 172.437818 116.8387 
L 176.987636 118.480721 
L 181.537455 120.368726 
L 186.087273 122.501804 
L 190.637091 124.879576 
L 195.186909 127.502201 
L 199.736727 130.370368 
L 204.286545 133.485306 
L 208.836364 136.848778 
L 213.386182 140.463087 
L 218.504727 144.832585 
L 223.623273 149.52806 
L 228.741818 154.555292 
L 233.860364 159.920963 
L 238.978909 165.632676 
L 244.097455 171.698964 
L 249.216 178.129317 
L 254.334545 184.934194 
L 259.453091 192.125052 
L 264.571636 199.714364 
L 269.690182 207.715649 
L 274.808727 216.143498 
L 275.314334 217 
L 275.314334 217 
" clip-path="url(#p02b77aada8)" style="fill: none; stroke: #55a868; stroke-opacity: 0.297867; stroke-width: 1.75; stroke-linecap: round"/>
   </g>
   <g id="line2d_27">
    <path d="M 75.185455 148.604692 
L 79.166545 140.38525 
L 83.147636 132.683508 
L 87.128727 125.477936 
L 91.109818 118.747784 
L 95.090909 112.47306 
L 99.072 106.63451 
L 103.053091 101.213597 
L 107.034182 96.192482 
L 111.015273 91.554004 
L 114.996364 87.281659 
L 118.977455 83.359583 
L 122.958545 79.772535 
L 126.939636 76.505875 
L 130.920727 73.54555 
L 134.901818 70.878074 
L 138.882909 68.490516 
L 142.864 66.370477 
L 146.845091 64.506079 
L 150.826182 62.88595 
L 154.807273 61.499205 
L 158.788364 60.335435 
L 162.769455 59.384689 
L 166.750545 58.637465 
L 171.300364 58.021091 
L 175.850182 57.645843 
L 180.4 57.499545 
L 184.949818 57.570692 
L 189.499636 57.848426 
L 194.618182 58.395092 
L 199.736727 59.176626 
L 204.855273 60.180301 
L 209.973818 61.394291 
L 215.661091 62.976535 
L 221.348364 64.791098 
L 227.035636 66.82539 
L 233.291636 69.303324 
L 239.547636 72.019779 
L 246.372364 75.241213 
L 253.197091 78.718916 
L 260.021818 82.44165 
L 267.415273 86.740564 
L 274.808727 91.307431 
L 282.202182 96.136091 
L 289.595636 101.223109 
L 296.989091 106.567749 
L 304.382545 112.171974 
L 311.776 118.040451 
L 319.169455 124.180591 
L 326.562909 130.602586 
L 333.956364 137.319478 
L 341.349818 144.34724 
L 348.174545 151.126707 
L 354.999273 158.204533 
L 361.824 165.600411 
L 368.648727 173.336498 
L 374.904727 180.747859 
L 381.160727 188.486894 
L 387.416727 196.57664 
L 393.672727 205.042213 
L 399.928727 213.91091 
L 402.039728 217 
L 402.039728 217 
" clip-path="url(#p02b77aada8)" style="fill: none; stroke: #55a868; stroke-opacity: 0.423365; stroke-width: 1.75; stroke-linecap: round"/>
   </g>
   <g id="line2d_28">
    <path d="M 75.185455 148.604692 
L 79.166545 137.324066 
L 82.578909 128.272367 
L 85.991273 119.767434 
L 89.403636 111.788006 
L 92.816 104.313456 
L 96.228364 97.323772 
L 99.640727 90.799547 
L 103.053091 84.721967 
L 106.465455 79.072792 
L 109.877818 73.83435 
L 113.290182 68.989518 
L 116.702545 64.521715 
L 120.114909 60.414884 
L 123.527273 56.653486 
L 126.939636 53.222481 
L 130.352 50.107322 
L 133.764364 47.293938 
L 137.176727 44.768727 
L 140.589091 42.518543 
L 144.001455 40.530682 
L 147.413818 38.792874 
L 150.826182 37.293271 
L 154.238545 36.020438 
L 157.650909 34.963337 
L 161.063273 34.111323 
L 165.044364 33.362838 
L 169.025455 32.863874 
L 173.006545 32.599425 
L 176.987636 32.55513 
L 180.968727 32.717248 
L 185.518545 33.138448 
L 190.068364 33.79342 
L 194.618182 34.664433 
L 199.736727 35.881655 
L 204.855273 37.328434 
L 210.542545 39.179379 
L 216.229818 41.260196 
L 222.485818 43.784275 
L 229.310545 46.783115 
L 236.704 50.278557 
L 245.234909 54.575572 
L 254.903273 59.715398 
L 266.277818 66.030133 
L 281.633455 74.836456 
L 326.562909 100.765352 
L 341.349818 108.957367 
L 354.999273 116.266851 
L 368.08 123.02066 
L 381.160727 129.52154 
L 394.241455 135.776603 
L 408.459636 142.322122 
L 424.384 149.398433 
L 449.408 160.22813 
L 468.744727 168.694284 
L 473.294545 170.745097 
L 473.294545 170.745097 
" clip-path="url(#p02b77aada8)" style="fill: none; stroke: #55a868; stroke-opacity: 0.57993; stroke-width: 1.75; stroke-linecap: round"/>
   </g>
   <g id="line2d_29">
    <path d="M 75.185455 148.604692 
L 78.597818 137.208753 
L 82.010182 126.538552 
L 85.422545 116.565175 
L 88.834909 107.260535 
L 92.247273 98.597359 
L 95.659636 90.549172 
L 99.072 83.090275 
L 102.484364 76.195739 
L 105.896727 69.841381 
L 109.309091 64.003751 
L 112.721455 58.66012 
L 116.133818 53.78846 
L 119.546182 49.367431 
L 122.389818 46.012543 
L 125.233455 42.944621 
L 128.077091 40.152368 
L 130.920727 37.62479 
L 133.764364 35.351198 
L 136.608 33.321193 
L 139.451636 31.524667 
L 142.295273 29.951798 
L 145.138909 28.593036 
L 148.551273 27.232107 
L 151.963636 26.150635 
L 155.376 25.333641 
L 158.788364 24.766675 
L 162.200727 24.4358 
L 165.613091 24.327583 
L 169.025455 24.429077 
L 172.437818 24.727815 
L 176.418909 25.309648 
L 180.4 26.125347 
L 184.381091 27.157439 
L 188.930909 28.580575 
L 193.480727 30.240891 
L 198.599273 32.364361 
L 203.717818 34.729521 
L 209.405091 37.606608 
L 215.661091 41.032598 
L 222.485818 45.031375 
L 230.448 49.97259 
L 239.547636 55.890812 
L 251.490909 63.936483 
L 287.889455 88.643382 
L 299.264 95.991419 
L 308.932364 101.983041 
L 318.032 107.372243 
L 326.562909 112.180484 
L 335.093818 116.734068 
L 343.056 120.741193 
L 351.018182 124.503587 
L 358.980364 128.013068 
L 366.373818 131.039568 
L 373.767273 133.837918 
L 381.160727 136.404631 
L 388.554182 138.736947 
L 395.947636 140.832729 
L 403.341091 142.690385 
L 410.734545 144.308806 
L 418.128 145.687319 
L 425.521455 146.825658 
L 432.914909 147.723953 
L 440.308364 148.382736 
L 447.701818 148.802963 
L 455.095273 148.986055 
L 462.488727 148.933955 
L 469.882182 148.649201 
L 473.294545 148.440172 
L 473.294545 148.440172 
" clip-path="url(#p02b77aada8)" style="fill: none; stroke: #55a868; stroke-opacity: 0.770996; stroke-width: 1.75; stroke-linecap: round"/>
   </g>
   <g id="line2d_30">
    <path d="M 75.185455 148.604692 
L 78.597818 136.633284 
L 82.010182 125.446118 
L 85.422545 115.011571 
L 88.834909 105.298918 
L 92.247273 96.278318 
L 95.659636 87.92079 
L 99.072 80.198203 
L 102.484364 73.083259 
L 105.896727 66.54947 
L 109.309091 60.571148 
L 112.152727 55.995537 
L 114.996364 51.774352 
L 117.84 47.893949 
L 120.683636 44.341041 
L 123.527273 41.102693 
L 126.370909 38.16631 
L 129.214545 35.51964 
L 132.058182 33.150759 
L 134.901818 31.04807 
L 137.745455 29.200297 
L 140.589091 27.596476 
L 143.432727 26.225953 
L 146.276364 25.078374 
L 149.12 24.143682 
L 151.963636 23.412113 
L 155.376 22.789022 
L 158.788364 22.428936 
L 162.200727 22.316568 
L 165.613091 22.437183 
L 169.025455 22.776585 
L 172.437818 23.321103 
L 176.418909 24.19809 
L 180.4 25.316333 
L 184.381091 26.656691 
L 188.930909 28.437105 
L 193.480727 30.457862 
L 198.599273 32.987996 
L 203.717818 35.758368 
L 209.405091 39.080838 
L 215.661091 42.987083 
L 223.054545 47.879073 
L 231.585455 53.804363 
L 242.391273 61.59251 
L 281.064727 89.722282 
L 291.301818 96.75759 
L 300.401455 102.747166 
L 308.932364 108.101787 
L 316.894545 112.84888 
L 324.856727 117.3366 
L 332.250182 121.259303 
L 339.643636 124.937234 
L 347.037091 128.363034 
L 354.430545 131.530841 
L 361.255273 134.221996 
L 368.08 136.686614 
L 374.904727 138.922563 
L 381.729455 140.928258 
L 388.554182 142.702557 
L 395.378909 144.244667 
L 402.203636 145.554069 
L 409.028364 146.63044 
L 415.853091 147.473602 
L 422.677818 148.083466 
L 429.502545 148.459997 
L 436.327273 148.603186 
L 443.152 148.51303 
L 449.976727 148.189531 
L 456.801455 147.632696 
L 463.626182 146.842551 
L 470.450909 145.819169 
L 473.294545 145.323956 
L 473.294545 145.323956 
" clip-path="url(#p02b77aada8)" style="fill: none; stroke: #55a868; stroke-width: 1.75; stroke-linecap: round"/>
   </g>
   <g id="patch_3">
    <path d="M 55.28 181.415333 
L 55.28 10.8 
" style="fill: none"/>
   </g>
   <g id="patch_4">
    <path d="M 493.2 181.415333 
L 493.2 10.8 
" style="fill: none"/>
   </g>
   <g id="patch_5">
    <path d="M 55.28 181.415333 
L 493.2 181.415333 
" style="fill: none"/>
   </g>
   <g id="patch_6">
    <path d="M 55.28 10.8 
L 493.2 10.8 
" style="fill: none"/>
   </g>
  </g>
 </g>
 <defs>
  <clipPath id="p02b77aada8">
   <rect x="55.28" y="10.8" width="437.92" height="170.615333"/>
  </clipPath>
 </defs>
</svg>
