<?xml version="1.0" encoding="utf-8" standalone="no"?>
<!DOCTYPE svg PUBLIC "-//W3C//DTD SVG 1.1//EN"
  "http://www.w3.org/Graphics/SVG/1.1/DTD/svg11.dtd">
<svg xmlns:xlink="http://www.w3.org/1999/xlink" width="576pt" height="273.6pt" viewBox="0 0 576 273.6" xmlns="http://www.w3.org/2000/svg" version="1.1">
 <metadata>
  <rdf:RDF xmlns:dc="http://purl.org/dc/elements/1.1/" xmlns:cc="http://creativecommons.org/ns#" xmlns:rdf="http://www.w3.org/1999/02/22-rdf-syntax-ns#">
   <cc:Work>
    <dc:type rdf:resource="http://purl.org/dc/dcmitype/StillImage"/>
    <dc:date>2024-03-04T15:15:46.107434</dc:date>
    <dc:format>image/svg+xml</dc:format>
    <dc:creator>
     <cc:Agent>
      <dc:title>Matplotlib v3.8.2, https://matplotlib.org/</dc:title>
     </cc:Agent>
    </dc:creator>
   </cc:Work>
  </rdf:RDF>
 </metadata>
 <defs>
  <style type="text/css">*{stroke-linejoin: round; stroke-linecap: butt}</style>
 </defs>
 <g id="figure_1">
  <g id="patch_1">
   <path d="M 0 273.6 
L 576 273.6 
L 576 0 
L 0 0 
z
" style="fill: #ffffff"/>
  </g>
  <g id="axes_1">
   <g id="patch_2">
    <path d="M 56.197929 226.326625 
L 565.2 226.326625 
L 565.2 10.8 
L 56.197929 10.8 
z
" style="fill: #eaeaf2"/>
   </g>
   <g id="matplotlib.axis_1">
    <g id="xtick_1">
     <g id="line2d_1">
      <path d="M 79.334386 226.326625 
L 79.334386 10.8 
" clip-path="url(#pb4aa1586f8)" style="fill: none; stroke: #ffffff; stroke-linecap: round"/>
     </g>
     <g id="line2d_2"/>
     <g id="text_1">
      <!-- $\mathdefault{10^{-5}}$ -->
      <g style="fill: #262626" transform="translate(69.434386 243.539125) scale(0.1 -0.1)">
       <defs>
        <path id="ArialMT-31" d="M 2384 0 
L 1822 0 
L 1822 3584 
Q 1619 3391 1289 3197 
Q 959 3003 697 2906 
L 697 3450 
Q 1169 3672 1522 3987 
Q 1875 4303 2022 4600 
L 2384 4600 
L 2384 0 
z
" transform="scale(0.015625)"/>
        <path id="ArialMT-30" d="M 266 2259 
Q 266 3072 433 3567 
Q 600 4063 929 4331 
Q 1259 4600 1759 4600 
Q 2128 4600 2406 4451 
Q 2684 4303 2865 4023 
Q 3047 3744 3150 3342 
Q 3253 2941 3253 2259 
Q 3253 1453 3087 958 
Q 2922 463 2592 192 
Q 2263 -78 1759 -78 
Q 1097 -78 719 397 
Q 266 969 266 2259 
z
M 844 2259 
Q 844 1131 1108 757 
Q 1372 384 1759 384 
Q 2147 384 2411 759 
Q 2675 1134 2675 2259 
Q 2675 3391 2411 3762 
Q 2147 4134 1753 4134 
Q 1366 4134 1134 3806 
Q 844 3388 844 2259 
z
" transform="scale(0.015625)"/>
        <path id="ArialMT-2212" d="M 3381 1997 
L 356 1997 
L 356 2522 
L 3381 2522 
L 3381 1997 
z
" transform="scale(0.015625)"/>
        <path id="ArialMT-35" d="M 266 1200 
L 856 1250 
Q 922 819 1161 601 
Q 1400 384 1738 384 
Q 2144 384 2425 690 
Q 2706 997 2706 1503 
Q 2706 1984 2436 2262 
Q 2166 2541 1728 2541 
Q 1456 2541 1237 2417 
Q 1019 2294 894 2097 
L 366 2166 
L 809 4519 
L 3088 4519 
L 3088 3981 
L 1259 3981 
L 1013 2750 
Q 1425 3038 1878 3038 
Q 2478 3038 2890 2622 
Q 3303 2206 3303 1553 
Q 3303 931 2941 478 
Q 2500 -78 1738 -78 
Q 1113 -78 717 272 
Q 322 622 266 1200 
z
" transform="scale(0.015625)"/>
       </defs>
       <use xlink:href="#ArialMT-31" transform="translate(0 0.879688)"/>
       <use xlink:href="#ArialMT-30" transform="translate(55.615234 0.879688)"/>
       <use xlink:href="#ArialMT-2212" transform="translate(112.972813 70.573438) scale(0.7)"/>
       <use xlink:href="#ArialMT-35" transform="translate(153.851719 70.573438) scale(0.7)"/>
      </g>
     </g>
    </g>
    <g id="xtick_2">
     <g id="line2d_3">
      <path d="M 195.016675 226.326625 
L 195.016675 10.8 
" clip-path="url(#pb4aa1586f8)" style="fill: none; stroke: #ffffff; stroke-linecap: round"/>
     </g>
     <g id="line2d_4"/>
     <g id="text_2">
      <!-- $\mathdefault{10^{-4}}$ -->
      <g style="fill: #262626" transform="translate(185.116675 243.539125) scale(0.1 -0.1)">
       <defs>
        <path id="ArialMT-34" d="M 2069 0 
L 2069 1097 
L 81 1097 
L 81 1613 
L 2172 4581 
L 2631 4581 
L 2631 1613 
L 3250 1613 
L 3250 1097 
L 2631 1097 
L 2631 0 
L 2069 0 
z
M 2069 1613 
L 2069 3678 
L 634 1613 
L 2069 1613 
z
" transform="scale(0.015625)"/>
       </defs>
       <use xlink:href="#ArialMT-31" transform="translate(0 0.201563)"/>
       <use xlink:href="#ArialMT-30" transform="translate(55.615234 0.201563)"/>
       <use xlink:href="#ArialMT-2212" transform="translate(112.972813 69.895313) scale(0.7)"/>
       <use xlink:href="#ArialMT-34" transform="translate(153.851719 69.895313) scale(0.7)"/>
      </g>
     </g>
    </g>
    <g id="xtick_3">
     <g id="line2d_5">
      <path d="M 310.698964 226.326625 
L 310.698964 10.8 
" clip-path="url(#pb4aa1586f8)" style="fill: none; stroke: #ffffff; stroke-linecap: round"/>
     </g>
     <g id="line2d_6"/>
     <g id="text_3">
      <!-- $\mathdefault{10^{-3}}$ -->
      <g style="fill: #262626" transform="translate(300.798964 243.639125) scale(0.1 -0.1)">
       <defs>
        <path id="ArialMT-33" d="M 269 1209 
L 831 1284 
Q 928 806 1161 595 
Q 1394 384 1728 384 
Q 2125 384 2398 659 
Q 2672 934 2672 1341 
Q 2672 1728 2419 1979 
Q 2166 2231 1775 2231 
Q 1616 2231 1378 2169 
L 1441 2663 
Q 1497 2656 1531 2656 
Q 1891 2656 2178 2843 
Q 2466 3031 2466 3422 
Q 2466 3731 2256 3934 
Q 2047 4138 1716 4138 
Q 1388 4138 1169 3931 
Q 950 3725 888 3313 
L 325 3413 
Q 428 3978 793 4289 
Q 1159 4600 1703 4600 
Q 2078 4600 2393 4439 
Q 2709 4278 2876 4000 
Q 3044 3722 3044 3409 
Q 3044 3113 2884 2869 
Q 2725 2625 2413 2481 
Q 2819 2388 3044 2092 
Q 3269 1797 3269 1353 
Q 3269 753 2831 336 
Q 2394 -81 1725 -81 
Q 1122 -81 723 278 
Q 325 638 269 1209 
z
" transform="scale(0.015625)"/>
       </defs>
       <use xlink:href="#ArialMT-31" transform="translate(0 0.99375)"/>
       <use xlink:href="#ArialMT-30" transform="translate(55.615234 0.99375)"/>
       <use xlink:href="#ArialMT-2212" transform="translate(112.972813 70.6875) scale(0.7)"/>
       <use xlink:href="#ArialMT-33" transform="translate(153.851719 70.6875) scale(0.7)"/>
      </g>
     </g>
    </g>
    <g id="xtick_4">
     <g id="line2d_7">
      <path d="M 426.381253 226.326625 
L 426.381253 10.8 
" clip-path="url(#pb4aa1586f8)" style="fill: none; stroke: #ffffff; stroke-linecap: round"/>
     </g>
     <g id="line2d_8"/>
     <g id="text_4">
      <!-- $\mathdefault{10^{-2}}$ -->
      <g style="fill: #262626" transform="translate(416.481253 243.639125) scale(0.1 -0.1)">
       <defs>
        <path id="ArialMT-32" d="M 3222 541 
L 3222 0 
L 194 0 
Q 188 203 259 391 
Q 375 700 629 1000 
Q 884 1300 1366 1694 
Q 2113 2306 2375 2664 
Q 2638 3022 2638 3341 
Q 2638 3675 2398 3904 
Q 2159 4134 1775 4134 
Q 1369 4134 1125 3890 
Q 881 3647 878 3216 
L 300 3275 
Q 359 3922 746 4261 
Q 1134 4600 1788 4600 
Q 2447 4600 2831 4234 
Q 3216 3869 3216 3328 
Q 3216 3053 3103 2787 
Q 2991 2522 2730 2228 
Q 2469 1934 1863 1422 
Q 1356 997 1212 845 
Q 1069 694 975 541 
L 3222 541 
z
" transform="scale(0.015625)"/>
       </defs>
       <use xlink:href="#ArialMT-31" transform="translate(0 0.99375)"/>
       <use xlink:href="#ArialMT-30" transform="translate(55.615234 0.99375)"/>
       <use xlink:href="#ArialMT-2212" transform="translate(112.972813 70.6875) scale(0.7)"/>
       <use xlink:href="#ArialMT-32" transform="translate(153.851719 70.6875) scale(0.7)"/>
      </g>
     </g>
    </g>
    <g id="xtick_5">
     <g id="line2d_9">
      <path d="M 542.063542 226.326625 
L 542.063542 10.8 
" clip-path="url(#pb4aa1586f8)" style="fill: none; stroke: #ffffff; stroke-linecap: round"/>
     </g>
     <g id="line2d_10"/>
     <g id="text_5">
      <!-- $\mathdefault{10^{-1}}$ -->
      <g style="fill: #262626" transform="translate(532.163542 243.639125) scale(0.1 -0.1)">
       <use xlink:href="#ArialMT-31" transform="translate(0 0.99375)"/>
       <use xlink:href="#ArialMT-30" transform="translate(55.615234 0.99375)"/>
       <use xlink:href="#ArialMT-2212" transform="translate(112.972813 70.6875) scale(0.7)"/>
       <use xlink:href="#ArialMT-31" transform="translate(153.851719 70.6875) scale(0.7)"/>
      </g>
     </g>
    </g>
    <g id="xtick_6">
     <g id="line2d_11"/>
    </g>
    <g id="xtick_7">
     <g id="line2d_12"/>
    </g>
    <g id="xtick_8">
     <g id="line2d_13"/>
    </g>
    <g id="xtick_9">
     <g id="line2d_14"/>
    </g>
    <g id="xtick_10">
     <g id="line2d_15"/>
    </g>
    <g id="xtick_11">
     <g id="line2d_16"/>
    </g>
    <g id="xtick_12">
     <g id="line2d_17"/>
    </g>
    <g id="xtick_13">
     <g id="line2d_18"/>
    </g>
    <g id="xtick_14">
     <g id="line2d_19"/>
    </g>
    <g id="xtick_15">
     <g id="line2d_20"/>
    </g>
    <g id="xtick_16">
     <g id="line2d_21"/>
    </g>
    <g id="xtick_17">
     <g id="line2d_22"/>
    </g>
    <g id="xtick_18">
     <g id="line2d_23"/>
    </g>
    <g id="xtick_19">
     <g id="line2d_24"/>
    </g>
    <g id="xtick_20">
     <g id="line2d_25"/>
    </g>
    <g id="xtick_21">
     <g id="line2d_26"/>
    </g>
    <g id="xtick_22">
     <g id="line2d_27"/>
    </g>
    <g id="xtick_23">
     <g id="line2d_28"/>
    </g>
    <g id="xtick_24">
     <g id="line2d_29"/>
    </g>
    <g id="xtick_25">
     <g id="line2d_30"/>
    </g>
    <g id="xtick_26">
     <g id="line2d_31"/>
    </g>
    <g id="xtick_27">
     <g id="line2d_32"/>
    </g>
    <g id="xtick_28">
     <g id="line2d_33"/>
    </g>
    <g id="xtick_29">
     <g id="line2d_34"/>
    </g>
    <g id="xtick_30">
     <g id="line2d_35"/>
    </g>
    <g id="xtick_31">
     <g id="line2d_36"/>
    </g>
    <g id="xtick_32">
     <g id="line2d_37"/>
    </g>
    <g id="xtick_33">
     <g id="line2d_38"/>
    </g>
    <g id="xtick_34">
     <g id="line2d_39"/>
    </g>
    <g id="xtick_35">
     <g id="line2d_40"/>
    </g>
    <g id="xtick_36">
     <g id="line2d_41"/>
    </g>
    <g id="xtick_37">
     <g id="line2d_42"/>
    </g>
    <g id="xtick_38">
     <g id="line2d_43"/>
    </g>
    <g id="xtick_39">
     <g id="line2d_44"/>
    </g>
    <g id="xtick_40">
     <g id="line2d_45"/>
    </g>
    <g id="text_6">
     <!-- $\tau$ -->
     <g style="fill: #262626" transform="translate(307.343964 257.500219) scale(0.11 -0.11)">
      <defs>
       <path id="DejaVuSans-Oblique-3c4" d="M 2103 638 
Q 2188 488 2525 488 
L 2800 488 
L 2706 0 
L 2363 0 
Q 1800 0 1600 300 
Q 1403 606 1534 1269 
L 1856 2925 
L 541 2925 
L 653 3500 
L 3881 3500 
L 3769 2925 
L 2444 2925 
L 2113 1234 
Q 2025 781 2103 638 
z
" transform="scale(0.015625)"/>
      </defs>
      <use xlink:href="#DejaVuSans-Oblique-3c4" transform="translate(0 0.3125)"/>
     </g>
    </g>
   </g>
   <g id="matplotlib.axis_2">
    <g id="ytick_1">
     <g id="line2d_46">
      <path d="M 56.197929 208.26019 
L 565.2 208.26019 
" clip-path="url(#pb4aa1586f8)" style="fill: none; stroke: #ffffff; stroke-linecap: round"/>
     </g>
     <g id="line2d_47"/>
     <g id="text_7">
      <!-- $\mathdefault{10^{-13}}$ -->
      <g style="fill: #262626" transform="translate(25.497929 213.41644) scale(0.1 -0.1)">
       <use xlink:href="#ArialMT-31" transform="translate(0 0.99375)"/>
       <use xlink:href="#ArialMT-30" transform="translate(55.615234 0.99375)"/>
       <use xlink:href="#ArialMT-2212" transform="translate(112.972813 70.6875) scale(0.7)"/>
       <use xlink:href="#ArialMT-31" transform="translate(153.851719 70.6875) scale(0.7)"/>
       <use xlink:href="#ArialMT-33" transform="translate(192.782383 70.6875) scale(0.7)"/>
      </g>
     </g>
    </g>
    <g id="ytick_2">
     <g id="line2d_48">
      <path d="M 56.197929 177.228334 
L 565.2 177.228334 
" clip-path="url(#pb4aa1586f8)" style="fill: none; stroke: #ffffff; stroke-linecap: round"/>
     </g>
     <g id="line2d_49"/>
     <g id="text_8">
      <!-- $\mathdefault{10^{-11}}$ -->
      <g style="fill: #262626" transform="translate(25.497929 182.384584) scale(0.1 -0.1)">
       <use xlink:href="#ArialMT-31" transform="translate(0 0.99375)"/>
       <use xlink:href="#ArialMT-30" transform="translate(55.615234 0.99375)"/>
       <use xlink:href="#ArialMT-2212" transform="translate(112.972813 70.6875) scale(0.7)"/>
       <use xlink:href="#ArialMT-31" transform="translate(153.851719 70.6875) scale(0.7)"/>
       <use xlink:href="#ArialMT-31" transform="translate(192.782383 70.6875) scale(0.7)"/>
      </g>
     </g>
    </g>
    <g id="ytick_3">
     <g id="line2d_50">
      <path d="M 56.197929 146.196478 
L 565.2 146.196478 
" clip-path="url(#pb4aa1586f8)" style="fill: none; stroke: #ffffff; stroke-linecap: round"/>
     </g>
     <g id="line2d_51"/>
     <g id="text_9">
      <!-- $\mathdefault{10^{-9}}$ -->
      <g style="fill: #262626" transform="translate(29.397929 151.352728) scale(0.1 -0.1)">
       <defs>
        <path id="ArialMT-39" d="M 350 1059 
L 891 1109 
Q 959 728 1153 556 
Q 1347 384 1650 384 
Q 1909 384 2104 503 
Q 2300 622 2425 820 
Q 2550 1019 2634 1356 
Q 2719 1694 2719 2044 
Q 2719 2081 2716 2156 
Q 2547 1888 2255 1720 
Q 1963 1553 1622 1553 
Q 1053 1553 659 1965 
Q 266 2378 266 3053 
Q 266 3750 677 4175 
Q 1088 4600 1706 4600 
Q 2153 4600 2523 4359 
Q 2894 4119 3086 3673 
Q 3278 3228 3278 2384 
Q 3278 1506 3087 986 
Q 2897 466 2520 194 
Q 2144 -78 1638 -78 
Q 1100 -78 759 220 
Q 419 519 350 1059 
z
M 2653 3081 
Q 2653 3566 2395 3850 
Q 2138 4134 1775 4134 
Q 1400 4134 1122 3828 
Q 844 3522 844 3034 
Q 844 2597 1108 2323 
Q 1372 2050 1759 2050 
Q 2150 2050 2401 2323 
Q 2653 2597 2653 3081 
z
" transform="scale(0.015625)"/>
       </defs>
       <use xlink:href="#ArialMT-31" transform="translate(0 0.99375)"/>
       <use xlink:href="#ArialMT-30" transform="translate(55.615234 0.99375)"/>
       <use xlink:href="#ArialMT-2212" transform="translate(112.972813 70.6875) scale(0.7)"/>
       <use xlink:href="#ArialMT-39" transform="translate(153.851719 70.6875) scale(0.7)"/>
      </g>
     </g>
    </g>
    <g id="ytick_4">
     <g id="line2d_52">
      <path d="M 56.197929 115.164622 
L 565.2 115.164622 
" clip-path="url(#pb4aa1586f8)" style="fill: none; stroke: #ffffff; stroke-linecap: round"/>
     </g>
     <g id="line2d_53"/>
     <g id="text_10">
      <!-- $\mathdefault{10^{-7}}$ -->
      <g style="fill: #262626" transform="translate(29.397929 120.270872) scale(0.1 -0.1)">
       <defs>
        <path id="ArialMT-37" d="M 303 3981 
L 303 4522 
L 3269 4522 
L 3269 4084 
Q 2831 3619 2401 2847 
Q 1972 2075 1738 1259 
Q 1569 684 1522 0 
L 944 0 
Q 953 541 1156 1306 
Q 1359 2072 1739 2783 
Q 2119 3494 2547 3981 
L 303 3981 
z
" transform="scale(0.015625)"/>
       </defs>
       <use xlink:href="#ArialMT-31" transform="translate(0 0.846875)"/>
       <use xlink:href="#ArialMT-30" transform="translate(55.615234 0.846875)"/>
       <use xlink:href="#ArialMT-2212" transform="translate(112.972813 70.540625) scale(0.7)"/>
       <use xlink:href="#ArialMT-37" transform="translate(153.851719 70.540625) scale(0.7)"/>
      </g>
     </g>
    </g>
    <g id="ytick_5">
     <g id="line2d_54">
      <path d="M 56.197929 84.132766 
L 565.2 84.132766 
" clip-path="url(#pb4aa1586f8)" style="fill: none; stroke: #ffffff; stroke-linecap: round"/>
     </g>
     <g id="line2d_55"/>
     <g id="text_11">
      <!-- $\mathdefault{10^{-5}}$ -->
      <g style="fill: #262626" transform="translate(29.397929 89.239016) scale(0.1 -0.1)">
       <use xlink:href="#ArialMT-31" transform="translate(0 0.879688)"/>
       <use xlink:href="#ArialMT-30" transform="translate(55.615234 0.879688)"/>
       <use xlink:href="#ArialMT-2212" transform="translate(112.972813 70.573438) scale(0.7)"/>
       <use xlink:href="#ArialMT-35" transform="translate(153.851719 70.573438) scale(0.7)"/>
      </g>
     </g>
    </g>
    <g id="ytick_6">
     <g id="line2d_56">
      <path d="M 56.197929 53.10091 
L 565.2 53.10091 
" clip-path="url(#pb4aa1586f8)" style="fill: none; stroke: #ffffff; stroke-linecap: round"/>
     </g>
     <g id="line2d_57"/>
     <g id="text_12">
      <!-- $\mathdefault{10^{-3}}$ -->
      <g style="fill: #262626" transform="translate(29.397929 58.25716) scale(0.1 -0.1)">
       <use xlink:href="#ArialMT-31" transform="translate(0 0.99375)"/>
       <use xlink:href="#ArialMT-30" transform="translate(55.615234 0.99375)"/>
       <use xlink:href="#ArialMT-2212" transform="translate(112.972813 70.6875) scale(0.7)"/>
       <use xlink:href="#ArialMT-33" transform="translate(153.851719 70.6875) scale(0.7)"/>
      </g>
     </g>
    </g>
    <g id="ytick_7">
     <g id="line2d_58">
      <path d="M 56.197929 22.069054 
L 565.2 22.069054 
" clip-path="url(#pb4aa1586f8)" style="fill: none; stroke: #ffffff; stroke-linecap: round"/>
     </g>
     <g id="line2d_59"/>
     <g id="text_13">
      <!-- $\mathdefault{10^{-1}}$ -->
      <g style="fill: #262626" transform="translate(29.397929 27.225304) scale(0.1 -0.1)">
       <use xlink:href="#ArialMT-31" transform="translate(0 0.99375)"/>
       <use xlink:href="#ArialMT-30" transform="translate(55.615234 0.99375)"/>
       <use xlink:href="#ArialMT-2212" transform="translate(112.972813 70.6875) scale(0.7)"/>
       <use xlink:href="#ArialMT-31" transform="translate(153.851719 70.6875) scale(0.7)"/>
      </g>
     </g>
    </g>
    <g id="text_14">
     <!-- err -->
     <g style="fill: #262626" transform="translate(19.311679 125.284484) rotate(-90) scale(0.11 -0.11)">
      <defs>
       <path id="ArialMT-65" d="M 2694 1069 
L 3275 997 
Q 3138 488 2766 206 
Q 2394 -75 1816 -75 
Q 1088 -75 661 373 
Q 234 822 234 1631 
Q 234 2469 665 2931 
Q 1097 3394 1784 3394 
Q 2450 3394 2872 2941 
Q 3294 2488 3294 1666 
Q 3294 1616 3291 1516 
L 816 1516 
Q 847 969 1125 678 
Q 1403 388 1819 388 
Q 2128 388 2347 550 
Q 2566 713 2694 1069 
z
M 847 1978 
L 2700 1978 
Q 2663 2397 2488 2606 
Q 2219 2931 1791 2931 
Q 1403 2931 1139 2672 
Q 875 2413 847 1978 
z
" transform="scale(0.015625)"/>
       <path id="ArialMT-72" d="M 416 0 
L 416 3319 
L 922 3319 
L 922 2816 
Q 1116 3169 1280 3281 
Q 1444 3394 1641 3394 
Q 1925 3394 2219 3213 
L 2025 2691 
Q 1819 2813 1613 2813 
Q 1428 2813 1281 2702 
Q 1134 2591 1072 2394 
Q 978 2094 978 1738 
L 978 0 
L 416 0 
z
" transform="scale(0.015625)"/>
      </defs>
      <use xlink:href="#ArialMT-65"/>
      <use xlink:href="#ArialMT-72" x="55.615234"/>
      <use xlink:href="#ArialMT-72" x="88.916016"/>
     </g>
    </g>
   </g>
   <g id="line2d_60">
    <path d="M 542.063542 21.264247 
L 512.533035 25.595988 
L 483.626636 30.589816 
L 454.622209 37.485194 
L 426.381253 216.52996 
L 397.412094 41.072434 
L 368.417571 38.051356 
L 339.560724 36.806625 
L 310.698964 36.19405 
L 281.758038 35.871203 
L 252.846345 35.696315 
L 223.932006 35.599869 
L 195.016675 35.546215 
L 166.095521 35.516219 
L 137.175176 35.499409 
L 108.254184 35.489973 
L 79.334386 35.484674 
" clip-path="url(#pb4aa1586f8)" style="fill: none; stroke: #4c72b0; stroke-width: 1.75; stroke-linecap: round"/>
    <defs>
     <path id="m232ff71266" d="M 0 3.5 
C 0.928211 3.5 1.81853 3.131218 2.474874 2.474874 
C 3.131218 1.81853 3.5 0.928211 3.5 0 
C 3.5 -0.928211 3.131218 -1.81853 2.474874 -2.474874 
C 1.81853 -3.131218 0.928211 -3.5 0 -3.5 
C -0.928211 -3.5 -1.81853 -3.131218 -2.474874 -2.474874 
C -3.131218 -1.81853 -3.5 -0.928211 -3.5 0 
C -3.5 0.928211 -3.131218 1.81853 -2.474874 2.474874 
C -1.81853 3.131218 -0.928211 3.5 0 3.5 
z
"/>
    </defs>
    <g clip-path="url(#pb4aa1586f8)">
     <use xlink:href="#m232ff71266" x="542.063542" y="21.264247" style="fill: #4c72b0"/>
     <use xlink:href="#m232ff71266" x="512.533035" y="25.595988" style="fill: #4c72b0"/>
     <use xlink:href="#m232ff71266" x="483.626636" y="30.589816" style="fill: #4c72b0"/>
     <use xlink:href="#m232ff71266" x="454.622209" y="37.485194" style="fill: #4c72b0"/>
     <use xlink:href="#m232ff71266" x="426.381253" y="216.52996" style="fill: #4c72b0"/>
     <use xlink:href="#m232ff71266" x="397.412094" y="41.072434" style="fill: #4c72b0"/>
     <use xlink:href="#m232ff71266" x="368.417571" y="38.051356" style="fill: #4c72b0"/>
     <use xlink:href="#m232ff71266" x="339.560724" y="36.806625" style="fill: #4c72b0"/>
     <use xlink:href="#m232ff71266" x="310.698964" y="36.19405" style="fill: #4c72b0"/>
     <use xlink:href="#m232ff71266" x="281.758038" y="35.871203" style="fill: #4c72b0"/>
     <use xlink:href="#m232ff71266" x="252.846345" y="35.696315" style="fill: #4c72b0"/>
     <use xlink:href="#m232ff71266" x="223.932006" y="35.599869" style="fill: #4c72b0"/>
     <use xlink:href="#m232ff71266" x="195.016675" y="35.546215" style="fill: #4c72b0"/>
     <use xlink:href="#m232ff71266" x="166.095521" y="35.516219" style="fill: #4c72b0"/>
     <use xlink:href="#m232ff71266" x="137.175176" y="35.499409" style="fill: #4c72b0"/>
     <use xlink:href="#m232ff71266" x="108.254184" y="35.489973" style="fill: #4c72b0"/>
     <use xlink:href="#m232ff71266" x="79.334386" y="35.484674" style="fill: #4c72b0"/>
    </g>
   </g>
   <g id="line2d_61">
    <path d="M 542.063542 20.654412 
L 512.533035 24.414823 
L 483.626636 28.244637 
L 454.622209 32.228473 
L 426.381253 36.284799 
L 397.412094 40.754296 
L 368.417571 45.876311 
L 339.560724 52.747395 
L 310.698964 207.214014 
L 281.758038 56.597338 
L 252.846345 53.592 
L 223.932006 52.349635 
L 195.016675 51.739844 
L 166.095521 51.419603 
L 137.175176 51.245981 
L 108.254184 51.150271 
L 79.334386 51.097042 
" clip-path="url(#pb4aa1586f8)" style="fill: none; stroke: #55a868; stroke-width: 1.75; stroke-linecap: round"/>
    <defs>
     <path id="me5a650377d" d="M 0 -5 
L -1.12257 -1.545085 
L -4.755283 -1.545085 
L -1.816356 0.59017 
L -2.938926 4.045085 
L -0 1.90983 
L 2.938926 4.045085 
L 1.816356 0.59017 
L 4.755283 -1.545085 
L 1.12257 -1.545085 
z
"/>
    </defs>
    <g clip-path="url(#pb4aa1586f8)">
     <use xlink:href="#me5a650377d" x="542.063542" y="20.654412" style="fill: #55a868"/>
     <use xlink:href="#me5a650377d" x="512.533035" y="24.414823" style="fill: #55a868"/>
     <use xlink:href="#me5a650377d" x="483.626636" y="28.244637" style="fill: #55a868"/>
     <use xlink:href="#me5a650377d" x="454.622209" y="32.228473" style="fill: #55a868"/>
     <use xlink:href="#me5a650377d" x="426.381253" y="36.284799" style="fill: #55a868"/>
     <use xlink:href="#me5a650377d" x="397.412094" y="40.754296" style="fill: #55a868"/>
     <use xlink:href="#me5a650377d" x="368.417571" y="45.876311" style="fill: #55a868"/>
     <use xlink:href="#me5a650377d" x="339.560724" y="52.747395" style="fill: #55a868"/>
     <use xlink:href="#me5a650377d" x="310.698964" y="207.214014" style="fill: #55a868"/>
     <use xlink:href="#me5a650377d" x="281.758038" y="56.597338" style="fill: #55a868"/>
     <use xlink:href="#me5a650377d" x="252.846345" y="53.592" style="fill: #55a868"/>
     <use xlink:href="#me5a650377d" x="223.932006" y="52.349635" style="fill: #55a868"/>
     <use xlink:href="#me5a650377d" x="195.016675" y="51.739844" style="fill: #55a868"/>
     <use xlink:href="#me5a650377d" x="166.095521" y="51.419603" style="fill: #55a868"/>
     <use xlink:href="#me5a650377d" x="137.175176" y="51.245981" style="fill: #55a868"/>
     <use xlink:href="#me5a650377d" x="108.254184" y="51.150271" style="fill: #55a868"/>
     <use xlink:href="#me5a650377d" x="79.334386" y="51.097042" style="fill: #55a868"/>
    </g>
   </g>
   <g id="line2d_62">
    <path d="M 542.063542 20.596665 
L 512.533035 24.307929 
L 483.626636 28.050515 
L 454.622209 31.874999 
L 426.381253 35.646059 
L 397.412094 39.557998 
L 368.417571 43.527791 
L 339.560724 47.563138 
L 310.698964 51.748939 
L 281.758038 56.238001 
L 252.846345 61.356464 
L 223.932006 68.24056 
L 195.016675 191.64958 
L 166.095521 72.117085 
L 137.175176 69.110397 
L 108.254184 67.868241 
L 79.334386 67.258753 
" clip-path="url(#pb4aa1586f8)" style="fill: none; stroke: #c44e52; stroke-width: 1.75; stroke-linecap: round"/>
    <defs>
     <path id="m0557786f1d" d="M -0 4.949747 
L 4.949747 0 
L 0 -4.949747 
L -4.949747 -0 
z
"/>
    </defs>
    <g clip-path="url(#pb4aa1586f8)">
     <use xlink:href="#m0557786f1d" x="542.063542" y="20.596665" style="fill: #c44e52"/>
     <use xlink:href="#m0557786f1d" x="512.533035" y="24.307929" style="fill: #c44e52"/>
     <use xlink:href="#m0557786f1d" x="483.626636" y="28.050515" style="fill: #c44e52"/>
     <use xlink:href="#m0557786f1d" x="454.622209" y="31.874999" style="fill: #c44e52"/>
     <use xlink:href="#m0557786f1d" x="426.381253" y="35.646059" style="fill: #c44e52"/>
     <use xlink:href="#m0557786f1d" x="397.412094" y="39.557998" style="fill: #c44e52"/>
     <use xlink:href="#m0557786f1d" x="368.417571" y="43.527791" style="fill: #c44e52"/>
     <use xlink:href="#m0557786f1d" x="339.560724" y="47.563138" style="fill: #c44e52"/>
     <use xlink:href="#m0557786f1d" x="310.698964" y="51.748939" style="fill: #c44e52"/>
     <use xlink:href="#m0557786f1d" x="281.758038" y="56.238001" style="fill: #c44e52"/>
     <use xlink:href="#m0557786f1d" x="252.846345" y="61.356464" style="fill: #c44e52"/>
     <use xlink:href="#m0557786f1d" x="223.932006" y="68.24056" style="fill: #c44e52"/>
     <use xlink:href="#m0557786f1d" x="195.016675" y="191.64958" style="fill: #c44e52"/>
     <use xlink:href="#m0557786f1d" x="166.095521" y="72.117085" style="fill: #c44e52"/>
     <use xlink:href="#m0557786f1d" x="137.175176" y="69.110397" style="fill: #c44e52"/>
     <use xlink:href="#m0557786f1d" x="108.254184" y="67.868241" style="fill: #c44e52"/>
     <use xlink:href="#m0557786f1d" x="79.334386" y="67.258753" style="fill: #c44e52"/>
    </g>
   </g>
   <g id="line2d_63">
    <path d="M 542.063542 22.069054 
L 512.533035 26.029843 
L 483.626636 29.906924 
L 454.622209 33.797153 
L 426.381253 37.584982 
L 397.412094 41.47048 
L 368.417571 45.359381 
L 339.560724 49.229816 
L 310.698964 53.10091 
L 281.758038 56.982622 
L 252.846345 60.860413 
L 223.932006 64.738559 
L 195.016675 68.616838 
L 166.095521 72.495898 
L 137.175176 76.374849 
L 108.254184 80.253888 
L 79.334386 84.132766 
" clip-path="url(#pb4aa1586f8)" style="fill: none; stroke-dasharray: 6.475,2.8; stroke-dashoffset: 0; stroke: #8172b2; stroke-width: 1.75"/>
   </g>
   <g id="patch_3">
    <path d="M 56.197929 226.326625 
L 56.197929 10.8 
" style="fill: none"/>
   </g>
   <g id="patch_4">
    <path d="M 565.2 226.326625 
L 565.2 10.8 
" style="fill: none"/>
   </g>
   <g id="patch_5">
    <path d="M 56.197929 226.326625 
L 565.2 226.326625 
" style="fill: none"/>
   </g>
   <g id="patch_6">
    <path d="M 56.197929 10.8 
L 565.2 10.8 
" style="fill: none"/>
   </g>
   <g id="legend_1">
    <g id="line2d_64">
     <path d="M 65.197929 169.193812 
L 75.197929 169.193812 
L 85.197929 169.193812 
" style="fill: none; stroke: #4c72b0; stroke-width: 1.75; stroke-linecap: round"/>
     <g>
      <use xlink:href="#m232ff71266" x="75.197929" y="169.193812" style="fill: #4c72b0"/>
     </g>
    </g>
    <g id="text_15">
     <!-- h = $10^{-2}$ -->
     <g style="fill: #262626" transform="translate(93.197929 172.693812) scale(0.1 -0.1)">
      <defs>
       <path id="ArialMT-68" d="M 422 0 
L 422 4581 
L 984 4581 
L 984 2938 
Q 1378 3394 1978 3394 
Q 2347 3394 2619 3248 
Q 2891 3103 3008 2847 
Q 3125 2591 3125 2103 
L 3125 0 
L 2563 0 
L 2563 2103 
Q 2563 2525 2380 2717 
Q 2197 2909 1863 2909 
Q 1613 2909 1392 2779 
Q 1172 2650 1078 2428 
Q 984 2206 984 1816 
L 984 0 
L 422 0 
z
" transform="scale(0.015625)"/>
       <path id="ArialMT-20" transform="scale(0.015625)"/>
       <path id="ArialMT-3d" d="M 3381 2694 
L 356 2694 
L 356 3219 
L 3381 3219 
L 3381 2694 
z
M 3381 1303 
L 356 1303 
L 356 1828 
L 3381 1828 
L 3381 1303 
z
" transform="scale(0.015625)"/>
       <path id="DejaVuSans-31" d="M 794 531 
L 1825 531 
L 1825 4091 
L 703 3866 
L 703 4441 
L 1819 4666 
L 2450 4666 
L 2450 531 
L 3481 531 
L 3481 0 
L 794 0 
L 794 531 
z
" transform="scale(0.015625)"/>
       <path id="DejaVuSans-30" d="M 2034 4250 
Q 1547 4250 1301 3770 
Q 1056 3291 1056 2328 
Q 1056 1369 1301 889 
Q 1547 409 2034 409 
Q 2525 409 2770 889 
Q 3016 1369 3016 2328 
Q 3016 3291 2770 3770 
Q 2525 4250 2034 4250 
z
M 2034 4750 
Q 2819 4750 3233 4129 
Q 3647 3509 3647 2328 
Q 3647 1150 3233 529 
Q 2819 -91 2034 -91 
Q 1250 -91 836 529 
Q 422 1150 422 2328 
Q 422 3509 836 4129 
Q 1250 4750 2034 4750 
z
" transform="scale(0.015625)"/>
       <path id="DejaVuSans-2212" d="M 678 2272 
L 4684 2272 
L 4684 1741 
L 678 1741 
L 678 2272 
z
" transform="scale(0.015625)"/>
       <path id="DejaVuSans-32" d="M 1228 531 
L 3431 531 
L 3431 0 
L 469 0 
L 469 531 
Q 828 903 1448 1529 
Q 2069 2156 2228 2338 
Q 2531 2678 2651 2914 
Q 2772 3150 2772 3378 
Q 2772 3750 2511 3984 
Q 2250 4219 1831 4219 
Q 1534 4219 1204 4116 
Q 875 4013 500 3803 
L 500 4441 
Q 881 4594 1212 4672 
Q 1544 4750 1819 4750 
Q 2544 4750 2975 4387 
Q 3406 4025 3406 3419 
Q 3406 3131 3298 2873 
Q 3191 2616 2906 2266 
Q 2828 2175 2409 1742 
Q 1991 1309 1228 531 
z
" transform="scale(0.015625)"/>
      </defs>
      <use xlink:href="#ArialMT-68" transform="translate(0 0.765625)"/>
      <use xlink:href="#ArialMT-20" transform="translate(55.615234 0.765625)"/>
      <use xlink:href="#ArialMT-3d" transform="translate(83.398438 0.765625)"/>
      <use xlink:href="#ArialMT-20" transform="translate(141.796875 0.765625)"/>
      <use xlink:href="#DejaVuSans-31" transform="translate(169.580078 0.765625)"/>
      <use xlink:href="#DejaVuSans-30" transform="translate(233.203125 0.765625)"/>
      <use xlink:href="#DejaVuSans-2212" transform="translate(297.783203 39.046875) scale(0.7)"/>
      <use xlink:href="#DejaVuSans-32" transform="translate(356.435547 39.046875) scale(0.7)"/>
     </g>
    </g>
    <g id="line2d_65">
     <path d="M 65.197929 183.493812 
L 75.197929 183.493812 
L 85.197929 183.493812 
" style="fill: none; stroke: #55a868; stroke-width: 1.75; stroke-linecap: round"/>
     <g>
      <use xlink:href="#me5a650377d" x="75.197929" y="183.493812" style="fill: #55a868"/>
     </g>
    </g>
    <g id="text_16">
     <!-- h = $10^{-3}$ -->
     <g style="fill: #262626" transform="translate(93.197929 186.993812) scale(0.1 -0.1)">
      <defs>
       <path id="DejaVuSans-33" d="M 2597 2516 
Q 3050 2419 3304 2112 
Q 3559 1806 3559 1356 
Q 3559 666 3084 287 
Q 2609 -91 1734 -91 
Q 1441 -91 1130 -33 
Q 819 25 488 141 
L 488 750 
Q 750 597 1062 519 
Q 1375 441 1716 441 
Q 2309 441 2620 675 
Q 2931 909 2931 1356 
Q 2931 1769 2642 2001 
Q 2353 2234 1838 2234 
L 1294 2234 
L 1294 2753 
L 1863 2753 
Q 2328 2753 2575 2939 
Q 2822 3125 2822 3475 
Q 2822 3834 2567 4026 
Q 2313 4219 1838 4219 
Q 1578 4219 1281 4162 
Q 984 4106 628 3988 
L 628 4550 
Q 988 4650 1302 4700 
Q 1616 4750 1894 4750 
Q 2613 4750 3031 4423 
Q 3450 4097 3450 3541 
Q 3450 3153 3228 2886 
Q 3006 2619 2597 2516 
z
" transform="scale(0.015625)"/>
      </defs>
      <use xlink:href="#ArialMT-68" transform="translate(0 0.765625)"/>
      <use xlink:href="#ArialMT-20" transform="translate(55.615234 0.765625)"/>
      <use xlink:href="#ArialMT-3d" transform="translate(83.398438 0.765625)"/>
      <use xlink:href="#ArialMT-20" transform="translate(141.796875 0.765625)"/>
      <use xlink:href="#DejaVuSans-31" transform="translate(169.580078 0.765625)"/>
      <use xlink:href="#DejaVuSans-30" transform="translate(233.203125 0.765625)"/>
      <use xlink:href="#DejaVuSans-2212" transform="translate(297.783203 39.046875) scale(0.7)"/>
      <use xlink:href="#DejaVuSans-33" transform="translate(356.435547 39.046875) scale(0.7)"/>
     </g>
    </g>
    <g id="line2d_66">
     <path d="M 65.197929 197.693812 
L 75.197929 197.693812 
L 85.197929 197.693812 
" style="fill: none; stroke: #c44e52; stroke-width: 1.75; stroke-linecap: round"/>
     <g>
      <use xlink:href="#m0557786f1d" x="75.197929" y="197.693812" style="fill: #c44e52"/>
     </g>
    </g>
    <g id="text_17">
     <!-- h = $10^{-4}$ -->
     <g style="fill: #262626" transform="translate(93.197929 201.193812) scale(0.1 -0.1)">
      <defs>
       <path id="DejaVuSans-34" d="M 2419 4116 
L 825 1625 
L 2419 1625 
L 2419 4116 
z
M 2253 4666 
L 3047 4666 
L 3047 1625 
L 3713 1625 
L 3713 1100 
L 3047 1100 
L 3047 0 
L 2419 0 
L 2419 1100 
L 313 1100 
L 313 1709 
L 2253 4666 
z
" transform="scale(0.015625)"/>
      </defs>
      <use xlink:href="#ArialMT-68" transform="translate(0 0.684375)"/>
      <use xlink:href="#ArialMT-20" transform="translate(55.615234 0.684375)"/>
      <use xlink:href="#ArialMT-3d" transform="translate(83.398438 0.684375)"/>
      <use xlink:href="#ArialMT-20" transform="translate(141.796875 0.684375)"/>
      <use xlink:href="#DejaVuSans-31" transform="translate(169.580078 0.684375)"/>
      <use xlink:href="#DejaVuSans-30" transform="translate(233.203125 0.684375)"/>
      <use xlink:href="#DejaVuSans-2212" transform="translate(297.783203 38.965625) scale(0.7)"/>
      <use xlink:href="#DejaVuSans-34" transform="translate(356.435547 38.965625) scale(0.7)"/>
     </g>
    </g>
    <g id="line2d_67">
     <path d="M 65.197929 211.839125 
L 75.197929 211.839125 
L 85.197929 211.839125 
" style="fill: none; stroke-dasharray: 6.475,2.8; stroke-dashoffset: 0; stroke: #8172b2; stroke-width: 1.75"/>
    </g>
    <g id="text_18">
     <!-- order 1 -->
     <g style="fill: #262626" transform="translate(93.197929 215.339125) scale(0.1 -0.1)">
      <defs>
       <path id="ArialMT-6f" d="M 213 1659 
Q 213 2581 725 3025 
Q 1153 3394 1769 3394 
Q 2453 3394 2887 2945 
Q 3322 2497 3322 1706 
Q 3322 1066 3130 698 
Q 2938 331 2570 128 
Q 2203 -75 1769 -75 
Q 1072 -75 642 372 
Q 213 819 213 1659 
z
M 791 1659 
Q 791 1022 1069 705 
Q 1347 388 1769 388 
Q 2188 388 2466 706 
Q 2744 1025 2744 1678 
Q 2744 2294 2464 2611 
Q 2184 2928 1769 2928 
Q 1347 2928 1069 2612 
Q 791 2297 791 1659 
z
" transform="scale(0.015625)"/>
       <path id="ArialMT-64" d="M 2575 0 
L 2575 419 
Q 2259 -75 1647 -75 
Q 1250 -75 917 144 
Q 584 363 401 755 
Q 219 1147 219 1656 
Q 219 2153 384 2558 
Q 550 2963 881 3178 
Q 1213 3394 1622 3394 
Q 1922 3394 2156 3267 
Q 2391 3141 2538 2938 
L 2538 4581 
L 3097 4581 
L 3097 0 
L 2575 0 
z
M 797 1656 
Q 797 1019 1065 703 
Q 1334 388 1700 388 
Q 2069 388 2326 689 
Q 2584 991 2584 1609 
Q 2584 2291 2321 2609 
Q 2059 2928 1675 2928 
Q 1300 2928 1048 2622 
Q 797 2316 797 1656 
z
" transform="scale(0.015625)"/>
      </defs>
      <use xlink:href="#ArialMT-6f"/>
      <use xlink:href="#ArialMT-72" x="55.615234"/>
      <use xlink:href="#ArialMT-64" x="88.916016"/>
      <use xlink:href="#ArialMT-65" x="144.53125"/>
      <use xlink:href="#ArialMT-72" x="200.146484"/>
      <use xlink:href="#ArialMT-20" x="233.447266"/>
      <use xlink:href="#ArialMT-31" x="261.230469"/>
     </g>
    </g>
   </g>
  </g>
 </g>
 <defs>
  <clipPath id="pb4aa1586f8">
   <rect x="56.197929" y="10.8" width="509.002071" height="215.526625"/>
  </clipPath>
 </defs>
</svg>
