<?xml version="1.0" encoding="utf-8" standalone="no"?>
<!DOCTYPE svg PUBLIC "-//W3C//DTD SVG 1.1//EN"
  "http://www.w3.org/Graphics/SVG/1.1/DTD/svg11.dtd">
<svg xmlns:xlink="http://www.w3.org/1999/xlink" width="648pt" height="266.4pt" viewBox="0 0 648 266.4" xmlns="http://www.w3.org/2000/svg" version="1.1">
 <metadata>
  <rdf:RDF xmlns:dc="http://purl.org/dc/elements/1.1/" xmlns:cc="http://creativecommons.org/ns#" xmlns:rdf="http://www.w3.org/1999/02/22-rdf-syntax-ns#">
   <cc:Work>
    <dc:type rdf:resource="http://purl.org/dc/dcmitype/StillImage"/>
    <dc:date>2024-03-04T15:56:08.361905</dc:date>
    <dc:format>image/svg+xml</dc:format>
    <dc:creator>
     <cc:Agent>
      <dc:title>Matplotlib v3.8.2, https://matplotlib.org/</dc:title>
     </cc:Agent>
    </dc:creator>
   </cc:Work>
  </rdf:RDF>
 </metadata>
 <defs>
  <style type="text/css">*{stroke-linejoin: round; stroke-linecap: butt}</style>
 </defs>
 <g id="figure_1">
  <g id="patch_1">
   <path d="M 0 266.4 
L 648 266.4 
L 648 0 
L 0 0 
z
" style="fill: #ffffff"/>
  </g>
  <g id="axes_1">
   <g id="patch_2">
    <path d="M 31.75 226.33293 
L 637.2 226.33293 
L 637.2 10.8 
L 31.75 10.8 
z
" style="fill: #eaeaf2"/>
   </g>
   <g id="matplotlib.axis_1">
    <g id="xtick_1">
     <g id="line2d_1">
      <path d="M 57.664643 226.33293 
L 57.664643 10.8 
" clip-path="url(#pbd9930286c)" style="fill: none; stroke: #ffffff; stroke-linecap: round"/>
     </g>
     <g id="line2d_2"/>
     <g id="text_1">
      <!-- −1.5 -->
      <g style="fill: #262626" transform="translate(47.79433 240.490742) scale(0.1 -0.1)">
       <defs>
        <path id="ArialMT-2212" d="M 3381 1997 
L 356 1997 
L 356 2522 
L 3381 2522 
L 3381 1997 
z
" transform="scale(0.015625)"/>
        <path id="ArialMT-31" d="M 2384 0 
L 1822 0 
L 1822 3584 
Q 1619 3391 1289 3197 
Q 959 3003 697 2906 
L 697 3450 
Q 1169 3672 1522 3987 
Q 1875 4303 2022 4600 
L 2384 4600 
L 2384 0 
z
" transform="scale(0.015625)"/>
        <path id="ArialMT-2e" d="M 581 0 
L 581 641 
L 1222 641 
L 1222 0 
L 581 0 
z
" transform="scale(0.015625)"/>
        <path id="ArialMT-35" d="M 266 1200 
L 856 1250 
Q 922 819 1161 601 
Q 1400 384 1738 384 
Q 2144 384 2425 690 
Q 2706 997 2706 1503 
Q 2706 1984 2436 2262 
Q 2166 2541 1728 2541 
Q 1456 2541 1237 2417 
Q 1019 2294 894 2097 
L 366 2166 
L 809 4519 
L 3088 4519 
L 3088 3981 
L 1259 3981 
L 1013 2750 
Q 1425 3038 1878 3038 
Q 2478 3038 2890 2622 
Q 3303 2206 3303 1553 
Q 3303 931 2941 478 
Q 2500 -78 1738 -78 
Q 1113 -78 717 272 
Q 322 622 266 1200 
z
" transform="scale(0.015625)"/>
       </defs>
       <use xlink:href="#ArialMT-2212"/>
       <use xlink:href="#ArialMT-31" x="58.398438"/>
       <use xlink:href="#ArialMT-2e" x="114.013672"/>
       <use xlink:href="#ArialMT-35" x="141.796875"/>
      </g>
     </g>
    </g>
    <g id="xtick_2">
     <g id="line2d_3">
      <path d="M 167.231491 226.33293 
L 167.231491 10.8 
" clip-path="url(#pbd9930286c)" style="fill: none; stroke: #ffffff; stroke-linecap: round"/>
     </g>
     <g id="line2d_4"/>
     <g id="text_2">
      <!-- −1.0 -->
      <g style="fill: #262626" transform="translate(157.361179 240.490742) scale(0.1 -0.1)">
       <defs>
        <path id="ArialMT-30" d="M 266 2259 
Q 266 3072 433 3567 
Q 600 4063 929 4331 
Q 1259 4600 1759 4600 
Q 2128 4600 2406 4451 
Q 2684 4303 2865 4023 
Q 3047 3744 3150 3342 
Q 3253 2941 3253 2259 
Q 3253 1453 3087 958 
Q 2922 463 2592 192 
Q 2263 -78 1759 -78 
Q 1097 -78 719 397 
Q 266 969 266 2259 
z
M 844 2259 
Q 844 1131 1108 757 
Q 1372 384 1759 384 
Q 2147 384 2411 759 
Q 2675 1134 2675 2259 
Q 2675 3391 2411 3762 
Q 2147 4134 1753 4134 
Q 1366 4134 1134 3806 
Q 844 3388 844 2259 
z
" transform="scale(0.015625)"/>
       </defs>
       <use xlink:href="#ArialMT-2212"/>
       <use xlink:href="#ArialMT-31" x="58.398438"/>
       <use xlink:href="#ArialMT-2e" x="114.013672"/>
       <use xlink:href="#ArialMT-30" x="141.796875"/>
      </g>
     </g>
    </g>
    <g id="xtick_3">
     <g id="line2d_5">
      <path d="M 276.79834 226.33293 
L 276.79834 10.8 
" clip-path="url(#pbd9930286c)" style="fill: none; stroke: #ffffff; stroke-linecap: round"/>
     </g>
     <g id="line2d_6"/>
     <g id="text_3">
      <!-- −0.5 -->
      <g style="fill: #262626" transform="translate(266.928028 240.490742) scale(0.1 -0.1)">
       <use xlink:href="#ArialMT-2212"/>
       <use xlink:href="#ArialMT-30" x="58.398438"/>
       <use xlink:href="#ArialMT-2e" x="114.013672"/>
       <use xlink:href="#ArialMT-35" x="141.796875"/>
      </g>
     </g>
    </g>
    <g id="xtick_4">
     <g id="line2d_7">
      <path d="M 386.365189 226.33293 
L 386.365189 10.8 
" clip-path="url(#pbd9930286c)" style="fill: none; stroke: #ffffff; stroke-linecap: round"/>
     </g>
     <g id="line2d_8"/>
     <g id="text_4">
      <!-- 0.0 -->
      <g style="fill: #262626" transform="translate(379.415189 240.490742) scale(0.1 -0.1)">
       <use xlink:href="#ArialMT-30"/>
       <use xlink:href="#ArialMT-2e" x="55.615234"/>
       <use xlink:href="#ArialMT-30" x="83.398438"/>
      </g>
     </g>
    </g>
    <g id="xtick_5">
     <g id="line2d_9">
      <path d="M 495.932037 226.33293 
L 495.932037 10.8 
" clip-path="url(#pbd9930286c)" style="fill: none; stroke: #ffffff; stroke-linecap: round"/>
     </g>
     <g id="line2d_10"/>
     <g id="text_5">
      <!-- 0.5 -->
      <g style="fill: #262626" transform="translate(488.982037 240.490742) scale(0.1 -0.1)">
       <use xlink:href="#ArialMT-30"/>
       <use xlink:href="#ArialMT-2e" x="55.615234"/>
       <use xlink:href="#ArialMT-35" x="83.398438"/>
      </g>
     </g>
    </g>
    <g id="xtick_6">
     <g id="line2d_11">
      <path d="M 605.498886 226.33293 
L 605.498886 10.8 
" clip-path="url(#pbd9930286c)" style="fill: none; stroke: #ffffff; stroke-linecap: round"/>
     </g>
     <g id="line2d_12"/>
     <g id="text_6">
      <!-- 1.0 -->
      <g style="fill: #262626" transform="translate(598.548886 240.490742) scale(0.1 -0.1)">
       <use xlink:href="#ArialMT-31"/>
       <use xlink:href="#ArialMT-2e" x="55.615234"/>
       <use xlink:href="#ArialMT-30" x="83.398438"/>
      </g>
     </g>
    </g>
   </g>
   <g id="matplotlib.axis_2">
    <g id="ytick_1">
     <g id="line2d_13">
      <path d="M 31.75 210.476478 
L 637.2 210.476478 
" clip-path="url(#pbd9930286c)" style="fill: none; stroke: #ffffff; stroke-linecap: round"/>
     </g>
     <g id="line2d_14"/>
     <g id="text_7">
      <!-- 0.0 -->
      <g style="fill: #262626" transform="translate(10.85 214.055384) scale(0.1 -0.1)">
       <use xlink:href="#ArialMT-30"/>
       <use xlink:href="#ArialMT-2e" x="55.615234"/>
       <use xlink:href="#ArialMT-30" x="83.398438"/>
      </g>
     </g>
    </g>
    <g id="ytick_2">
     <g id="line2d_15">
      <path d="M 31.75 183.044702 
L 637.2 183.044702 
" clip-path="url(#pbd9930286c)" style="fill: none; stroke: #ffffff; stroke-linecap: round"/>
     </g>
     <g id="line2d_16"/>
     <g id="text_8">
      <!-- 0.2 -->
      <g style="fill: #262626" transform="translate(10.85 186.623608) scale(0.1 -0.1)">
       <defs>
        <path id="ArialMT-32" d="M 3222 541 
L 3222 0 
L 194 0 
Q 188 203 259 391 
Q 375 700 629 1000 
Q 884 1300 1366 1694 
Q 2113 2306 2375 2664 
Q 2638 3022 2638 3341 
Q 2638 3675 2398 3904 
Q 2159 4134 1775 4134 
Q 1369 4134 1125 3890 
Q 881 3647 878 3216 
L 300 3275 
Q 359 3922 746 4261 
Q 1134 4600 1788 4600 
Q 2447 4600 2831 4234 
Q 3216 3869 3216 3328 
Q 3216 3053 3103 2787 
Q 2991 2522 2730 2228 
Q 2469 1934 1863 1422 
Q 1356 997 1212 845 
Q 1069 694 975 541 
L 3222 541 
z
" transform="scale(0.015625)"/>
       </defs>
       <use xlink:href="#ArialMT-30"/>
       <use xlink:href="#ArialMT-2e" x="55.615234"/>
       <use xlink:href="#ArialMT-32" x="83.398438"/>
      </g>
     </g>
    </g>
    <g id="ytick_3">
     <g id="line2d_17">
      <path d="M 31.75 155.612926 
L 637.2 155.612926 
" clip-path="url(#pbd9930286c)" style="fill: none; stroke: #ffffff; stroke-linecap: round"/>
     </g>
     <g id="line2d_18"/>
     <g id="text_9">
      <!-- 0.4 -->
      <g style="fill: #262626" transform="translate(10.85 159.191832) scale(0.1 -0.1)">
       <defs>
        <path id="ArialMT-34" d="M 2069 0 
L 2069 1097 
L 81 1097 
L 81 1613 
L 2172 4581 
L 2631 4581 
L 2631 1613 
L 3250 1613 
L 3250 1097 
L 2631 1097 
L 2631 0 
L 2069 0 
z
M 2069 1613 
L 2069 3678 
L 634 1613 
L 2069 1613 
z
" transform="scale(0.015625)"/>
       </defs>
       <use xlink:href="#ArialMT-30"/>
       <use xlink:href="#ArialMT-2e" x="55.615234"/>
       <use xlink:href="#ArialMT-34" x="83.398438"/>
      </g>
     </g>
    </g>
    <g id="ytick_4">
     <g id="line2d_19">
      <path d="M 31.75 128.181149 
L 637.2 128.181149 
" clip-path="url(#pbd9930286c)" style="fill: none; stroke: #ffffff; stroke-linecap: round"/>
     </g>
     <g id="line2d_20"/>
     <g id="text_10">
      <!-- 0.6 -->
      <g style="fill: #262626" transform="translate(10.85 131.760056) scale(0.1 -0.1)">
       <defs>
        <path id="ArialMT-36" d="M 3184 3459 
L 2625 3416 
Q 2550 3747 2413 3897 
Q 2184 4138 1850 4138 
Q 1581 4138 1378 3988 
Q 1113 3794 959 3422 
Q 806 3050 800 2363 
Q 1003 2672 1297 2822 
Q 1591 2972 1913 2972 
Q 2475 2972 2870 2558 
Q 3266 2144 3266 1488 
Q 3266 1056 3080 686 
Q 2894 316 2569 119 
Q 2244 -78 1831 -78 
Q 1128 -78 684 439 
Q 241 956 241 2144 
Q 241 3472 731 4075 
Q 1159 4600 1884 4600 
Q 2425 4600 2770 4297 
Q 3116 3994 3184 3459 
z
M 888 1484 
Q 888 1194 1011 928 
Q 1134 663 1356 523 
Q 1578 384 1822 384 
Q 2178 384 2434 671 
Q 2691 959 2691 1453 
Q 2691 1928 2437 2201 
Q 2184 2475 1800 2475 
Q 1419 2475 1153 2201 
Q 888 1928 888 1484 
z
" transform="scale(0.015625)"/>
       </defs>
       <use xlink:href="#ArialMT-30"/>
       <use xlink:href="#ArialMT-2e" x="55.615234"/>
       <use xlink:href="#ArialMT-36" x="83.398438"/>
      </g>
     </g>
    </g>
    <g id="ytick_5">
     <g id="line2d_21">
      <path d="M 31.75 100.749373 
L 637.2 100.749373 
" clip-path="url(#pbd9930286c)" style="fill: none; stroke: #ffffff; stroke-linecap: round"/>
     </g>
     <g id="line2d_22"/>
     <g id="text_11">
      <!-- 0.8 -->
      <g style="fill: #262626" transform="translate(10.85 104.328279) scale(0.1 -0.1)">
       <defs>
        <path id="ArialMT-38" d="M 1131 2484 
Q 781 2613 612 2850 
Q 444 3088 444 3419 
Q 444 3919 803 4259 
Q 1163 4600 1759 4600 
Q 2359 4600 2725 4251 
Q 3091 3903 3091 3403 
Q 3091 3084 2923 2848 
Q 2756 2613 2416 2484 
Q 2838 2347 3058 2040 
Q 3278 1734 3278 1309 
Q 3278 722 2862 322 
Q 2447 -78 1769 -78 
Q 1091 -78 675 323 
Q 259 725 259 1325 
Q 259 1772 486 2073 
Q 713 2375 1131 2484 
z
M 1019 3438 
Q 1019 3113 1228 2906 
Q 1438 2700 1772 2700 
Q 2097 2700 2305 2904 
Q 2513 3109 2513 3406 
Q 2513 3716 2298 3927 
Q 2084 4138 1766 4138 
Q 1444 4138 1231 3931 
Q 1019 3725 1019 3438 
z
M 838 1322 
Q 838 1081 952 856 
Q 1066 631 1291 507 
Q 1516 384 1775 384 
Q 2178 384 2440 643 
Q 2703 903 2703 1303 
Q 2703 1709 2433 1975 
Q 2163 2241 1756 2241 
Q 1359 2241 1098 1978 
Q 838 1716 838 1322 
z
" transform="scale(0.015625)"/>
       </defs>
       <use xlink:href="#ArialMT-30"/>
       <use xlink:href="#ArialMT-2e" x="55.615234"/>
       <use xlink:href="#ArialMT-38" x="83.398438"/>
      </g>
     </g>
    </g>
    <g id="ytick_6">
     <g id="line2d_23">
      <path d="M 31.75 73.317597 
L 637.2 73.317597 
" clip-path="url(#pbd9930286c)" style="fill: none; stroke: #ffffff; stroke-linecap: round"/>
     </g>
     <g id="line2d_24"/>
     <g id="text_12">
      <!-- 1.0 -->
      <g style="fill: #262626" transform="translate(10.85 76.896503) scale(0.1 -0.1)">
       <use xlink:href="#ArialMT-31"/>
       <use xlink:href="#ArialMT-2e" x="55.615234"/>
       <use xlink:href="#ArialMT-30" x="83.398438"/>
      </g>
     </g>
    </g>
    <g id="ytick_7">
     <g id="line2d_25">
      <path d="M 31.75 45.885821 
L 637.2 45.885821 
" clip-path="url(#pbd9930286c)" style="fill: none; stroke: #ffffff; stroke-linecap: round"/>
     </g>
     <g id="line2d_26"/>
     <g id="text_13">
      <!-- 1.2 -->
      <g style="fill: #262626" transform="translate(10.85 49.464727) scale(0.1 -0.1)">
       <use xlink:href="#ArialMT-31"/>
       <use xlink:href="#ArialMT-2e" x="55.615234"/>
       <use xlink:href="#ArialMT-32" x="83.398438"/>
      </g>
     </g>
    </g>
    <g id="ytick_8">
     <g id="line2d_27">
      <path d="M 31.75 18.454044 
L 637.2 18.454044 
" clip-path="url(#pbd9930286c)" style="fill: none; stroke: #ffffff; stroke-linecap: round"/>
     </g>
     <g id="line2d_28"/>
     <g id="text_14">
      <!-- 1.4 -->
      <g style="fill: #262626" transform="translate(10.85 22.032951) scale(0.1 -0.1)">
       <use xlink:href="#ArialMT-31"/>
       <use xlink:href="#ArialMT-2e" x="55.615234"/>
       <use xlink:href="#ArialMT-34" x="83.398438"/>
      </g>
     </g>
    </g>
   </g>
   <g id="line2d_29">
    <path d="M 605.498886 210.476478 
L 605.386699 206.088143 
L 605.050253 201.704301 
L 604.489893 197.329441 
L 603.706192 192.968042 
L 602.699953 188.624571 
L 601.472206 184.303474 
L 600.024209 180.009176 
L 598.357443 175.746074 
L 596.473615 171.518532 
L 594.374655 167.33088 
L 592.062712 163.187406 
L 589.540152 159.092351 
L 586.809559 155.04991 
L 583.873728 151.06422 
L 580.329346 146.653234 
L 576.533614 142.324954 
L 572.49145 138.084989 
L 568.208093 133.938834 
L 563.689093 129.89186 
L 558.940305 125.949313 
L 553.967885 122.116301 
L 548.778275 118.397791 
L 543.3782 114.798603 
L 537.774659 111.3234 
L 531.974912 107.976685 
L 525.986475 104.762796 
L 519.817108 101.685896 
L 513.474807 98.749975 
L 506.234983 95.657804 
L 498.803394 92.749319 
L 491.191928 90.029172 
L 483.412761 87.501716 
L 475.478338 85.170992 
L 467.401354 83.040731 
L 459.194729 81.11434 
L 450.871593 79.3949 
L 442.44526 77.885163 
L 433.92921 76.587544 
L 425.337069 75.504119 
L 416.682581 74.63662 
L 407.979591 73.986437 
L 399.242023 73.554608 
L 390.483855 73.341825 
L 381.719098 73.348429 
L 372.961773 73.574408 
L 364.225891 74.019401 
L 355.525428 74.682696 
L 346.874301 75.563232 
L 338.286351 76.659601 
L 329.775318 77.970048 
L 321.354815 79.492478 
L 313.038316 81.224453 
L 304.839124 83.163205 
L 296.770357 85.30563 
L 288.844922 87.648302 
L 281.075498 90.187473 
L 273.474516 92.919081 
L 266.054134 95.838756 
L 258.826225 98.941826 
L 251.802351 102.223328 
L 245.664608 105.324906 
L 239.709194 108.562745 
L 233.943825 111.932651 
L 228.375973 115.430255 
L 223.012853 119.051026 
L 217.861415 122.790272 
L 212.928334 126.643147 
L 208.220003 130.604658 
L 203.742523 134.669671 
L 199.501697 138.83292 
L 195.503019 143.089009 
L 191.751673 147.432422 
L 188.252518 151.857532 
L 185.357547 155.854914 
L 182.668392 159.908223 
L 180.187803 164.01331 
L 179.892524 164.529878 
L 179.892524 164.529878 
" clip-path="url(#pbd9930286c)" style="fill: none; stroke: #4c72b0; stroke-width: 1.75; stroke-linecap: round"/>
   </g>
   <g id="line2d_30">
    <defs>
     <path id="m956d04e1ca" d="M 0 3.5 
C 0.928211 3.5 1.81853 3.131218 2.474874 2.474874 
C 3.131218 1.81853 3.5 0.928211 3.5 0 
C 3.5 -0.928211 3.131218 -1.81853 2.474874 -2.474874 
C 1.81853 -3.131218 0.928211 -3.5 0 -3.5 
C -0.928211 -3.5 -1.81853 -3.131218 -2.474874 -2.474874 
C -3.131218 -1.81853 -3.5 -0.928211 -3.5 0 
C -3.5 0.928211 -3.131218 1.81853 -2.474874 2.474874 
C -1.81853 3.131218 -0.928211 3.5 0 3.5 
z
"/>
    </defs>
    <g clip-path="url(#pbd9930286c)">
     <use xlink:href="#m956d04e1ca" x="605.498886" y="210.476478" style="fill: #55a868"/>
     <use xlink:href="#m956d04e1ca" x="605.498886" y="155.612926" style="fill: #55a868"/>
     <use xlink:href="#m956d04e1ca" x="570.437494" y="100.749373" style="fill: #55a868"/>
     <use xlink:href="#m956d04e1ca" x="500.314711" y="54.663989" style="fill: #55a868"/>
     <use xlink:href="#m956d04e1ca" x="400.740359" y="26.134942" style="fill: #55a868"/>
     <use xlink:href="#m956d04e1ca" x="282.934084" y="22.535893" style="fill: #55a868"/>
     <use xlink:href="#m956d04e1ca" x="162.827781" y="48.431489" style="fill: #55a868"/>
     <use xlink:href="#m956d04e1ca" x="59.270455" y="104.39758" style="fill: #55a868"/>
    </g>
   </g>
   <g id="line2d_31">
    <defs>
     <path id="m2d4750c714" d="M 0 -3.5 
L -0.785799 -1.081559 
L -3.328698 -1.081559 
L -1.271449 0.413119 
L -2.057248 2.831559 
L -0 1.336881 
L 2.057248 2.831559 
L 1.271449 0.413119 
L 3.328698 -1.081559 
L 0.785799 -1.081559 
z
"/>
    </defs>
    <g clip-path="url(#pbd9930286c)">
     <use xlink:href="#m2d4750c714" x="605.498886" y="210.476478" style="fill: #c44e52"/>
     <use xlink:href="#m2d4750c714" x="588.20069" y="157.064294" style="fill: #c44e52"/>
     <use xlink:href="#m2d4750c714" x="539.037106" y="112.084719" style="fill: #c44e52"/>
     <use xlink:href="#m2d4750c714" x="465.769983" y="82.63904" style="fill: #c44e52"/>
     <use xlink:href="#m2d4750c714" x="379.966589" y="73.376081" style="fill: #c44e52"/>
     <use xlink:href="#m2d4750c714" x="295.173394" y="85.75826" style="fill: #c44e52"/>
     <use xlink:href="#m2d4750c714" x="224.777377" y="117.830704" style="fill: #c44e52"/>
     <use xlink:href="#m2d4750c714" x="179.892524" y="164.529878" style="fill: #c44e52"/>
    </g>
   </g>
   <g id="line2d_32">
    <path d="M 605.498886 210.476478 
L 606.701584 206.277079 
L 607.705467 202.031584 
L 608.507188 197.743551 
L 609.103557 193.416618 
L 609.491544 189.054509 
L 609.668285 184.661024 
L 609.631085 180.240038 
L 609.377426 175.795501 
L 608.904967 171.331432 
L 608.211551 166.851916 
L 607.295211 162.361102 
L 606.15417 157.863202 
L 604.786849 153.362482 
L 603.191868 148.863263 
L 601.36805 144.369915 
L 599.314427 139.886858 
L 597.03024 135.41855 
L 594.514947 130.969492 
L 591.76822 126.544217 
L 588.789952 122.147293 
L 585.580259 117.78331 
L 582.139483 113.456885 
L 578.468193 109.172653 
L 574.567186 104.935263 
L 570.437494 100.749373 
L 566.080381 96.619649 
L 561.497346 92.550758 
L 556.073554 88.051776 
L 550.368864 83.642314 
L 544.386489 79.32898 
L 538.130026 75.118352 
L 531.603456 71.016972 
L 524.811143 67.031333 
L 517.757838 63.167877 
L 510.448675 59.432981 
L 502.88917 55.832951 
L 495.085219 52.374011 
L 487.043098 49.062297 
L 478.76946 45.903848 
L 470.27133 42.904595 
L 461.556103 40.070354 
L 452.631539 37.406817 
L 443.505758 34.919544 
L 434.18724 32.613952 
L 424.684809 30.495311 
L 415.007638 28.56873 
L 405.165236 26.839153 
L 395.167441 25.311349 
L 385.024415 23.989902 
L 374.746635 22.879209 
L 364.344882 21.983462 
L 353.830237 21.306652 
L 343.214066 20.852551 
L 332.508012 20.62471 
L 321.723987 20.626451 
L 310.874156 20.86086 
L 299.970931 21.330778 
L 289.026954 22.038797 
L 278.055088 22.987249 
L 267.068403 24.178207 
L 256.080162 25.613472 
L 245.103811 27.29457 
L 234.15296 29.222748 
L 224.451399 31.144891 
L 214.790615 33.263501 
L 205.180442 35.578874 
L 195.630782 38.091121 
L 186.151598 40.800162 
L 176.752902 43.705727 
L 167.444751 46.807352 
L 158.237231 50.104379 
L 149.140452 53.59595 
L 140.16454 57.281013 
L 131.319621 61.158311 
L 122.615818 65.22639 
L 114.063238 69.483594 
L 105.671962 73.928061 
L 97.452035 78.557729 
L 89.413458 83.37033 
L 82.536284 87.72948 
L 75.81219 92.225016 
L 69.247752 96.855035 
L 62.849495 101.617512 
L 59.270455 104.39758 
L 59.270455 104.39758 
" clip-path="url(#pbd9930286c)" style="fill: none; stroke-dasharray: 6.475,2.8; stroke-dashoffset: 0; stroke: #55a868; stroke-width: 1.75"/>
   </g>
   <g id="line2d_33">
    <path d="M 605.498886 210.476478 
L 605.324312 209.942779 
L 605.146559 209.40993 
L 604.965636 208.877939 
L 604.781549 208.346812 
L 604.594307 207.816557 
L 604.403918 207.28718 
L 604.210389 206.758688 
L 604.01373 206.231089 
L 603.813947 205.70439 
L 603.611049 205.178596 
L 603.405044 204.653715 
L 603.195939 204.129754 
L 602.983745 203.60672 
L 602.768467 203.08462 
L 602.550116 202.563459 
L 602.328699 202.043246 
L 602.104224 201.523986 
L 601.876699 201.005687 
L 601.646134 200.488355 
L 601.412537 199.971996 
L 601.175915 199.456618 
L 600.936279 198.942227 
L 600.693635 198.428829 
L 600.447993 197.916431 
L 600.199361 197.405039 
L 599.947748 196.89466 
L 599.693163 196.385301 
L 599.435614 195.876968 
L 599.17511 195.369666 
L 598.91166 194.863404 
L 598.645272 194.358186 
L 598.375956 193.85402 
L 598.103721 193.350911 
L 597.828574 192.848866 
L 597.550526 192.347891 
L 597.269585 191.847993 
L 596.985759 191.349176 
L 596.699059 190.851449 
L 596.409494 190.354816 
L 596.117071 189.859284 
L 595.821801 189.36486 
L 595.523692 188.871548 
L 595.222755 188.379355 
L 594.918997 187.888287 
L 594.612428 187.39835 
L 594.303058 186.90955 
L 593.990895 186.421894 
L 593.67595 185.935385 
L 593.358231 185.450032 
L 593.037748 184.965839 
L 592.71451 184.482812 
L 592.388527 184.000957 
L 592.059807 183.52028 
L 591.728362 183.040787 
L 591.3942 182.562483 
L 591.057331 182.085373 
L 590.717763 181.609464 
L 590.375508 181.134762 
L 590.030575 180.661271 
L 589.682972 180.188997 
L 589.332711 179.717947 
L 588.9798 179.248124 
L 588.62425 178.779535 
L 588.26607 178.312186 
L 587.90527 177.846081 
L 587.54186 177.381227 
L 587.175849 176.917627 
L 586.807248 176.455289 
L 586.436067 175.994216 
L 586.062314 175.534415 
L 585.686001 175.075891 
L 585.307138 174.618648 
L 584.925733 174.162692 
L 584.541798 173.708028 
L 584.155343 173.254662 
L 583.766377 172.802598 
L 583.37491 172.351841 
L 582.980953 171.902397 
L 582.584516 171.454271 
L 582.185609 171.007467 
L 581.784242 170.56199 
L 581.380425 170.117846 
L 580.974169 169.67504 
L 580.565484 169.233575 
L 580.154379 168.793458 
L 579.740867 168.354692 
L 579.324956 167.917283 
L 578.906657 167.481235 
L 578.485981 167.046554 
L 578.062938 166.613243 
L 577.637537 166.181308 
L 577.209791 165.750754 
L 576.779709 165.321583 
L 576.347301 164.893803 
L 575.912578 164.467416 
L 575.475551 164.042427 
L 575.036231 163.618842 
L 574.594627 163.196664 
L 574.15075 162.775898 
L 573.704611 162.356548 
" clip-path="url(#pbd9930286c)" style="fill: none; stroke-dasharray: 11.2,2.8,1.75,2.8; stroke-dashoffset: 0; stroke: #c44e52; stroke-width: 1.75"/>
   </g>
   <g id="line2d_34">
    <path d="M 588.20069 157.064294 
L 587.707851 156.615276 
L 587.212613 156.167815 
L 586.714988 155.721918 
L 586.214987 155.277587 
L 585.712623 154.834828 
L 585.207906 154.393646 
L 584.700848 153.954044 
L 584.191462 153.516028 
L 583.679759 153.0796 
L 583.16575 152.644767 
L 582.649447 152.211532 
L 582.130862 151.7799 
L 581.610007 151.349875 
L 581.086894 150.921461 
L 580.561534 150.494662 
L 580.03394 150.069482 
L 579.504122 149.645926 
L 578.972094 149.223998 
L 578.437866 148.803702 
L 577.901451 148.385042 
L 577.362861 147.968022 
L 576.822108 147.552646 
L 576.279203 147.138918 
L 575.734158 146.726841 
L 575.186986 146.31642 
L 574.637698 145.907659 
L 574.086307 145.500562 
L 573.532824 145.095131 
L 572.977262 144.691372 
L 572.419633 144.289287 
L 571.859948 143.888881 
L 571.298219 143.490156 
L 570.73446 143.093118 
L 570.168681 142.697769 
L 569.600895 142.304112 
L 569.031115 141.912153 
L 568.459351 141.521893 
L 567.885617 141.133336 
L 567.309925 140.746487 
L 566.732286 140.361348 
L 566.152713 139.977922 
L 565.571218 139.596213 
L 564.987814 139.216225 
L 564.402512 138.83796 
L 563.815325 138.461423 
L 563.226265 138.086615 
L 562.635344 137.71354 
L 562.042574 137.342202 
L 561.447968 136.972604 
L 560.851538 136.604747 
L 560.253297 136.238637 
L 559.653256 135.874275 
L 559.051428 135.511665 
L 558.447825 135.15081 
L 557.84246 134.791712 
L 557.235345 134.434375 
L 556.626492 134.078801 
L 556.015913 133.724993 
L 555.403622 133.372954 
L 554.789629 133.022686 
L 554.173949 132.674193 
L 553.556592 132.327478 
L 552.937572 131.982542 
L 552.3169 131.639388 
L 551.69459 131.298019 
L 551.070653 130.958438 
L 550.445102 130.620647 
L 549.81795 130.284649 
L 549.189209 129.950446 
L 548.55889 129.61804 
L 547.927008 129.287435 
L 547.293574 128.958631 
L 546.6586 128.631633 
L 546.022099 128.306441 
L 545.384084 127.983058 
L 544.744566 127.661487 
L 544.103559 127.34173 
L 543.461075 127.023789 
L 542.817126 126.707666 
L 542.171725 126.393363 
L 541.524884 126.080882 
L 540.876616 125.770225 
L 540.226933 125.461395 
L 539.575847 125.154393 
L 538.923372 124.849222 
L 538.26952 124.545882 
L 537.614302 124.244377 
L 536.957733 123.944708 
L 536.299823 123.646877 
L 535.640586 123.350885 
L 534.980034 123.056734 
L 534.31818 122.764427 
L 533.655036 122.473964 
L 532.990614 122.185348 
L 532.324927 121.89858 
L 531.657988 121.613662 
L 530.98981 121.330595 
L 530.320403 121.049381 
L 529.649782 120.770022 
L 528.977958 120.492518 
" clip-path="url(#pbd9930286c)" style="fill: none; stroke-dasharray: 11.2,2.8,1.75,2.8; stroke-dashoffset: 0; stroke: #c44e52; stroke-width: 1.75"/>
   </g>
   <g id="line2d_35">
    <path d="M 539.037106 112.084719 
L 538.30381 111.791272 
L 537.569274 111.499844 
L 536.833512 111.210437 
L 536.096536 110.923053 
L 535.358361 110.637693 
L 534.619001 110.354358 
L 533.878468 110.073049 
L 533.136776 109.793768 
L 532.393938 109.516516 
L 531.649969 109.241294 
L 530.904882 108.968103 
L 530.158689 108.696945 
L 529.411406 108.42782 
L 528.663045 108.160729 
L 527.91362 107.895674 
L 527.163143 107.632655 
L 526.41163 107.371673 
L 525.659093 107.112729 
L 524.905546 106.855825 
L 524.151002 106.600961 
L 523.395474 106.348137 
L 522.638977 106.097355 
L 521.881523 105.848615 
L 521.123127 105.601918 
L 520.363801 105.357264 
L 519.603559 105.114655 
L 518.842414 104.874091 
L 518.080381 104.635572 
L 517.317471 104.399099 
L 516.5537 104.164672 
L 515.789079 103.932292 
L 515.023623 103.70196 
L 514.257345 103.473676 
L 513.490258 103.247439 
L 512.722376 103.023251 
L 511.953712 102.801112 
L 511.184279 102.581022 
L 510.414091 102.362981 
L 509.643161 102.14699 
L 508.871502 101.933048 
L 508.099129 101.721156 
L 507.326053 101.511314 
L 506.552288 101.303522 
L 505.777849 101.09778 
L 505.002747 100.894089 
L 504.226996 100.692447 
L 503.45061 100.492855 
L 502.673602 100.295313 
L 501.895984 100.099821 
L 501.117771 99.906378 
L 500.338975 99.714985 
L 499.55961 99.525641 
L 498.779689 99.338346 
L 497.999224 99.1531 
L 497.21823 98.969902 
L 496.436719 98.788752 
L 495.654704 98.60965 
L 494.872199 98.432596 
L 494.089217 98.257588 
L 493.30577 98.084626 
L 492.521873 97.91371 
L 491.737537 97.74484 
L 490.952776 97.578014 
L 490.167604 97.413233 
L 489.382032 97.250495 
L 488.596075 97.0898 
L 487.809745 96.931147 
L 487.023055 96.774536 
L 486.236018 96.619965 
L 485.448647 96.467435 
L 484.660956 96.316943 
L 483.872956 96.16849 
L 483.084661 96.022075 
L 482.296084 95.877696 
L 481.507237 95.735352 
L 480.718134 95.595043 
L 479.928788 95.456768 
L 479.139211 95.320525 
L 478.349415 95.186314 
L 477.559415 95.054133 
L 476.769222 94.923982 
L 475.97885 94.795859 
L 475.18831 94.669763 
L 474.397617 94.545693 
L 473.606782 94.423647 
L 472.815819 94.303624 
L 472.02474 94.185624 
L 471.233557 94.069644 
L 470.442283 93.955684 
L 469.650932 93.843741 
L 468.859515 93.733815 
L 468.068045 93.625905 
L 467.276534 93.520007 
L 466.484996 93.416122 
L 465.693443 93.314247 
L 464.901887 93.214382 
L 464.110341 93.116523 
L 463.318817 93.020671 
L 462.527328 92.926822 
L 461.735885 92.834976 
" clip-path="url(#pbd9930286c)" style="fill: none; stroke-dasharray: 11.2,2.8,1.75,2.8; stroke-dashoffset: 0; stroke: #c44e52; stroke-width: 1.75"/>
   </g>
   <g id="line2d_36">
    <path d="M 465.769983 82.63904 
L 464.912002 82.547492 
L 464.054135 82.458107 
L 463.196396 82.370882 
L 462.338798 82.285816 
L 461.481354 82.202907 
L 460.624079 82.122151 
L 459.766984 82.043548 
L 458.910083 81.967095 
L 458.053389 81.89279 
L 457.196916 81.820631 
L 456.340677 81.750615 
L 455.484685 81.68274 
L 454.628952 81.617004 
L 453.773493 81.553404 
L 452.91832 81.491939 
L 452.063446 81.432605 
L 451.208884 81.375401 
L 450.354647 81.320324 
L 449.500749 81.26737 
L 448.647202 81.216539 
L 447.794018 81.167827 
L 446.941211 81.121232 
L 446.088795 81.076751 
L 445.23678 81.034381 
L 444.385181 80.99412 
L 443.53401 80.955966 
L 442.683281 80.919915 
L 441.833004 80.885964 
L 440.983194 80.854111 
L 440.133863 80.824354 
L 439.285024 80.796688 
L 438.436689 80.771112 
L 437.588871 80.747623 
L 436.741582 80.726217 
L 435.894835 80.706892 
L 435.048642 80.689644 
L 434.203017 80.674471 
L 433.35797 80.66137 
L 432.513516 80.650337 
L 431.669665 80.64137 
L 430.826432 80.634465 
L 429.983826 80.629619 
L 429.141863 80.626829 
L 428.300552 80.626092 
L 427.459907 80.627404 
L 426.61994 80.630763 
L 425.780663 80.636165 
L 424.942089 80.643607 
L 424.104228 80.653085 
L 423.267094 80.664596 
L 422.430699 80.678137 
L 421.595054 80.693704 
L 420.760171 80.711294 
L 419.926063 80.730904 
L 419.092742 80.752529 
L 418.260218 80.776166 
L 417.428505 80.801812 
L 416.597614 80.829464 
L 415.767557 80.859117 
L 414.938345 80.890768 
L 414.10999 80.924413 
L 413.282505 80.960049 
L 412.455901 80.997672 
L 411.630189 81.037278 
L 410.80538 81.078864 
L 409.981488 81.122425 
L 409.158523 81.167958 
L 408.336496 81.215459 
L 407.51542 81.264925 
L 406.695305 81.31635 
L 405.876163 81.369733 
L 405.058006 81.425067 
L 404.240844 81.48235 
L 403.42469 81.541578 
L 402.609554 81.602746 
L 401.795447 81.665851 
L 400.982382 81.730889 
L 400.170368 81.797854 
L 399.359418 81.866744 
L 398.549542 81.937554 
L 397.740751 82.010281 
L 396.933057 82.084919 
L 396.12647 82.161465 
L 395.321002 82.239914 
L 394.516663 82.320262 
L 393.713464 82.402506 
L 392.911417 82.48664 
L 392.110531 82.57266 
L 391.310819 82.660563 
L 390.51229 82.750343 
L 389.714955 82.841996 
L 388.918825 82.935518 
L 388.123911 83.030905 
L 387.330223 83.128152 
L 386.537772 83.227254 
L 385.746568 83.328208 
L 384.956622 83.431008 
L 384.167945 83.53565 
L 383.380546 83.642129 
L 382.594437 83.750441 
" clip-path="url(#pbd9930286c)" style="fill: none; stroke-dasharray: 11.2,2.8,1.75,2.8; stroke-dashoffset: 0; stroke: #c44e52; stroke-width: 1.75"/>
   </g>
   <g id="line2d_37">
    <path d="M 379.966589 73.376081 
L 379.119379 73.500886 
L 378.27362 73.627656 
L 377.429322 73.756384 
L 376.586497 73.887066 
L 375.745157 74.019697 
L 374.905311 74.154271 
L 374.06697 74.290783 
L 373.230146 74.429228 
L 372.39485 74.569601 
L 371.561091 74.711897 
L 370.728882 74.85611 
L 369.898231 75.002234 
L 369.069151 75.150266 
L 368.241652 75.300198 
L 367.415744 75.452027 
L 366.591438 75.605746 
L 365.768744 75.761351 
L 364.947673 75.918835 
L 364.128235 76.078193 
L 363.310441 76.23942 
L 362.4943 76.40251 
L 361.679824 76.567458 
L 360.867022 76.734259 
L 360.055904 76.902906 
L 359.246481 77.073394 
L 358.438762 77.245718 
L 357.632758 77.419871 
L 356.828479 77.595849 
L 356.025935 77.773646 
L 355.225136 77.953255 
L 354.42609 78.134672 
L 353.62881 78.31789 
L 352.833303 78.502904 
L 352.039581 78.689708 
L 351.247652 78.878297 
L 350.457526 79.068664 
L 349.669213 79.260803 
L 348.882723 79.45471 
L 348.098064 79.650377 
L 347.315248 79.8478 
L 346.534282 80.046972 
L 345.755176 80.247887 
L 344.97794 80.45054 
L 344.202584 80.654924 
L 343.429115 80.861034 
L 342.657544 81.068863 
L 341.88788 81.278406 
L 341.120131 81.489657 
L 340.354308 81.702609 
L 339.590418 81.917256 
L 338.828471 82.133593 
L 338.068476 82.351614 
L 337.310442 82.571312 
L 336.554378 82.79268 
L 335.800292 83.015714 
L 335.048194 83.240407 
L 334.298091 83.466753 
L 333.549993 83.694745 
L 332.803909 83.924377 
L 332.059846 84.155644 
L 331.317814 84.388538 
L 330.577821 84.623054 
L 329.839875 84.859186 
L 329.103985 85.096927 
L 328.37016 85.33627 
L 327.638406 85.577211 
L 326.908734 85.819741 
L 326.181151 86.063855 
L 325.455665 86.309547 
L 324.732284 86.55681 
L 324.011017 86.805638 
L 323.291871 87.056024 
L 322.574854 87.307963 
L 321.859975 87.561446 
L 321.147242 87.816469 
L 320.436661 88.073025 
L 319.728242 88.331107 
L 319.021991 88.590709 
L 318.317917 88.851824 
L 317.616027 89.114445 
L 316.916329 89.378567 
L 316.21883 89.644183 
L 315.523538 89.911286 
L 314.830461 90.179869 
L 314.139605 90.449926 
L 313.450979 90.721451 
L 312.764589 90.994437 
L 312.080443 91.268876 
L 311.398548 91.544764 
L 310.718912 91.822092 
L 310.041541 92.100855 
L 309.366442 92.381045 
L 308.693624 92.662657 
L 308.023091 92.945682 
L 307.354853 93.230116 
L 306.688915 93.51595 
L 306.025285 93.803178 
L 305.363969 94.091794 
L 304.704974 94.381791 
L 304.048307 94.673161 
" clip-path="url(#pbd9930286c)" style="fill: none; stroke-dasharray: 11.2,2.8,1.75,2.8; stroke-dashoffset: 0; stroke: #c44e52; stroke-width: 1.75"/>
   </g>
   <g id="line2d_38">
    <path d="M 295.173394 85.75826 
L 294.47071 86.079715 
L 293.770585 86.402625 
L 293.073025 86.726982 
L 292.378037 87.052781 
L 291.685628 87.380012 
L 290.995805 87.708669 
L 290.308575 88.038744 
L 289.623944 88.37023 
L 288.941919 88.70312 
L 288.262508 89.037405 
L 287.585715 89.373078 
L 286.911549 89.710133 
L 286.240014 90.048561 
L 285.571119 90.388355 
L 284.904869 90.729507 
L 284.241271 91.07201 
L 283.58033 91.415857 
L 282.922054 91.761039 
L 282.266448 92.107549 
L 281.613518 92.45538 
L 280.963271 92.804525 
L 280.315713 93.154975 
L 279.670849 93.506722 
L 279.028685 93.85976 
L 278.389228 94.214081 
L 277.752482 94.569677 
L 277.118455 94.92654 
L 276.487151 95.284664 
L 275.858577 95.644039 
L 275.232737 96.004659 
L 274.609638 96.366516 
L 273.989285 96.729603 
L 273.371683 97.093911 
L 272.756838 97.459433 
L 272.144755 97.826161 
L 271.53544 98.194088 
L 270.928897 98.563205 
L 270.325132 98.933506 
L 269.724151 99.304982 
L 269.125957 99.677626 
L 268.530556 100.05143 
L 267.937954 100.426386 
L 267.348155 100.802487 
L 266.761163 101.179725 
L 266.176985 101.558092 
L 265.595624 101.93758 
L 265.017085 102.318182 
L 264.441374 102.699889 
L 263.868493 103.082695 
L 263.298449 103.466591 
L 262.731246 103.851569 
L 262.166888 104.237622 
L 261.605379 104.624742 
L 261.046725 105.012922 
L 260.490928 105.402152 
L 259.937995 105.792426 
L 259.387927 106.183736 
L 258.840731 106.576074 
L 258.29641 106.969432 
L 257.754967 107.363802 
L 257.216408 107.759177 
L 256.680735 108.155548 
L 256.147954 108.552909 
L 255.618067 108.95125 
L 255.091079 109.350564 
L 254.566993 109.750844 
L 254.045812 110.152082 
L 253.527542 110.554269 
L 253.012184 110.957398 
L 252.499743 111.361461 
L 251.990223 111.76645 
L 251.483626 112.172357 
L 250.979956 112.579175 
L 250.479216 112.986896 
L 249.98141 113.395511 
L 249.48654 113.805013 
L 248.994611 114.215394 
L 248.505625 114.626646 
L 248.019585 115.038762 
L 247.536494 115.451733 
L 247.056355 115.865551 
L 246.579171 116.280209 
L 246.104945 116.695699 
L 245.63368 117.112013 
L 245.165379 117.529144 
L 244.700044 117.947082 
L 244.237677 118.365821 
L 243.778282 118.785352 
L 243.321862 119.205668 
L 242.868417 119.62676 
L 242.417952 120.048622 
L 241.970469 120.471245 
L 241.525969 120.89462 
L 241.084455 121.318741 
L 240.645929 121.7436 
L 240.210394 122.169188 
L 239.777852 122.595498 
L 239.348305 123.022521 
L 238.921754 123.450251 
L 238.498203 123.878678 
" clip-path="url(#pbd9930286c)" style="fill: none; stroke-dasharray: 11.2,2.8,1.75,2.8; stroke-dashoffset: 0; stroke: #c44e52; stroke-width: 1.75"/>
   </g>
   <g id="line2d_39">
    <path d="M 224.777377 117.830704 
L 224.330159 118.298057 
L 223.886202 118.766127 
L 223.445509 119.234905 
L 223.008081 119.704383 
L 222.573921 120.174553 
L 222.143029 120.645405 
L 221.715407 121.116932 
L 221.291057 121.589124 
L 220.869981 122.061974 
L 220.45218 122.535472 
L 220.037656 123.009611 
L 219.626409 123.484382 
L 219.218441 123.959776 
L 218.813754 124.435785 
L 218.412348 124.912401 
L 218.014225 125.389614 
L 217.619385 125.867417 
L 217.227831 126.345801 
L 216.839563 126.824757 
L 216.454581 127.304277 
L 216.072887 127.784353 
L 215.694482 128.264976 
L 215.319366 128.746138 
L 214.94754 129.22783 
L 214.579005 129.710044 
L 214.213761 130.192772 
L 213.851809 130.676004 
L 213.49315 131.159733 
L 213.137783 131.64395 
L 212.78571 132.128647 
L 212.43693 132.613815 
L 212.091445 133.099446 
L 211.749253 133.585532 
L 211.410356 134.072064 
L 211.074754 134.559033 
L 210.742447 135.046432 
L 210.413434 135.534252 
L 210.087716 136.022485 
L 209.765292 136.511122 
L 209.446163 137.000155 
L 209.130329 137.489576 
L 208.817788 137.979376 
L 208.508542 138.469547 
L 208.202589 138.96008 
L 207.899929 139.450968 
L 207.600563 139.942202 
L 207.304488 140.433774 
L 207.011705 140.925675 
L 206.722214 141.417898 
L 206.436013 141.910433 
L 206.153102 142.403273 
L 205.87348 142.89641 
L 205.597147 143.389835 
L 205.324101 143.883539 
L 205.054343 144.377515 
L 204.787869 144.871755 
L 204.524681 145.36625 
L 204.264776 145.860992 
L 204.008155 146.355973 
L 203.754814 146.851185 
L 203.504754 147.346619 
L 203.257974 147.842267 
L 203.014471 148.338122 
L 202.774244 148.834174 
L 202.537293 149.330417 
L 202.303616 149.826841 
L 202.073211 150.323439 
L 201.846076 150.820202 
L 201.622211 151.317123 
L 201.401613 151.814193 
L 201.184282 152.311405 
L 200.970214 152.808749 
L 200.759409 153.306219 
L 200.551864 153.803806 
L 200.347578 154.301502 
L 200.146548 154.799299 
L 199.948774 155.297189 
L 199.754252 155.795164 
L 199.562981 156.293216 
L 199.374958 156.791338 
L 199.190182 157.28952 
L 199.008651 157.787755 
L 198.830361 158.286036 
L 198.655311 158.784354 
L 198.483498 159.282701 
L 198.31492 159.78107 
L 198.149575 160.279452 
L 197.987459 160.77784 
L 197.828571 161.276226 
L 197.672908 161.774601 
L 197.520467 162.272959 
L 197.371246 162.771291 
L 197.225242 163.269589 
L 197.082452 163.767846 
L 196.942872 164.266054 
L 196.806502 164.764205 
L 196.673337 165.262291 
L 196.543374 165.760305 
L 196.416611 166.258238 
L 196.293044 166.756084 
" clip-path="url(#pbd9930286c)" style="fill: none; stroke-dasharray: 11.2,2.8,1.75,2.8; stroke-dashoffset: 0; stroke: #c44e52; stroke-width: 1.75"/>
   </g>
   <g id="line2d_40">
    <path d="M 179.892524 164.529878 
L 179.771376 165.069345 
L 179.653679 165.608677 
L 179.539429 166.147866 
L 179.428621 166.686904 
L 179.321253 167.225782 
L 179.21732 167.764492 
L 179.116819 168.303026 
L 179.019746 168.841376 
L 178.926097 169.379534 
L 178.835869 169.917491 
L 178.749056 170.455239 
L 178.665656 170.99277 
L 178.585664 171.530076 
L 178.509075 172.067149 
L 178.435887 172.603981 
L 178.366094 173.140563 
L 178.299692 173.676887 
L 178.236678 174.212946 
L 178.177046 174.748732 
L 178.120793 175.284236 
L 178.067913 175.81945 
L 178.018403 176.354367 
L 177.972258 176.888978 
L 177.929473 177.423275 
L 177.890043 177.957252 
L 177.853965 178.490898 
L 177.821232 179.024208 
L 177.791842 179.557172 
L 177.765787 180.089784 
L 177.743065 180.622034 
L 177.72367 181.153916 
L 177.707597 181.685421 
L 177.69484 182.216542 
L 177.685396 182.747271 
L 177.679258 183.277601 
L 177.676423 183.807522 
L 177.676883 184.337029 
L 177.680636 184.866112 
L 177.687674 185.394765 
L 177.697993 185.922979 
L 177.711588 186.450748 
L 177.728453 186.978063 
L 177.748583 187.504917 
L 177.771972 188.031302 
L 177.798614 188.557211 
L 177.828505 189.082636 
L 177.861638 189.607569 
L 177.898009 190.132004 
L 177.93761 190.655932 
L 177.980437 191.179347 
L 178.026484 191.70224 
L 178.075745 192.224604 
L 178.128214 192.746433 
L 178.183885 193.267718 
L 178.242753 193.788452 
L 178.30481 194.308627 
L 178.370053 194.828238 
L 178.438473 195.347275 
L 178.510066 195.865732 
L 178.584824 196.383602 
L 178.662743 196.900877 
L 178.743815 197.417551 
L 178.828034 197.933615 
L 178.915395 198.449063 
L 179.005891 198.963887 
L 179.099514 199.478082 
L 179.19626 199.991638 
L 179.296122 200.50455 
L 179.399092 201.01681 
L 179.505165 201.528411 
L 179.614334 202.039346 
L 179.726592 202.549608 
L 179.841933 203.05919 
L 179.96035 203.568085 
L 180.081836 204.076287 
L 180.206385 204.583788 
L 180.33399 205.090581 
L 180.464643 205.59666 
L 180.598338 206.102017 
L 180.735069 206.606646 
L 180.874828 207.11054 
L 181.017608 207.613692 
L 181.163402 208.116096 
L 181.312203 208.617744 
L 181.464005 209.118631 
L 181.618799 209.618748 
L 181.776579 210.11809 
L 181.937337 210.61665 
L 182.101067 211.114422 
L 182.267761 211.611398 
L 182.437412 212.107572 
L 182.610012 212.602938 
L 182.785554 213.097488 
L 182.964031 213.591217 
L 183.145434 214.084118 
L 183.329758 214.576185 
L 183.516994 215.067411 
L 183.707134 215.557789 
L 183.900171 216.047314 
L 184.096098 216.535978 
" clip-path="url(#pbd9930286c)" style="fill: none; stroke-dasharray: 11.2,2.8,1.75,2.8; stroke-dashoffset: 0; stroke: #c44e52; stroke-width: 1.75"/>
   </g>
   <g id="patch_3">
    <path d="M 31.75 226.33293 
L 31.75 10.8 
" style="fill: none"/>
   </g>
   <g id="patch_4">
    <path d="M 637.2 226.33293 
L 637.2 10.8 
" style="fill: none"/>
   </g>
   <g id="patch_5">
    <path d="M 31.75 226.33293 
L 637.2 226.33293 
" style="fill: none"/>
   </g>
   <g id="patch_6">
    <path d="M 31.75 10.8 
L 637.2 10.8 
" style="fill: none"/>
   </g>
  </g>
 </g>
 <defs>
  <clipPath id="pbd9930286c">
   <rect x="31.75" y="10.8" width="605.45" height="215.53293"/>
  </clipPath>
 </defs>
</svg>
