<?xml version="1.0" encoding="utf-8" standalone="no"?>
<!DOCTYPE svg PUBLIC "-//W3C//DTD SVG 1.1//EN"
  "http://www.w3.org/Graphics/SVG/1.1/DTD/svg11.dtd">
<svg xmlns:xlink="http://www.w3.org/1999/xlink" width="1008pt" height="576pt" viewBox="0 0 504 270" xmlns="http://www.w3.org/2000/svg" version="1.1">
 <metadata>
  <rdf:RDF xmlns:dc="http://purl.org/dc/elements/1.1/" xmlns:cc="http://creativecommons.org/ns#" xmlns:rdf="http://www.w3.org/1999/02/22-rdf-syntax-ns#">
   <cc:Work>
    <dc:type rdf:resource="http://purl.org/dc/dcmitype/StillImage"/>
    <dc:date>2024-03-04T10:53:34.962220</dc:date>
    <dc:format>image/svg+xml</dc:format>
    <dc:creator>
     <cc:Agent>
      <dc:title>Matplotlib v3.8.2, https://matplotlib.org/</dc:title>
     </cc:Agent>
    </dc:creator>
   </cc:Work>
  </rdf:RDF>
 </metadata>
 <defs>
  <style type="text/css">*{stroke-linejoin: round; stroke-linecap: butt}</style>
 </defs>
 <g id="figure_1">
  <g id="patch_1">
   <path d="M 0 288 
L 504 288 
L 504 0 
L 0 0 
z
" style="fill: #ffffff"/>
  </g>
  <g id="axes_1">
   <g id="patch_2">
    <path d="M 47.054 246.256 
L 493.2 246.256 
L 493.2 10.8 
L 47.054 10.8 
z
" style="fill: #eaeaf2"/>
   </g>
   <g id="matplotlib.axis_1">
    <g id="xtick_1">
     <g id="line2d_1">
      <path d="M 65.719006 246.256 
L 65.719006 10.8 
" clip-path="url(#p7d865e28a2)" style="fill: none; stroke: #ffffff; stroke-linecap: round"/>
     </g>
     <g id="line2d_2"/>
     <g id="text_1">
      <!-- 0.4 -->
      <g style="fill: #262626" transform="translate(58.769006 260.413813) scale(0.1 -0.1)">
       <defs>
        <path id="ArialMT-30" d="M 266 2259 
Q 266 3072 433 3567 
Q 600 4063 929 4331 
Q 1259 4600 1759 4600 
Q 2128 4600 2406 4451 
Q 2684 4303 2865 4023 
Q 3047 3744 3150 3342 
Q 3253 2941 3253 2259 
Q 3253 1453 3087 958 
Q 2922 463 2592 192 
Q 2263 -78 1759 -78 
Q 1097 -78 719 397 
Q 266 969 266 2259 
z
M 844 2259 
Q 844 1131 1108 757 
Q 1372 384 1759 384 
Q 2147 384 2411 759 
Q 2675 1134 2675 2259 
Q 2675 3391 2411 3762 
Q 2147 4134 1753 4134 
Q 1366 4134 1134 3806 
Q 844 3388 844 2259 
z
" transform="scale(0.015625)"/>
        <path id="ArialMT-2e" d="M 581 0 
L 581 641 
L 1222 641 
L 1222 0 
L 581 0 
z
" transform="scale(0.015625)"/>
        <path id="ArialMT-34" d="M 2069 0 
L 2069 1097 
L 81 1097 
L 81 1613 
L 2172 4581 
L 2631 4581 
L 2631 1613 
L 3250 1613 
L 3250 1097 
L 2631 1097 
L 2631 0 
L 2069 0 
z
M 2069 1613 
L 2069 3678 
L 634 1613 
L 2069 1613 
z
" transform="scale(0.015625)"/>
       </defs>
       <use xlink:href="#ArialMT-30"/>
       <use xlink:href="#ArialMT-2e" x="55.615234"/>
       <use xlink:href="#ArialMT-34" x="83.398438"/>
      </g>
     </g>
    </g>
    <g id="xtick_2">
     <g id="line2d_3">
      <path d="M 116.61921 246.256 
L 116.61921 10.8 
" clip-path="url(#p7d865e28a2)" style="fill: none; stroke: #ffffff; stroke-linecap: round"/>
     </g>
     <g id="line2d_4"/>
     <g id="text_2">
      <!-- 0.6 -->
      <g style="fill: #262626" transform="translate(109.66921 260.413813) scale(0.1 -0.1)">
       <defs>
        <path id="ArialMT-36" d="M 3184 3459 
L 2625 3416 
Q 2550 3747 2413 3897 
Q 2184 4138 1850 4138 
Q 1581 4138 1378 3988 
Q 1113 3794 959 3422 
Q 806 3050 800 2363 
Q 1003 2672 1297 2822 
Q 1591 2972 1913 2972 
Q 2475 2972 2870 2558 
Q 3266 2144 3266 1488 
Q 3266 1056 3080 686 
Q 2894 316 2569 119 
Q 2244 -78 1831 -78 
Q 1128 -78 684 439 
Q 241 956 241 2144 
Q 241 3472 731 4075 
Q 1159 4600 1884 4600 
Q 2425 4600 2770 4297 
Q 3116 3994 3184 3459 
z
M 888 1484 
Q 888 1194 1011 928 
Q 1134 663 1356 523 
Q 1578 384 1822 384 
Q 2178 384 2434 671 
Q 2691 959 2691 1453 
Q 2691 1928 2437 2201 
Q 2184 2475 1800 2475 
Q 1419 2475 1153 2201 
Q 888 1928 888 1484 
z
" transform="scale(0.015625)"/>
       </defs>
       <use xlink:href="#ArialMT-30"/>
       <use xlink:href="#ArialMT-2e" x="55.615234"/>
       <use xlink:href="#ArialMT-36" x="83.398438"/>
      </g>
     </g>
    </g>
    <g id="xtick_3">
     <g id="line2d_5">
      <path d="M 167.519414 246.256 
L 167.519414 10.8 
" clip-path="url(#p7d865e28a2)" style="fill: none; stroke: #ffffff; stroke-linecap: round"/>
     </g>
     <g id="line2d_6"/>
     <g id="text_3">
      <!-- 0.8 -->
      <g style="fill: #262626" transform="translate(160.569414 260.413813) scale(0.1 -0.1)">
       <defs>
        <path id="ArialMT-38" d="M 1131 2484 
Q 781 2613 612 2850 
Q 444 3088 444 3419 
Q 444 3919 803 4259 
Q 1163 4600 1759 4600 
Q 2359 4600 2725 4251 
Q 3091 3903 3091 3403 
Q 3091 3084 2923 2848 
Q 2756 2613 2416 2484 
Q 2838 2347 3058 2040 
Q 3278 1734 3278 1309 
Q 3278 722 2862 322 
Q 2447 -78 1769 -78 
Q 1091 -78 675 323 
Q 259 725 259 1325 
Q 259 1772 486 2073 
Q 713 2375 1131 2484 
z
M 1019 3438 
Q 1019 3113 1228 2906 
Q 1438 2700 1772 2700 
Q 2097 2700 2305 2904 
Q 2513 3109 2513 3406 
Q 2513 3716 2298 3927 
Q 2084 4138 1766 4138 
Q 1444 4138 1231 3931 
Q 1019 3725 1019 3438 
z
M 838 1322 
Q 838 1081 952 856 
Q 1066 631 1291 507 
Q 1516 384 1775 384 
Q 2178 384 2440 643 
Q 2703 903 2703 1303 
Q 2703 1709 2433 1975 
Q 2163 2241 1756 2241 
Q 1359 2241 1098 1978 
Q 838 1716 838 1322 
z
" transform="scale(0.015625)"/>
       </defs>
       <use xlink:href="#ArialMT-30"/>
       <use xlink:href="#ArialMT-2e" x="55.615234"/>
       <use xlink:href="#ArialMT-38" x="83.398438"/>
      </g>
     </g>
    </g>
    <g id="xtick_4">
     <g id="line2d_7">
      <path d="M 218.419617 246.256 
L 218.419617 10.8 
" clip-path="url(#p7d865e28a2)" style="fill: none; stroke: #ffffff; stroke-linecap: round"/>
     </g>
     <g id="line2d_8"/>
     <g id="text_4">
      <!-- 1.0 -->
      <g style="fill: #262626" transform="translate(211.469617 260.413813) scale(0.1 -0.1)">
       <defs>
        <path id="ArialMT-31" d="M 2384 0 
L 1822 0 
L 1822 3584 
Q 1619 3391 1289 3197 
Q 959 3003 697 2906 
L 697 3450 
Q 1169 3672 1522 3987 
Q 1875 4303 2022 4600 
L 2384 4600 
L 2384 0 
z
" transform="scale(0.015625)"/>
       </defs>
       <use xlink:href="#ArialMT-31"/>
       <use xlink:href="#ArialMT-2e" x="55.615234"/>
       <use xlink:href="#ArialMT-30" x="83.398438"/>
      </g>
     </g>
    </g>
    <g id="xtick_5">
     <g id="line2d_9">
      <path d="M 269.319821 246.256 
L 269.319821 10.8 
" clip-path="url(#p7d865e28a2)" style="fill: none; stroke: #ffffff; stroke-linecap: round"/>
     </g>
     <g id="line2d_10"/>
     <g id="text_5">
      <!-- 1.2 -->
      <g style="fill: #262626" transform="translate(262.369821 260.413813) scale(0.1 -0.1)">
       <defs>
        <path id="ArialMT-32" d="M 3222 541 
L 3222 0 
L 194 0 
Q 188 203 259 391 
Q 375 700 629 1000 
Q 884 1300 1366 1694 
Q 2113 2306 2375 2664 
Q 2638 3022 2638 3341 
Q 2638 3675 2398 3904 
Q 2159 4134 1775 4134 
Q 1369 4134 1125 3890 
Q 881 3647 878 3216 
L 300 3275 
Q 359 3922 746 4261 
Q 1134 4600 1788 4600 
Q 2447 4600 2831 4234 
Q 3216 3869 3216 3328 
Q 3216 3053 3103 2787 
Q 2991 2522 2730 2228 
Q 2469 1934 1863 1422 
Q 1356 997 1212 845 
Q 1069 694 975 541 
L 3222 541 
z
" transform="scale(0.015625)"/>
       </defs>
       <use xlink:href="#ArialMT-31"/>
       <use xlink:href="#ArialMT-2e" x="55.615234"/>
       <use xlink:href="#ArialMT-32" x="83.398438"/>
      </g>
     </g>
    </g>
    <g id="xtick_6">
     <g id="line2d_11">
      <path d="M 320.220025 246.256 
L 320.220025 10.8 
" clip-path="url(#p7d865e28a2)" style="fill: none; stroke: #ffffff; stroke-linecap: round"/>
     </g>
     <g id="line2d_12"/>
     <g id="text_6">
      <!-- 1.4 -->
      <g style="fill: #262626" transform="translate(313.270025 260.413813) scale(0.1 -0.1)">
       <use xlink:href="#ArialMT-31"/>
       <use xlink:href="#ArialMT-2e" x="55.615234"/>
       <use xlink:href="#ArialMT-34" x="83.398438"/>
      </g>
     </g>
    </g>
    <g id="xtick_7">
     <g id="line2d_13">
      <path d="M 371.120229 246.256 
L 371.120229 10.8 
" clip-path="url(#p7d865e28a2)" style="fill: none; stroke: #ffffff; stroke-linecap: round"/>
     </g>
     <g id="line2d_14"/>
     <g id="text_7">
      <!-- 1.6 -->
      <g style="fill: #262626" transform="translate(364.170229 260.413813) scale(0.1 -0.1)">
       <use xlink:href="#ArialMT-31"/>
       <use xlink:href="#ArialMT-2e" x="55.615234"/>
       <use xlink:href="#ArialMT-36" x="83.398438"/>
      </g>
     </g>
    </g>
    <g id="xtick_8">
     <g id="line2d_15">
      <path d="M 422.020433 246.256 
L 422.020433 10.8 
" clip-path="url(#p7d865e28a2)" style="fill: none; stroke: #ffffff; stroke-linecap: round"/>
     </g>
     <g id="line2d_16"/>
     <g id="text_8">
      <!-- 1.8 -->
      <g style="fill: #262626" transform="translate(415.070433 260.413813) scale(0.1 -0.1)">
       <use xlink:href="#ArialMT-31"/>
       <use xlink:href="#ArialMT-2e" x="55.615234"/>
       <use xlink:href="#ArialMT-38" x="83.398438"/>
      </g>
     </g>
    </g>
    <g id="xtick_9">
     <g id="line2d_17">
      <path d="M 472.920636 246.256 
L 472.920636 10.8 
" clip-path="url(#p7d865e28a2)" style="fill: none; stroke: #ffffff; stroke-linecap: round"/>
     </g>
     <g id="line2d_18"/>
     <g id="text_9">
      <!-- 2.0 -->
      <g style="fill: #262626" transform="translate(465.970636 260.413813) scale(0.1 -0.1)">
       <use xlink:href="#ArialMT-32"/>
       <use xlink:href="#ArialMT-2e" x="55.615234"/>
       <use xlink:href="#ArialMT-30" x="83.398438"/>
      </g>
     </g>
    </g>
    <g id="text_10">
     <!-- $u_1$ -->
     <g style="fill: #262626" transform="translate(264.022 274.274906) scale(0.11 -0.11)">
      <defs>
       <path id="DejaVuSans-Oblique-75" d="M 428 1388 
L 838 3500 
L 1416 3500 
L 1006 1409 
Q 975 1256 961 1147 
Q 947 1038 947 966 
Q 947 700 1109 554 
Q 1272 409 1569 409 
Q 2031 409 2368 721 
Q 2706 1034 2809 1563 
L 3194 3500 
L 3769 3500 
L 3091 0 
L 2516 0 
L 2631 550 
Q 2388 244 2052 76 
Q 1716 -91 1338 -91 
Q 878 -91 622 161 
Q 366 413 366 863 
Q 366 956 381 1097 
Q 397 1238 428 1388 
z
" transform="scale(0.015625)"/>
       <path id="DejaVuSans-31" d="M 794 531 
L 1825 531 
L 1825 4091 
L 703 3866 
L 703 4441 
L 1819 4666 
L 2450 4666 
L 2450 531 
L 3481 531 
L 3481 0 
L 794 0 
L 794 531 
z
" transform="scale(0.015625)"/>
      </defs>
      <use xlink:href="#DejaVuSans-Oblique-75" transform="translate(0 0.3125)"/>
      <use xlink:href="#DejaVuSans-31" transform="translate(63.378906 -16.09375) scale(0.7)"/>
     </g>
    </g>
   </g>
   <g id="matplotlib.axis_2">
    <g id="ytick_1">
     <g id="line2d_19">
      <path d="M 47.054 243.844953 
L 493.2 243.844953 
" clip-path="url(#p7d865e28a2)" style="fill: none; stroke: #ffffff; stroke-linecap: round"/>
     </g>
     <g id="line2d_20"/>
     <g id="text_11">
      <!-- 1.0 -->
      <g style="fill: #262626" transform="translate(26.154 247.42386) scale(0.1 -0.1)">
       <use xlink:href="#ArialMT-31"/>
       <use xlink:href="#ArialMT-2e" x="55.615234"/>
       <use xlink:href="#ArialMT-30" x="83.398438"/>
      </g>
     </g>
    </g>
    <g id="ytick_2">
     <g id="line2d_21">
      <path d="M 47.054 195.951738 
L 493.2 195.951738 
" clip-path="url(#p7d865e28a2)" style="fill: none; stroke: #ffffff; stroke-linecap: round"/>
     </g>
     <g id="line2d_22"/>
     <g id="text_12">
      <!-- 1.5 -->
      <g style="fill: #262626" transform="translate(26.154 199.530644) scale(0.1 -0.1)">
       <defs>
        <path id="ArialMT-35" d="M 266 1200 
L 856 1250 
Q 922 819 1161 601 
Q 1400 384 1738 384 
Q 2144 384 2425 690 
Q 2706 997 2706 1503 
Q 2706 1984 2436 2262 
Q 2166 2541 1728 2541 
Q 1456 2541 1237 2417 
Q 1019 2294 894 2097 
L 366 2166 
L 809 4519 
L 3088 4519 
L 3088 3981 
L 1259 3981 
L 1013 2750 
Q 1425 3038 1878 3038 
Q 2478 3038 2890 2622 
Q 3303 2206 3303 1553 
Q 3303 931 2941 478 
Q 2500 -78 1738 -78 
Q 1113 -78 717 272 
Q 322 622 266 1200 
z
" transform="scale(0.015625)"/>
       </defs>
       <use xlink:href="#ArialMT-31"/>
       <use xlink:href="#ArialMT-2e" x="55.615234"/>
       <use xlink:href="#ArialMT-35" x="83.398438"/>
      </g>
     </g>
    </g>
    <g id="ytick_3">
     <g id="line2d_23">
      <path d="M 47.054 148.058522 
L 493.2 148.058522 
" clip-path="url(#p7d865e28a2)" style="fill: none; stroke: #ffffff; stroke-linecap: round"/>
     </g>
     <g id="line2d_24"/>
     <g id="text_13">
      <!-- 2.0 -->
      <g style="fill: #262626" transform="translate(26.154 151.637429) scale(0.1 -0.1)">
       <use xlink:href="#ArialMT-32"/>
       <use xlink:href="#ArialMT-2e" x="55.615234"/>
       <use xlink:href="#ArialMT-30" x="83.398438"/>
      </g>
     </g>
    </g>
    <g id="ytick_4">
     <g id="line2d_25">
      <path d="M 47.054 100.165307 
L 493.2 100.165307 
" clip-path="url(#p7d865e28a2)" style="fill: none; stroke: #ffffff; stroke-linecap: round"/>
     </g>
     <g id="line2d_26"/>
     <g id="text_14">
      <!-- 2.5 -->
      <g style="fill: #262626" transform="translate(26.154 103.744213) scale(0.1 -0.1)">
       <use xlink:href="#ArialMT-32"/>
       <use xlink:href="#ArialMT-2e" x="55.615234"/>
       <use xlink:href="#ArialMT-35" x="83.398438"/>
      </g>
     </g>
    </g>
    <g id="ytick_5">
     <g id="line2d_27">
      <path d="M 47.054 52.272091 
L 493.2 52.272091 
" clip-path="url(#p7d865e28a2)" style="fill: none; stroke: #ffffff; stroke-linecap: round"/>
     </g>
     <g id="line2d_28"/>
     <g id="text_15">
      <!-- 3.0 -->
      <g style="fill: #262626" transform="translate(26.154 55.850998) scale(0.1 -0.1)">
       <defs>
        <path id="ArialMT-33" d="M 269 1209 
L 831 1284 
Q 928 806 1161 595 
Q 1394 384 1728 384 
Q 2125 384 2398 659 
Q 2672 934 2672 1341 
Q 2672 1728 2419 1979 
Q 2166 2231 1775 2231 
Q 1616 2231 1378 2169 
L 1441 2663 
Q 1497 2656 1531 2656 
Q 1891 2656 2178 2843 
Q 2466 3031 2466 3422 
Q 2466 3731 2256 3934 
Q 2047 4138 1716 4138 
Q 1388 4138 1169 3931 
Q 950 3725 888 3313 
L 325 3413 
Q 428 3978 793 4289 
Q 1159 4600 1703 4600 
Q 2078 4600 2393 4439 
Q 2709 4278 2876 4000 
Q 3044 3722 3044 3409 
Q 3044 3113 2884 2869 
Q 2725 2625 2413 2481 
Q 2819 2388 3044 2092 
Q 3269 1797 3269 1353 
Q 3269 753 2831 336 
Q 2394 -81 1725 -81 
Q 1122 -81 723 278 
Q 325 638 269 1209 
z
" transform="scale(0.015625)"/>
       </defs>
       <use xlink:href="#ArialMT-33"/>
       <use xlink:href="#ArialMT-2e" x="55.615234"/>
       <use xlink:href="#ArialMT-30" x="83.398438"/>
      </g>
     </g>
    </g>
    <g id="text_16">
     <!-- $u_2$ -->
     <g style="fill: #262626" transform="translate(19.96775 134.633) rotate(-90) scale(0.11 -0.11)">
      <defs>
       <path id="DejaVuSans-32" d="M 1228 531 
L 3431 531 
L 3431 0 
L 469 0 
L 469 531 
Q 828 903 1448 1529 
Q 2069 2156 2228 2338 
Q 2531 2678 2651 2914 
Q 2772 3150 2772 3378 
Q 2772 3750 2511 3984 
Q 2250 4219 1831 4219 
Q 1534 4219 1204 4116 
Q 875 4013 500 3803 
L 500 4441 
Q 881 4594 1212 4672 
Q 1544 4750 1819 4750 
Q 2544 4750 2975 4387 
Q 3406 4025 3406 3419 
Q 3406 3131 3298 2873 
Q 3191 2616 2906 2266 
Q 2828 2175 2409 1742 
Q 1991 1309 1228 531 
z
" transform="scale(0.015625)"/>
      </defs>
      <use xlink:href="#DejaVuSans-Oblique-75" transform="translate(0 0.3125)"/>
      <use xlink:href="#DejaVuSans-32" transform="translate(63.378906 -16.09375) scale(0.7)"/>
     </g>
    </g>
   </g>
   <g id="line2d_29">
    <path d="M 472.920636 148.058522 
L 472.775926 144.810256 
L 472.338906 141.510716 
L 471.605891 138.163079 
L 470.574062 134.770818 
L 469.241466 131.33771 
L 467.607028 127.867812 
L 465.67065 124.365464 
L 463.433227 120.835396 
L 460.896664 117.282576 
L 458.063878 113.712202 
L 454.938797 110.129696 
L 451.526365 106.540707 
L 447.832535 102.95111 
L 443.864276 99.367007 
L 439.629566 95.794726 
L 433.974786 91.355716 
L 427.936565 86.957834 
L 421.537129 82.614364 
L 414.799891 78.338367 
L 407.749415 74.14267 
L 400.411416 70.039855 
L 392.81276 66.042268 
L 384.981464 62.162014 
L 376.946695 58.410961 
L 368.738343 54.800612 
L 360.384247 51.341113 
L 351.914442 48.042272 
L 343.358432 44.913105 
L 334.744432 41.961658 
L 324.368915 38.664403 
L 313.992698 35.643573 
L 303.657205 32.907528 
L 293.401194 30.46261 
L 283.260756 28.313148 
L 273.269314 26.461452 
L 263.457211 24.908252 
L 253.849452 23.652127 
L 244.467293 22.689034 
L 235.329273 22.013919 
L 226.451218 21.620756 
L 217.84624 21.502545 
L 209.52474 21.651312 
L 201.494405 22.058107 
L 193.760207 22.713006 
L 186.324408 23.605114 
L 179.186555 24.722557 
L 172.343566 26.052535 
L 165.794194 27.58381 
L 159.534902 29.304815 
L 153.559637 31.203199 
L 147.862032 33.266911 
L 142.43541 35.484203 
L 137.272785 37.843629 
L 132.366855 40.334048 
L 127.710012 42.944621 
L 123.294332 45.664808 
L 119.111583 48.484377 
L 115.15322 51.393395 
L 110.806897 54.887474 
L 106.740364 58.475636 
L 102.941803 62.144687 
L 99.398489 65.882194 
L 96.098229 69.676398 
L 93.029416 73.516221 
L 89.791495 77.94715 
L 86.825986 82.409683 
L 84.118374 86.89056 
L 81.65515 91.377679 
L 79.160601 96.419578 
L 76.943247 101.441756 
L 74.988389 106.432266 
L 73.282931 111.38102 
L 71.814133 116.278337 
L 70.4449 121.647844 
L 69.339457 126.932034 
L 68.485905 132.122053 
L 67.873716 137.210107 
L 67.493726 142.189465 
L 67.338142 147.054455 
L 67.400535 151.800464 
L 67.675848 156.423943 
L 68.160387 160.922401 
L 68.851569 165.294073 
L 69.746976 169.536514 
L 70.845898 173.648494 
L 72.148472 177.629156 
L 73.655545 181.477848 
L 75.368667 185.194122 
L 77.2901 188.777737 
L 79.199933 191.889531 
L 81.283544 194.893954 
L 83.54405 197.791254 
L 85.985031 200.581816 
L 88.610533 203.266157 
L 91.424957 205.844875 
L 94.432098 208.317955 
L 97.637476 210.685743 
L 101.047167 212.948663 
L 104.667304 215.107004 
L 108.944025 217.382688 
L 113.496768 219.529458 
L 118.33419 221.54712 
L 123.465033 223.435267 
L 128.898126 225.19329 
L 134.642383 226.820368 
L 140.706806 228.315473 
L 147.100482 229.677371 
L 154.52476 231.019876 
L 162.370863 232.197238 
L 170.641481 233.205593 
L 179.335195 234.039592 
L 188.473924 234.696237 
L 198.073606 235.171329 
L 208.143257 235.459348 
L 218.684969 235.553455 
L 229.693909 235.445488 
L 241.158317 235.125967 
L 253.059512 234.584087 
L 265.371887 233.807727 
L 278.06291 232.783441 
L 291.093127 231.496464 
L 303.194224 230.085019 
L 315.497585 228.430164 
L 327.958669 226.517961 
L 339.267872 224.564703 
L 350.620383 222.379777 
L 360.697534 220.233777 
L 370.716389 217.886791 
L 380.62941 215.329967 
L 389.175774 212.913609 
L 397.563875 210.323766 
L 404.597373 207.961243 
L 404.597373 207.961243 
" clip-path="url(#p7d865e28a2)" style="fill: none; stroke: #4c72b0; stroke-width: 1.75; stroke-linecap: round"/>
   </g>
   <g id="line2d_30">
    <path d="M 472.920636 148.058522 
L 471.006593 144.597893 
L 468.801697 141.135894 
L 466.314873 137.678394 
L 463.555797 134.231254 
L 460.534888 130.800319 
L 457.263228 127.391403 
L 453.752276 124.010189 
L 449.046129 119.831304 
L 444.010463 115.715347 
L 438.670382 111.672549 
L 433.05124 107.712627 
L 427.178637 103.844784 
L 421.078425 100.077709 
L 414.776664 96.419574 
L 406.983592 92.184033 
L 398.978914 88.127435 
L 390.803974 84.259809 
L 382.497856 80.589789 
L 374.097379 77.124618 
L 365.637101 73.870145 
L 357.14932 70.830824 
L 348.664068 68.00972 
L 340.209138 65.408608 
L 331.809721 63.028471 
L 322.110032 60.529943 
L 312.547629 58.328659 
L 303.150438 56.420823 
L 293.942684 54.80139 
L 284.94489 53.464061 
L 276.173881 52.401286 
L 267.642778 51.60426 
L 259.361279 51.063067 
L 251.338523 50.768216 
L 243.579796 50.709114 
L 236.088344 50.874795 
L 228.866191 51.254301 
L 221.914132 51.836686 
L 215.231739 52.611011 
L 208.817356 53.566346 
L 202.6681 54.691772 
L 196.779865 55.976379 
L 191.147315 57.409265 
L 185.765497 58.980038 
L 179.915497 60.931399 
L 174.377076 63.035284 
L 169.140794 65.277603 
L 164.197288 67.64489 
L 159.537269 70.124304 
L 155.151522 72.703625 
L 151.030912 75.371261 
L 147.166373 78.11624 
L 143.113667 81.283934 
L 139.360998 84.522652 
L 135.895982 87.819504 
L 132.707331 91.162213 
L 129.784025 94.539622 
L 127.115597 97.941278 
L 124.692194 101.357393 
L 122.275682 105.158955 
L 120.138496 108.955549 
L 118.269787 112.736622 
L 116.659644 116.492623 
L 115.299092 120.215015 
L 114.180093 123.896263 
L 113.295543 127.529845 
L 112.639107 131.110049 
L 112.204031 134.630341 
L 111.985068 138.085322 
L 111.977726 141.470252 
L 112.177984 144.780754 
L 112.582286 148.012819 
L 113.187545 151.162802 
L 113.99114 154.227421 
L 114.990917 157.203761 
L 116.185191 160.089271 
L 117.572744 162.881767 
L 119.152815 165.579425 
L 120.923824 168.180221 
L 122.885262 170.682094 
L 125.037581 173.083292 
L 127.380982 175.382106 
L 129.915415 177.576868 
L 132.640579 179.665954 
L 135.85789 181.840006 
L 139.304228 183.882228 
L 142.978144 185.790637 
L 146.877817 187.563308 
L 151.001063 189.198381 
L 155.345329 190.694056 
L 160.33307 192.164682 
L 165.571639 193.464972 
L 171.053543 194.591454 
L 176.77081 195.540468 
L 182.712087 196.308471 
L 188.862637 196.892026 
L 195.740799 197.312218 
L 202.815732 197.507969 
L 210.055267 197.475358 
L 217.422574 197.210616 
L 224.876167 196.710133 
L 232.369899 195.970448 
L 239.278961 195.072493 
L 246.138835 193.966446 
L 252.903186 192.65185 
L 259.515627 191.127819 
L 265.396528 189.547583 
L 271.062194 187.794255 
L 275.992133 186.052986 
L 280.681431 184.175028 
L 285.101325 182.16482 
L 288.825699 180.246958 
L 292.289192 178.230813 
L 295.472335 176.121502 
L 298.356132 173.924734 
L 300.65322 171.903713 
L 302.203563 170.348749 
L 302.203563 170.348749 
" clip-path="url(#p7d865e28a2)" style="fill: none; stroke-dasharray: 6.475,2.8; stroke-dashoffset: 0; stroke: #55a868; stroke-width: 1.75"/>
   </g>
   <g id="line2d_31">
    <defs>
     <path id="m025e0b0541" d="M 0 3.5 
C 0.928211 3.5 1.81853 3.131218 2.474874 2.474874 
C 3.131218 1.81853 3.5 0.928211 3.5 0 
C 3.5 -0.928211 3.131218 -1.81853 2.474874 -2.474874 
C 1.81853 -3.131218 0.928211 -3.5 0 -3.5 
C -0.928211 -3.5 -1.81853 -3.131218 -2.474874 -2.474874 
C -3.131218 -1.81853 -3.5 -0.928211 -3.5 0 
C -3.5 0.928211 -3.131218 1.81853 -2.474874 2.474874 
C -1.81853 3.131218 -0.928211 3.5 0 3.5 
z
"/>
    </defs>
    <g clip-path="url(#p7d865e28a2)">
     <use xlink:href="#m025e0b0541" x="472.920636" y="148.058522" style="fill: #55a868"/>
     <use xlink:href="#m025e0b0541" x="451.919891" y="106.933193" style="fill: #55a868"/>
     <use xlink:href="#m025e0b0541" x="392.642809" y="65.943589" style="fill: #55a868"/>
     <use xlink:href="#m025e0b0541" x="312.806123" y="35.299086" style="fill: #55a868"/>
     <use xlink:href="#m025e0b0541" x="234.9055" y="21.963114" style="fill: #55a868"/>
     <use xlink:href="#m025e0b0541" x="172.487454" y="25.993648" style="fill: #55a868"/>
     <use xlink:href="#m025e0b0541" x="128.129144" y="42.676454" style="fill: #55a868"/>
     <use xlink:href="#m025e0b0541" x="98.898846" y="66.412908" style="fill: #55a868"/>
     <use xlink:href="#m025e0b0541" x="80.904918" y="92.813418" style="fill: #55a868"/>
     <use xlink:href="#m025e0b0541" x="71.076137" y="119.050251" style="fill: #55a868"/>
     <use xlink:href="#m025e0b0541" x="67.429193" y="143.51986" style="fill: #55a868"/>
     <use xlink:href="#m025e0b0541" x="68.874979" y="165.41751" style="fill: #55a868"/>
     <use xlink:href="#m025e0b0541" x="74.985654" y="184.408337" style="fill: #55a868"/>
     <use xlink:href="#m025e0b0541" x="85.825128" y="200.407316" style="fill: #55a868"/>
     <use xlink:href="#m025e0b0541" x="101.838644" y="213.437776" style="fill: #55a868"/>
     <use xlink:href="#m025e0b0541" x="123.768907" y="223.537146" style="fill: #55a868"/>
     <use xlink:href="#m025e0b0541" x="152.554867" y="230.685666" style="fill: #55a868"/>
     <use xlink:href="#m025e0b0541" x="189.152416" y="234.73946" style="fill: #55a868"/>
     <use xlink:href="#m025e0b0541" x="234.186347" y="235.352662" style="fill: #55a868"/>
     <use xlink:href="#m025e0b0541" x="287.304045" y="231.877935" style="fill: #55a868"/>
     <use xlink:href="#m025e0b0541" x="346.089851" y="223.252358" style="fill: #55a868"/>
     <use xlink:href="#m025e0b0541" x="404.545366" y="207.937982" style="fill: #55a868"/>
    </g>
   </g>
   <g id="line2d_32">
    <path d="M 472.920636 148.058522 
L 471.711604 144.657508 
L 470.198511 141.232266 
L 468.385081 137.787981 
L 466.276049 134.330011 
L 463.877164 130.863881 
L 461.195104 127.395251 
L 458.237382 123.929849 
L 455.012832 120.473656 
L 451.530937 117.032631 
L 447.801753 113.612684 
L 442.808774 109.376313 
L 437.468081 105.19336 
L 431.803099 101.075038 
L 425.838652 97.032433 
L 419.60003 93.076231 
L 413.112855 89.216507 
L 406.403972 85.463052 
L 399.499714 81.82497 
L 390.992986 77.623348 
L 382.285576 73.613136 
L 373.419912 69.806095 
L 364.437307 66.212547 
L 355.377939 62.841375 
L 346.279063 59.700017 
L 337.175198 56.793781 
L 328.098821 54.126482 
L 319.079771 51.700725 
L 310.145245 49.517908 
L 301.319802 47.578222 
L 292.625359 45.880647 
L 284.081193 44.422958 
L 275.703941 43.201719 
L 267.507599 42.212288 
L 259.503845 41.449035 
L 251.703788 40.906763 
L 244.114998 40.57876 
L 236.7434 40.457818 
L 229.59374 40.536537 
L 222.669579 40.80732 
L 215.9733 41.262375 
L 209.506103 41.893716 
L 202.250537 42.842159 
L 195.304755 44.006071 
L 188.664571 45.371763 
L 182.324583 46.92557 
L 176.2806 48.65498 
L 170.525461 50.547004 
L 165.051644 52.589 
L 159.85154 54.768779 
L 154.917454 57.074599 
L 150.241602 59.495173 
L 145.816112 62.019659 
L 141.633027 64.637669 
L 137.138855 67.73147 
L 132.93863 70.920342 
L 129.020053 74.190938 
L 125.371313 77.530631 
L 121.981878 80.927713 
L 118.840835 84.37139 
L 115.937782 87.85147 
L 112.944083 91.798146 
L 110.225963 95.765997 
L 107.771124 99.743209 
L 105.568155 103.718917 
L 103.606532 107.683209 
L 101.698316 112.063725 
L 100.064238 116.408196 
L 98.693708 120.70716 
L 97.577487 124.952606 
L 96.707685 129.137971 
L 96.076051 133.25609 
L 95.674655 137.299467 
L 95.497828 141.262713 
L 95.540611 145.140918 
L 95.798758 148.92966 
L 96.268732 152.624994 
L 96.947709 156.223458 
L 97.833576 159.722075 
L 98.924929 163.118346 
L 100.221078 166.410257 
L 101.721884 169.596195 
L 103.426732 172.67414 
L 105.336845 175.642537 
L 107.453953 178.500034 
L 109.779864 181.245315 
L 112.316466 183.877103 
L 115.065727 186.394157 
L 118.029693 188.795273 
L 121.210491 191.079284 
L 124.610326 193.245062 
L 128.231484 195.291513 
L 132.07633 197.217583 
L 136.147307 199.022253 
L 140.889579 200.866003 
L 145.908275 202.55994 
L 151.203654 204.101603 
L 156.780191 205.488607 
L 162.639734 206.718285 
L 168.78147 207.787684 
L 175.201924 208.693565 
L 182.516655 209.491156 
L 190.14416 210.084981 
L 198.069096 210.469671 
L 206.272353 210.639452 
L 214.731051 210.588145 
L 223.418546 210.309164 
L 232.304421 209.795523 
L 241.355501 209.04106 
L 250.527025 208.039026 
L 258.988891 206.893851 
L 267.452122 205.524557 
L 275.864397 203.925306 
L 283.421317 202.26801 
L 290.847037 200.414311 
L 298.096088 198.362515 
L 304.430027 196.345812 
L 310.546554 194.167934 
L 316.40846 191.829419 
L 321.374201 189.616758 
L 326.080484 187.279176 
L 330.498626 184.818166 
L 334.104976 182.564972 
L 337.447901 180.220136 
L 338.794824 179.187556 
L 338.794824 179.187556 
" clip-path="url(#p7d865e28a2)" style="fill: none; stroke-dasharray: 11.2,2.8,1.75,2.8; stroke-dashoffset: 0; stroke: #c44e52; stroke-width: 1.75"/>
   </g>
   <g id="line2d_33">
    <defs>
     <path id="m897878f76d" d="M 0 -5 
L -1.12257 -1.545085 
L -4.755283 -1.545085 
L -1.816356 0.59017 
L -2.938926 4.045085 
L -0 1.90983 
L 2.938926 4.045085 
L 1.816356 0.59017 
L 4.755283 -1.545085 
L 1.12257 -1.545085 
z
"/>
    </defs>
    <g clip-path="url(#p7d865e28a2)">
     <use xlink:href="#m897878f76d" x="472.920636" y="148.058522" style="fill: #c44e52"/>
     <use xlink:href="#m897878f76d" x="465.385214" y="123.888336" style="fill: #c44e52"/>
     <use xlink:href="#m897878f76d" x="442.742935" y="98.396713" style="fill: #c44e52"/>
     <use xlink:href="#m897878f76d" x="406.846159" y="73.622345" style="fill: #c44e52"/>
     <use xlink:href="#m897878f76d" x="361.783548" y="51.904218" style="fill: #c44e52"/>
     <use xlink:href="#m897878f76d" x="312.764948" y="35.302679" style="fill: #c44e52"/>
     <use xlink:href="#m897878f76d" x="264.665166" y="25.082776" style="fill: #c44e52"/>
     <use xlink:href="#m897878f76d" x="220.973367" y="21.512934" style="fill: #c44e52"/>
     <use xlink:href="#m897878f76d" x="183.503049" y="24.013348" style="fill: #c44e52"/>
     <use xlink:href="#m897878f76d" x="152.695624" y="31.493444" style="fill: #c44e52"/>
     <use xlink:href="#m897878f76d" x="128.141945" y="42.689288" style="fill: #c44e52"/>
     <use xlink:href="#m897878f76d" x="109.045081" y="56.398162" style="fill: #c44e52"/>
     <use xlink:href="#m897878f76d" x="94.524856" y="71.597669" style="fill: #c44e52"/>
     <use xlink:href="#m897878f76d" x="83.777022" y="87.480657" style="fill: #c44e52"/>
     <use xlink:href="#m897878f76d" x="76.135799" y="103.443113" style="fill: #c44e52"/>
     <use xlink:href="#m897878f76d" x="71.084152" y="119.052231" style="fill: #c44e52"/>
     <use xlink:href="#m897878f76d" x="68.240947" y="134.010262" style="fill: #c44e52"/>
     <use xlink:href="#m897878f76d" x="67.340956" y="148.121419" style="fill: #c44e52"/>
     <use xlink:href="#m897878f76d" x="68.215126" y="161.264369" style="fill: #c44e52"/>
     <use xlink:href="#m897878f76d" x="70.773926" y="173.370484" style="fill: #c44e52"/>
     <use xlink:href="#m897878f76d" x="74.994311" y="184.407091" style="fill: #c44e52"/>
     <use xlink:href="#m897878f76d" x="80.909839" y="194.364698" style="fill: #c44e52"/>
     <use xlink:href="#m897878f76d" x="88.603102" y="203.247222" style="fill: #c44e52"/>
     <use xlink:href="#m897878f76d" x="98.199456" y="211.064354" style="fill: #c44e52"/>
     <use xlink:href="#m897878f76d" x="109.860914" y="217.825359" style="fill: #c44e52"/>
     <use xlink:href="#m897878f76d" x="123.778878" y="223.533724" style="fill: #c44e52"/>
     <use xlink:href="#m897878f76d" x="140.164088" y="228.182139" style="fill: #c44e52"/>
     <use xlink:href="#m897878f76d" x="159.231705" y="231.747368" style="fill: #c44e52"/>
     <use xlink:href="#m897878f76d" x="181.178853" y="234.184581" style="fill: #c44e52"/>
     <use xlink:href="#m897878f76d" x="206.15118" y="235.420788" style="fill: #c44e52"/>
     <use xlink:href="#m897878f76d" x="234.194273" y="235.347102" style="fill: #c44e52"/>
     <use xlink:href="#m897878f76d" x="265.185371" y="233.809819" style="fill: #c44e52"/>
     <use xlink:href="#m897878f76d" x="298.741492" y="230.600961" style="fill: #c44e52"/>
     <use xlink:href="#m897878f76d" x="334.103428" y="225.450221" style="fill: #c44e52"/>
     <use xlink:href="#m897878f76d" x="370.003466" y="218.022775" style="fill: #c44e52"/>
     <use xlink:href="#m897878f76d" x="404.541892" y="207.931742" style="fill: #c44e52"/>
    </g>
   </g>
   <g id="patch_3">
    <path d="M 47.054 246.256 
L 47.054 10.8 
" style="fill: none"/>
   </g>
   <g id="patch_4">
    <path d="M 493.2 246.256 
L 493.2 10.8 
" style="fill: none"/>
   </g>
   <g id="patch_5">
    <path d="M 47.054 246.256 
L 493.2 246.256 
" style="fill: none"/>
   </g>
   <g id="patch_6">
    <path d="M 47.054 10.8 
L 493.2 10.8 
" style="fill: none"/>
   </g>
   <g id="legend_1">
    <g id="line2d_34">
     <path d="M 414.220312 23.457812 
L 424.220312 23.457812 
L 434.220312 23.457812 
" style="fill: none; stroke: #4c72b0; stroke-width: 1.75; stroke-linecap: round"/>
    </g>
    <g id="text_17">
     <!-- exact -->
     <g style="fill: #262626" transform="translate(442.220312 26.957812) scale(0.1 -0.1)">
      <defs>
       <path id="ArialMT-65" d="M 2694 1069 
L 3275 997 
Q 3138 488 2766 206 
Q 2394 -75 1816 -75 
Q 1088 -75 661 373 
Q 234 822 234 1631 
Q 234 2469 665 2931 
Q 1097 3394 1784 3394 
Q 2450 3394 2872 2941 
Q 3294 2488 3294 1666 
Q 3294 1616 3291 1516 
L 816 1516 
Q 847 969 1125 678 
Q 1403 388 1819 388 
Q 2128 388 2347 550 
Q 2566 713 2694 1069 
z
M 847 1978 
L 2700 1978 
Q 2663 2397 2488 2606 
Q 2219 2931 1791 2931 
Q 1403 2931 1139 2672 
Q 875 2413 847 1978 
z
" transform="scale(0.015625)"/>
       <path id="ArialMT-78" d="M 47 0 
L 1259 1725 
L 138 3319 
L 841 3319 
L 1350 2541 
Q 1494 2319 1581 2169 
Q 1719 2375 1834 2534 
L 2394 3319 
L 3066 3319 
L 1919 1756 
L 3153 0 
L 2463 0 
L 1781 1031 
L 1600 1309 
L 728 0 
L 47 0 
z
" transform="scale(0.015625)"/>
       <path id="ArialMT-61" d="M 2588 409 
Q 2275 144 1986 34 
Q 1697 -75 1366 -75 
Q 819 -75 525 192 
Q 231 459 231 875 
Q 231 1119 342 1320 
Q 453 1522 633 1644 
Q 813 1766 1038 1828 
Q 1203 1872 1538 1913 
Q 2219 1994 2541 2106 
Q 2544 2222 2544 2253 
Q 2544 2597 2384 2738 
Q 2169 2928 1744 2928 
Q 1347 2928 1158 2789 
Q 969 2650 878 2297 
L 328 2372 
Q 403 2725 575 2942 
Q 747 3159 1072 3276 
Q 1397 3394 1825 3394 
Q 2250 3394 2515 3294 
Q 2781 3194 2906 3042 
Q 3031 2891 3081 2659 
Q 3109 2516 3109 2141 
L 3109 1391 
Q 3109 606 3145 398 
Q 3181 191 3288 0 
L 2700 0 
Q 2613 175 2588 409 
z
M 2541 1666 
Q 2234 1541 1622 1453 
Q 1275 1403 1131 1340 
Q 988 1278 909 1158 
Q 831 1038 831 891 
Q 831 666 1001 516 
Q 1172 366 1500 366 
Q 1825 366 2078 508 
Q 2331 650 2450 897 
Q 2541 1088 2541 1459 
L 2541 1666 
z
" transform="scale(0.015625)"/>
       <path id="ArialMT-63" d="M 2588 1216 
L 3141 1144 
Q 3050 572 2676 248 
Q 2303 -75 1759 -75 
Q 1078 -75 664 370 
Q 250 816 250 1647 
Q 250 2184 428 2587 
Q 606 2991 970 3192 
Q 1334 3394 1763 3394 
Q 2303 3394 2647 3120 
Q 2991 2847 3088 2344 
L 2541 2259 
Q 2463 2594 2264 2762 
Q 2066 2931 1784 2931 
Q 1359 2931 1093 2626 
Q 828 2322 828 1663 
Q 828 994 1084 691 
Q 1341 388 1753 388 
Q 2084 388 2306 591 
Q 2528 794 2588 1216 
z
" transform="scale(0.015625)"/>
       <path id="ArialMT-74" d="M 1650 503 
L 1731 6 
Q 1494 -44 1306 -44 
Q 1000 -44 831 53 
Q 663 150 594 308 
Q 525 466 525 972 
L 525 2881 
L 113 2881 
L 113 3319 
L 525 3319 
L 525 4141 
L 1084 4478 
L 1084 3319 
L 1650 3319 
L 1650 2881 
L 1084 2881 
L 1084 941 
Q 1084 700 1114 631 
Q 1144 563 1211 522 
Q 1278 481 1403 481 
Q 1497 481 1650 503 
z
" transform="scale(0.015625)"/>
      </defs>
      <use xlink:href="#ArialMT-65"/>
      <use xlink:href="#ArialMT-78" x="55.615234"/>
      <use xlink:href="#ArialMT-61" x="105.615234"/>
      <use xlink:href="#ArialMT-63" x="161.230469"/>
      <use xlink:href="#ArialMT-74" x="211.230469"/>
     </g>
    </g>
    <g id="line2d_35">
     <path d="M 414.220312 37.603125 
L 424.220312 37.603125 
L 434.220312 37.603125 
" style="fill: none; stroke-dasharray: 6.475,2.8; stroke-dashoffset: 0; stroke: #55a868; stroke-width: 1.75"/>
     <g>
      <use xlink:href="#m025e0b0541" x="424.220312" y="37.603125" style="fill: #55a868"/>
     </g>
    </g>
    <g id="text_18">
     <!-- h = 0.2$ -->
     <g style="fill: #262626" transform="translate(442.220312 41.103125) scale(0.1 -0.1)">
      <defs>
       <path id="ArialMT-68" d="M 422 0 
L 422 4581 
L 984 4581 
L 984 2938 
Q 1378 3394 1978 3394 
Q 2347 3394 2619 3248 
Q 2891 3103 3008 2847 
Q 3125 2591 3125 2103 
L 3125 0 
L 2563 0 
L 2563 2103 
Q 2563 2525 2380 2717 
Q 2197 2909 1863 2909 
Q 1613 2909 1392 2779 
Q 1172 2650 1078 2428 
Q 984 2206 984 1816 
L 984 0 
L 422 0 
z
" transform="scale(0.015625)"/>
       <path id="ArialMT-20" transform="scale(0.015625)"/>
       <path id="ArialMT-3d" d="M 3381 2694 
L 356 2694 
L 356 3219 
L 3381 3219 
L 3381 2694 
z
M 3381 1303 
L 356 1303 
L 356 1828 
L 3381 1828 
L 3381 1303 
z
" transform="scale(0.015625)"/>
       <path id="ArialMT-24" d="M 1594 -659 
L 1594 -97 
Q 1172 -44 908 92 
Q 644 228 451 531 
Q 259 834 228 1272 
L 794 1378 
Q 859 925 1025 713 
Q 1263 413 1594 378 
L 1594 2169 
Q 1247 2234 884 2438 
Q 616 2588 470 2853 
Q 325 3119 325 3456 
Q 325 4056 750 4428 
Q 1034 4678 1594 4734 
L 1594 5003 
L 1925 5003 
L 1925 4734 
Q 2416 4688 2703 4447 
Q 3072 4141 3147 3606 
L 2566 3519 
Q 2516 3850 2358 4026 
Q 2200 4203 1925 4259 
L 1925 2638 
Q 2350 2531 2488 2472 
Q 2750 2356 2915 2190 
Q 3081 2025 3170 1797 
Q 3259 1569 3259 1303 
Q 3259 719 2887 328 
Q 2516 -63 1925 -91 
L 1925 -659 
L 1594 -659 
z
M 1594 4266 
Q 1266 4216 1077 4003 
Q 888 3791 888 3500 
Q 888 3213 1048 3019 
Q 1209 2825 1594 2709 
L 1594 4266 
z
M 1925 378 
Q 2253 419 2467 662 
Q 2681 906 2681 1266 
Q 2681 1572 2529 1758 
Q 2378 1944 1925 2091 
L 1925 378 
z
" transform="scale(0.015625)"/>
      </defs>
      <use xlink:href="#ArialMT-68"/>
      <use xlink:href="#ArialMT-20" x="55.615234"/>
      <use xlink:href="#ArialMT-3d" x="83.398438"/>
      <use xlink:href="#ArialMT-20" x="141.796875"/>
      <use xlink:href="#ArialMT-30" x="169.580078"/>
      <use xlink:href="#ArialMT-2e" x="225.195312"/>
      <use xlink:href="#ArialMT-32" x="252.978516"/>
      <use xlink:href="#ArialMT-24" x="308.59375"/>
     </g>
    </g>
    <g id="line2d_36">
     <path d="M 414.220312 51.748437 
L 424.220312 51.748437 
L 434.220312 51.748437 
" style="fill: none; stroke-dasharray: 11.2,2.8,1.75,2.8; stroke-dashoffset: 0; stroke: #c44e52; stroke-width: 1.75"/>
     <g>
      <use xlink:href="#m897878f76d" x="424.220312" y="51.748437" style="fill: #c44e52"/>
     </g>
    </g>
    <g id="text_19">
     <!-- h = 0.12$ -->
     <g style="fill: #262626" transform="translate(442.220312 55.248437) scale(0.1 -0.1)">
      <use xlink:href="#ArialMT-68"/>
      <use xlink:href="#ArialMT-20" x="55.615234"/>
      <use xlink:href="#ArialMT-3d" x="83.398438"/>
      <use xlink:href="#ArialMT-20" x="141.796875"/>
      <use xlink:href="#ArialMT-30" x="169.580078"/>
      <use xlink:href="#ArialMT-2e" x="225.195312"/>
      <use xlink:href="#ArialMT-31" x="252.978516"/>
      <use xlink:href="#ArialMT-32" x="308.59375"/>
      <use xlink:href="#ArialMT-24" x="364.208984"/>
     </g>
    </g>
   </g>
  </g>
 </g>
 <defs>
  <clipPath id="p7d865e28a2">
   <rect x="47.054" y="10.8" width="446.146" height="235.456"/>
  </clipPath>
 </defs>
</svg>
