<?xml version="1.0" encoding="utf-8" standalone="no"?>
<!DOCTYPE svg PUBLIC "-//W3C//DTD SVG 1.1//EN"
  "http://www.w3.org/Graphics/SVG/1.1/DTD/svg11.dtd">
<svg xmlns:xlink="http://www.w3.org/1999/xlink" width="1008pt" height="576pt" viewBox="0 0 504 270" xmlns="http://www.w3.org/2000/svg" version="1.1">
 <metadata>
  <rdf:RDF xmlns:dc="http://purl.org/dc/elements/1.1/" xmlns:cc="http://creativecommons.org/ns#" xmlns:rdf="http://www.w3.org/1999/02/22-rdf-syntax-ns#">
   <cc:Work>
    <dc:type rdf:resource="http://purl.org/dc/dcmitype/StillImage"/>
    <dc:date>2024-03-04T10:53:30.949173</dc:date>
    <dc:format>image/svg+xml</dc:format>
    <dc:creator>
     <cc:Agent>
      <dc:title>Matplotlib v3.8.2, https://matplotlib.org/</dc:title>
     </cc:Agent>
    </dc:creator>
   </cc:Work>
  </rdf:RDF>
 </metadata>
 <defs>
  <style type="text/css">*{stroke-linejoin: round; stroke-linecap: butt}</style>
 </defs>
 <g id="figure_1">
  <g id="patch_1">
   <path d="M 0 288 
L 504 288 
L 504 0 
L 0 0 
z
" style="fill: #ffffff"/>
  </g>
  <g id="axes_1">
   <g id="patch_2">
    <path d="M 47.054 246.256 
L 493.2 246.256 
L 493.2 10.8 
L 47.054 10.8 
z
" style="fill: #eaeaf2"/>
   </g>
   <g id="matplotlib.axis_1">
    <g id="xtick_1">
     <g id="line2d_1">
      <path d="M 80.498143 246.256 
L 80.498143 10.8 
" clip-path="url(#pe751072196)" style="fill: none; stroke: #ffffff; stroke-linecap: round"/>
     </g>
     <g id="line2d_2"/>
     <g id="text_1">
      <!-- 0.25 -->
      <g style="fill: #262626" transform="translate(70.767674 260.413813) scale(0.1 -0.1)">
       <defs>
        <path id="ArialMT-30" d="M 266 2259 
Q 266 3072 433 3567 
Q 600 4063 929 4331 
Q 1259 4600 1759 4600 
Q 2128 4600 2406 4451 
Q 2684 4303 2865 4023 
Q 3047 3744 3150 3342 
Q 3253 2941 3253 2259 
Q 3253 1453 3087 958 
Q 2922 463 2592 192 
Q 2263 -78 1759 -78 
Q 1097 -78 719 397 
Q 266 969 266 2259 
z
M 844 2259 
Q 844 1131 1108 757 
Q 1372 384 1759 384 
Q 2147 384 2411 759 
Q 2675 1134 2675 2259 
Q 2675 3391 2411 3762 
Q 2147 4134 1753 4134 
Q 1366 4134 1134 3806 
Q 844 3388 844 2259 
z
" transform="scale(0.015625)"/>
        <path id="ArialMT-2e" d="M 581 0 
L 581 641 
L 1222 641 
L 1222 0 
L 581 0 
z
" transform="scale(0.015625)"/>
        <path id="ArialMT-32" d="M 3222 541 
L 3222 0 
L 194 0 
Q 188 203 259 391 
Q 375 700 629 1000 
Q 884 1300 1366 1694 
Q 2113 2306 2375 2664 
Q 2638 3022 2638 3341 
Q 2638 3675 2398 3904 
Q 2159 4134 1775 4134 
Q 1369 4134 1125 3890 
Q 881 3647 878 3216 
L 300 3275 
Q 359 3922 746 4261 
Q 1134 4600 1788 4600 
Q 2447 4600 2831 4234 
Q 3216 3869 3216 3328 
Q 3216 3053 3103 2787 
Q 2991 2522 2730 2228 
Q 2469 1934 1863 1422 
Q 1356 997 1212 845 
Q 1069 694 975 541 
L 3222 541 
z
" transform="scale(0.015625)"/>
        <path id="ArialMT-35" d="M 266 1200 
L 856 1250 
Q 922 819 1161 601 
Q 1400 384 1738 384 
Q 2144 384 2425 690 
Q 2706 997 2706 1503 
Q 2706 1984 2436 2262 
Q 2166 2541 1728 2541 
Q 1456 2541 1237 2417 
Q 1019 2294 894 2097 
L 366 2166 
L 809 4519 
L 3088 4519 
L 3088 3981 
L 1259 3981 
L 1013 2750 
Q 1425 3038 1878 3038 
Q 2478 3038 2890 2622 
Q 3303 2206 3303 1553 
Q 3303 931 2941 478 
Q 2500 -78 1738 -78 
Q 1113 -78 717 272 
Q 322 622 266 1200 
z
" transform="scale(0.015625)"/>
       </defs>
       <use xlink:href="#ArialMT-30"/>
       <use xlink:href="#ArialMT-2e" x="55.615234"/>
       <use xlink:href="#ArialMT-32" x="83.398438"/>
       <use xlink:href="#ArialMT-35" x="139.013672"/>
      </g>
     </g>
    </g>
    <g id="xtick_2">
     <g id="line2d_3">
      <path d="M 136.004885 246.256 
L 136.004885 10.8 
" clip-path="url(#pe751072196)" style="fill: none; stroke: #ffffff; stroke-linecap: round"/>
     </g>
     <g id="line2d_4"/>
     <g id="text_2">
      <!-- 0.50 -->
      <g style="fill: #262626" transform="translate(126.274416 260.413813) scale(0.1 -0.1)">
       <use xlink:href="#ArialMT-30"/>
       <use xlink:href="#ArialMT-2e" x="55.615234"/>
       <use xlink:href="#ArialMT-35" x="83.398438"/>
       <use xlink:href="#ArialMT-30" x="139.013672"/>
      </g>
     </g>
    </g>
    <g id="xtick_3">
     <g id="line2d_5">
      <path d="M 191.511626 246.256 
L 191.511626 10.8 
" clip-path="url(#pe751072196)" style="fill: none; stroke: #ffffff; stroke-linecap: round"/>
     </g>
     <g id="line2d_6"/>
     <g id="text_3">
      <!-- 0.75 -->
      <g style="fill: #262626" transform="translate(181.781158 260.413813) scale(0.1 -0.1)">
       <defs>
        <path id="ArialMT-37" d="M 303 3981 
L 303 4522 
L 3269 4522 
L 3269 4084 
Q 2831 3619 2401 2847 
Q 1972 2075 1738 1259 
Q 1569 684 1522 0 
L 944 0 
Q 953 541 1156 1306 
Q 1359 2072 1739 2783 
Q 2119 3494 2547 3981 
L 303 3981 
z
" transform="scale(0.015625)"/>
       </defs>
       <use xlink:href="#ArialMT-30"/>
       <use xlink:href="#ArialMT-2e" x="55.615234"/>
       <use xlink:href="#ArialMT-37" x="83.398438"/>
       <use xlink:href="#ArialMT-35" x="139.013672"/>
      </g>
     </g>
    </g>
    <g id="xtick_4">
     <g id="line2d_7">
      <path d="M 247.018368 246.256 
L 247.018368 10.8 
" clip-path="url(#pe751072196)" style="fill: none; stroke: #ffffff; stroke-linecap: round"/>
     </g>
     <g id="line2d_8"/>
     <g id="text_4">
      <!-- 1.00 -->
      <g style="fill: #262626" transform="translate(237.287899 260.413813) scale(0.1 -0.1)">
       <defs>
        <path id="ArialMT-31" d="M 2384 0 
L 1822 0 
L 1822 3584 
Q 1619 3391 1289 3197 
Q 959 3003 697 2906 
L 697 3450 
Q 1169 3672 1522 3987 
Q 1875 4303 2022 4600 
L 2384 4600 
L 2384 0 
z
" transform="scale(0.015625)"/>
       </defs>
       <use xlink:href="#ArialMT-31"/>
       <use xlink:href="#ArialMT-2e" x="55.615234"/>
       <use xlink:href="#ArialMT-30" x="83.398438"/>
       <use xlink:href="#ArialMT-30" x="139.013672"/>
      </g>
     </g>
    </g>
    <g id="xtick_5">
     <g id="line2d_9">
      <path d="M 302.525109 246.256 
L 302.525109 10.8 
" clip-path="url(#pe751072196)" style="fill: none; stroke: #ffffff; stroke-linecap: round"/>
     </g>
     <g id="line2d_10"/>
     <g id="text_5">
      <!-- 1.25 -->
      <g style="fill: #262626" transform="translate(292.794641 260.413813) scale(0.1 -0.1)">
       <use xlink:href="#ArialMT-31"/>
       <use xlink:href="#ArialMT-2e" x="55.615234"/>
       <use xlink:href="#ArialMT-32" x="83.398438"/>
       <use xlink:href="#ArialMT-35" x="139.013672"/>
      </g>
     </g>
    </g>
    <g id="xtick_6">
     <g id="line2d_11">
      <path d="M 358.031851 246.256 
L 358.031851 10.8 
" clip-path="url(#pe751072196)" style="fill: none; stroke: #ffffff; stroke-linecap: round"/>
     </g>
     <g id="line2d_12"/>
     <g id="text_6">
      <!-- 1.50 -->
      <g style="fill: #262626" transform="translate(348.301382 260.413813) scale(0.1 -0.1)">
       <use xlink:href="#ArialMT-31"/>
       <use xlink:href="#ArialMT-2e" x="55.615234"/>
       <use xlink:href="#ArialMT-35" x="83.398438"/>
       <use xlink:href="#ArialMT-30" x="139.013672"/>
      </g>
     </g>
    </g>
    <g id="xtick_7">
     <g id="line2d_13">
      <path d="M 413.538592 246.256 
L 413.538592 10.8 
" clip-path="url(#pe751072196)" style="fill: none; stroke: #ffffff; stroke-linecap: round"/>
     </g>
     <g id="line2d_14"/>
     <g id="text_7">
      <!-- 1.75 -->
      <g style="fill: #262626" transform="translate(403.808124 260.413813) scale(0.1 -0.1)">
       <use xlink:href="#ArialMT-31"/>
       <use xlink:href="#ArialMT-2e" x="55.615234"/>
       <use xlink:href="#ArialMT-37" x="83.398438"/>
       <use xlink:href="#ArialMT-35" x="139.013672"/>
      </g>
     </g>
    </g>
    <g id="xtick_8">
     <g id="line2d_15">
      <path d="M 469.045334 246.256 
L 469.045334 10.8 
" clip-path="url(#pe751072196)" style="fill: none; stroke: #ffffff; stroke-linecap: round"/>
     </g>
     <g id="line2d_16"/>
     <g id="text_8">
      <!-- 2.00 -->
      <g style="fill: #262626" transform="translate(459.314865 260.413813) scale(0.1 -0.1)">
       <use xlink:href="#ArialMT-32"/>
       <use xlink:href="#ArialMT-2e" x="55.615234"/>
       <use xlink:href="#ArialMT-30" x="83.398438"/>
       <use xlink:href="#ArialMT-30" x="139.013672"/>
      </g>
     </g>
    </g>
    <g id="text_9">
     <!-- $u_1$ -->
     <g style="fill: #262626" transform="translate(264.022 274.274906) scale(0.11 -0.11)">
      <defs>
       <path id="DejaVuSans-Oblique-75" d="M 428 1388 
L 838 3500 
L 1416 3500 
L 1006 1409 
Q 975 1256 961 1147 
Q 947 1038 947 966 
Q 947 700 1109 554 
Q 1272 409 1569 409 
Q 2031 409 2368 721 
Q 2706 1034 2809 1563 
L 3194 3500 
L 3769 3500 
L 3091 0 
L 2516 0 
L 2631 550 
Q 2388 244 2052 76 
Q 1716 -91 1338 -91 
Q 878 -91 622 161 
Q 366 413 366 863 
Q 366 956 381 1097 
Q 397 1238 428 1388 
z
" transform="scale(0.015625)"/>
       <path id="DejaVuSans-31" d="M 794 531 
L 1825 531 
L 1825 4091 
L 703 3866 
L 703 4441 
L 1819 4666 
L 2450 4666 
L 2450 531 
L 3481 531 
L 3481 0 
L 794 0 
L 794 531 
z
" transform="scale(0.015625)"/>
      </defs>
      <use xlink:href="#DejaVuSans-Oblique-75" transform="translate(0 0.3125)"/>
      <use xlink:href="#DejaVuSans-31" transform="translate(63.378906 -16.09375) scale(0.7)"/>
     </g>
    </g>
   </g>
   <g id="matplotlib.axis_2">
    <g id="ytick_1">
     <g id="line2d_17">
      <path d="M 47.054 236.581317 
L 493.2 236.581317 
" clip-path="url(#pe751072196)" style="fill: none; stroke: #ffffff; stroke-linecap: round"/>
     </g>
     <g id="line2d_18"/>
     <g id="text_10">
      <!-- 0.5 -->
      <g style="fill: #262626" transform="translate(26.154 240.160224) scale(0.1 -0.1)">
       <use xlink:href="#ArialMT-30"/>
       <use xlink:href="#ArialMT-2e" x="55.615234"/>
       <use xlink:href="#ArialMT-35" x="83.398438"/>
      </g>
     </g>
    </g>
    <g id="ytick_2">
     <g id="line2d_19">
      <path d="M 47.054 203.920565 
L 493.2 203.920565 
" clip-path="url(#pe751072196)" style="fill: none; stroke: #ffffff; stroke-linecap: round"/>
     </g>
     <g id="line2d_20"/>
     <g id="text_11">
      <!-- 1.0 -->
      <g style="fill: #262626" transform="translate(26.154 207.499471) scale(0.1 -0.1)">
       <use xlink:href="#ArialMT-31"/>
       <use xlink:href="#ArialMT-2e" x="55.615234"/>
       <use xlink:href="#ArialMT-30" x="83.398438"/>
      </g>
     </g>
    </g>
    <g id="ytick_3">
     <g id="line2d_21">
      <path d="M 47.054 171.259812 
L 493.2 171.259812 
" clip-path="url(#pe751072196)" style="fill: none; stroke: #ffffff; stroke-linecap: round"/>
     </g>
     <g id="line2d_22"/>
     <g id="text_12">
      <!-- 1.5 -->
      <g style="fill: #262626" transform="translate(26.154 174.838718) scale(0.1 -0.1)">
       <use xlink:href="#ArialMT-31"/>
       <use xlink:href="#ArialMT-2e" x="55.615234"/>
       <use xlink:href="#ArialMT-35" x="83.398438"/>
      </g>
     </g>
    </g>
    <g id="ytick_4">
     <g id="line2d_23">
      <path d="M 47.054 138.59906 
L 493.2 138.59906 
" clip-path="url(#pe751072196)" style="fill: none; stroke: #ffffff; stroke-linecap: round"/>
     </g>
     <g id="line2d_24"/>
     <g id="text_13">
      <!-- 2.0 -->
      <g style="fill: #262626" transform="translate(26.154 142.177966) scale(0.1 -0.1)">
       <use xlink:href="#ArialMT-32"/>
       <use xlink:href="#ArialMT-2e" x="55.615234"/>
       <use xlink:href="#ArialMT-30" x="83.398438"/>
      </g>
     </g>
    </g>
    <g id="ytick_5">
     <g id="line2d_25">
      <path d="M 47.054 105.938307 
L 493.2 105.938307 
" clip-path="url(#pe751072196)" style="fill: none; stroke: #ffffff; stroke-linecap: round"/>
     </g>
     <g id="line2d_26"/>
     <g id="text_14">
      <!-- 2.5 -->
      <g style="fill: #262626" transform="translate(26.154 109.517213) scale(0.1 -0.1)">
       <use xlink:href="#ArialMT-32"/>
       <use xlink:href="#ArialMT-2e" x="55.615234"/>
       <use xlink:href="#ArialMT-35" x="83.398438"/>
      </g>
     </g>
    </g>
    <g id="ytick_6">
     <g id="line2d_27">
      <path d="M 47.054 73.277554 
L 493.2 73.277554 
" clip-path="url(#pe751072196)" style="fill: none; stroke: #ffffff; stroke-linecap: round"/>
     </g>
     <g id="line2d_28"/>
     <g id="text_15">
      <!-- 3.0 -->
      <g style="fill: #262626" transform="translate(26.154 76.856461) scale(0.1 -0.1)">
       <defs>
        <path id="ArialMT-33" d="M 269 1209 
L 831 1284 
Q 928 806 1161 595 
Q 1394 384 1728 384 
Q 2125 384 2398 659 
Q 2672 934 2672 1341 
Q 2672 1728 2419 1979 
Q 2166 2231 1775 2231 
Q 1616 2231 1378 2169 
L 1441 2663 
Q 1497 2656 1531 2656 
Q 1891 2656 2178 2843 
Q 2466 3031 2466 3422 
Q 2466 3731 2256 3934 
Q 2047 4138 1716 4138 
Q 1388 4138 1169 3931 
Q 950 3725 888 3313 
L 325 3413 
Q 428 3978 793 4289 
Q 1159 4600 1703 4600 
Q 2078 4600 2393 4439 
Q 2709 4278 2876 4000 
Q 3044 3722 3044 3409 
Q 3044 3113 2884 2869 
Q 2725 2625 2413 2481 
Q 2819 2388 3044 2092 
Q 3269 1797 3269 1353 
Q 3269 753 2831 336 
Q 2394 -81 1725 -81 
Q 1122 -81 723 278 
Q 325 638 269 1209 
z
" transform="scale(0.015625)"/>
       </defs>
       <use xlink:href="#ArialMT-33"/>
       <use xlink:href="#ArialMT-2e" x="55.615234"/>
       <use xlink:href="#ArialMT-30" x="83.398438"/>
      </g>
     </g>
    </g>
    <g id="ytick_7">
     <g id="line2d_29">
      <path d="M 47.054 40.616802 
L 493.2 40.616802 
" clip-path="url(#pe751072196)" style="fill: none; stroke: #ffffff; stroke-linecap: round"/>
     </g>
     <g id="line2d_30"/>
     <g id="text_16">
      <!-- 3.5 -->
      <g style="fill: #262626" transform="translate(26.154 44.195708) scale(0.1 -0.1)">
       <use xlink:href="#ArialMT-33"/>
       <use xlink:href="#ArialMT-2e" x="55.615234"/>
       <use xlink:href="#ArialMT-35" x="83.398438"/>
      </g>
     </g>
    </g>
    <g id="text_17">
     <!-- $u_2$ -->
     <g style="fill: #262626" transform="translate(19.96775 134.633) rotate(-90) scale(0.11 -0.11)">
      <defs>
       <path id="DejaVuSans-32" d="M 1228 531 
L 3431 531 
L 3431 0 
L 469 0 
L 469 531 
Q 828 903 1448 1529 
Q 2069 2156 2228 2338 
Q 2531 2678 2651 2914 
Q 2772 3150 2772 3378 
Q 2772 3750 2511 3984 
Q 2250 4219 1831 4219 
Q 1534 4219 1204 4116 
Q 875 4013 500 3803 
L 500 4441 
Q 881 4594 1212 4672 
Q 1544 4750 1819 4750 
Q 2544 4750 2975 4387 
Q 3406 4025 3406 3419 
Q 3406 3131 3298 2873 
Q 3191 2616 2906 2266 
Q 2828 2175 2409 1742 
Q 1991 1309 1228 531 
z
" transform="scale(0.015625)"/>
      </defs>
      <use xlink:href="#DejaVuSans-Oblique-75" transform="translate(0 0.3125)"/>
      <use xlink:href="#DejaVuSans-32" transform="translate(63.378906 -16.09375) scale(0.7)"/>
     </g>
    </g>
   </g>
   <g id="line2d_31">
    <path d="M 469.045334 138.59906 
L 468.919089 136.383906 
L 468.537832 134.133787 
L 467.898349 131.850867 
L 466.99818 129.537517 
L 465.835622 127.196311 
L 464.409736 124.830015 
L 462.720438 122.441591 
L 460.768508 120.034263 
L 458.555608 117.61142 
L 455.426454 114.566461 
L 451.900485 111.510068 
L 447.98677 108.449879 
L 443.696533 105.393907 
L 439.043156 102.350544 
L 434.041538 99.32825 
L 428.709177 96.335817 
L 421.901463 92.79703 
L 414.681606 89.329561 
L 407.087503 85.94838 
L 399.159136 82.668119 
L 390.938565 79.503072 
L 382.469935 76.467193 
L 373.797307 73.573575 
L 364.964036 70.83389 
L 354.515432 67.84669 
L 343.976883 65.098926 
L 333.411624 62.603104 
L 322.878584 60.369187 
L 312.432377 58.40459 
L 302.12331 56.714181 
L 291.997375 55.300293 
L 282.094806 54.163324 
L 272.447809 53.300327 
L 263.083634 52.70627 
L 254.025145 52.374893 
L 245.290821 52.298701 
L 236.894756 52.468971 
L 228.84666 52.875748 
L 221.151856 53.507846 
L 213.811284 54.35285 
L 206.821571 55.397142 
L 200.180354 56.628245 
L 193.882406 58.033537 
L 187.919231 59.599721 
L 182.28183 61.313885 
L 176.960703 63.163498 
L 171.945845 65.136412 
L 167.226749 67.220862 
L 162.792404 69.405464 
L 158.631297 71.679217 
L 154.194886 74.373351 
L 150.081497 77.154914 
L 146.275397 80.010166 
L 142.760158 82.926407 
L 139.519957 85.891718 
L 136.539843 88.894971 
L 133.480602 92.306148 
L 130.714015 95.738776 
L 128.222751 99.180614 
L 125.990884 102.620688 
L 123.797633 106.429168 
L 121.888808 110.212056 
L 120.24863 113.95982 
L 118.861731 117.663266 
L 117.714124 121.31388 
L 116.714649 125.26066 
L 115.977611 129.127729 
L 115.491339 132.908349 
L 115.24591 136.596842 
L 115.233145 140.188591 
L 115.446614 143.680035 
L 115.881634 147.068672 
L 116.535039 150.352834 
L 117.404077 153.530395 
L 118.48794 156.600229 
L 119.786911 159.561587 
L 121.302178 162.413924 
L 122.869129 164.91206 
L 124.618771 167.319703 
L 126.55394 169.636882 
L 128.901048 172.081501 
L 131.482291 174.417291 
L 134.304028 176.644879 
L 137.373044 178.764881 
L 140.696229 180.77738 
L 144.283033 182.682914 
L 148.143205 184.481881 
L 152.286601 186.17447 
L 156.723189 187.760663 
L 161.909331 189.369443 
L 167.469622 190.850756 
L 173.417449 192.203736 
L 179.766355 193.427222 
L 187.112833 194.604837 
L 194.963722 195.626522 
L 203.333096 196.489235 
L 212.215798 197.187062 
L 222.386176 197.749817 
L 233.210488 198.110945 
L 244.700986 198.262095 
L 256.854072 198.192554 
L 269.650296 197.889244 
L 283.05436 197.336725 
L 296.000793 196.585001 
L 309.374194 195.58699 
L 322.041842 194.431754 
L 334.95804 193.036125 
L 346.957818 191.531437 
L 359.048409 189.797086 
L 370.044835 188.009241 
L 380.969195 186.008407 
L 390.672749 184.015808 
L 400.186918 181.832478 
L 408.427176 179.724565 
L 409.440045 179.449688 
L 409.440045 179.449688 
" clip-path="url(#pe751072196)" style="fill: none; stroke: #4c72b0; stroke-width: 1.75; stroke-linecap: round"/>
   </g>
   <g id="line2d_32">
    <path d="M 469.045334 138.59906 
L 470.185773 136.645718 
L 471.138319 134.645252 
L 471.895443 132.597727 
L 472.449722 130.503327 
L 472.793837 128.362349 
L 472.920636 126.175218 
L 472.823405 123.942546 
L 472.495045 121.664976 
L 471.928798 119.34333 
L 471.118408 116.978629 
L 470.058122 114.5721 
L 468.742689 112.125172 
L 467.167361 109.639477 
L 465.327894 107.116853 
L 463.220545 104.559339 
L 460.842075 101.969177 
L 457.483601 98.689311 
L 453.693534 95.367512 
L 449.470855 92.009786 
L 444.816042 88.622843 
L 439.731885 85.213923 
L 434.223525 81.790801 
L 428.29846 78.361777 
L 421.96654 74.935685 
L 415.239968 71.521887 
L 408.133302 68.130277 
L 399.127556 64.104344 
L 389.632448 60.144331 
L 379.684478 56.269167 
L 369.32868 52.499596 
L 358.61371 48.85659 
L 347.590184 45.360729 
L 336.310682 42.032202 
L 324.829744 38.890807 
L 313.20387 35.955948 
L 301.491525 33.246638 
L 289.753132 30.781498 
L 278.051078 28.578759 
L 266.442664 26.653832 
L 254.982137 25.018995 
L 245.58693 23.887061 
L 236.365642 22.970512 
L 227.34598 22.27339 
L 218.552756 21.798319 
L 210.007886 21.546504 
L 201.730392 21.517726 
L 193.736399 21.710352 
L 186.039138 22.121325 
L 178.648943 22.746171 
L 171.573253 23.578995 
L 164.816613 24.612481 
L 158.382753 25.839187 
L 152.272521 27.251325 
L 146.479357 28.837862 
L 140.995959 30.587795 
L 135.81445 32.490239 
L 130.926376 34.534428 
L 126.322705 36.709713 
L 121.993831 39.005567 
L 117.92957 41.41158 
L 114.119162 43.917459 
L 110.55127 46.513033 
L 107.213981 49.188247 
L 104.094806 51.933166 
L 100.621268 55.305267 
L 97.419665 58.747011 
L 94.472267 62.244844 
L 91.762024 65.786764 
L 88.876916 69.959414 
L 86.265702 74.159572 
L 83.904785 78.371901 
L 81.485376 83.183245 
L 79.335399 87.974318 
L 77.428892 92.729546 
L 75.546997 98.020286 
L 73.917351 103.234788 
L 72.373837 108.925418 
L 70.962971 115.041497 
L 69.822016 120.99441 
L 68.853221 127.290469 
L 68.142824 133.370224 
L 67.635685 139.704928 
L 67.377084 145.774116 
L 67.348982 151.578514 
L 67.538646 157.121786 
L 67.934809 162.406851 
L 68.530985 167.439285 
L 69.323093 172.225331 
L 70.309358 176.771805 
L 71.392503 180.762297 
L 72.643666 184.561196 
L 74.066669 188.175116 
L 75.666638 191.610254 
L 77.294042 194.60753 
L 79.081152 197.46486 
L 81.034679 200.18701 
L 83.162266 202.778599 
L 85.472486 205.244102 
L 87.974849 207.58785 
L 90.679792 209.814026 
L 93.598688 211.92667 
L 96.743841 213.929676 
L 100.128488 215.826793 
L 103.76746 217.621484 
L 107.677098 219.316922 
L 112.269533 221.057185 
L 117.225641 222.687246 
L 122.570305 224.210704 
L 128.330648 225.630788 
L 135.074212 227.055864 
L 142.380417 228.366108 
L 150.292644 229.564148 
L 159.544608 230.731281 
L 169.615384 231.772714 
L 180.571151 232.689737 
L 193.37153 233.534879 
L 207.360255 234.237487 
L 223.702918 234.827 
L 241.640788 235.247491 
L 261.309147 235.491827 
L 284.258919 235.546533 
L 309.492108 235.373453 
L 330.439089 235.074297 
L 330.439089 235.074297 
" clip-path="url(#pe751072196)" style="fill: none; stroke-dasharray: 6.475,2.8; stroke-dashoffset: 0; stroke: #55a868; stroke-width: 1.75"/>
   </g>
   <g id="line2d_33">
    <defs>
     <path id="mefed7aa4ff" d="M 0 3.5 
C 0.928211 3.5 1.81853 3.131218 2.474874 2.474874 
C 3.131218 1.81853 3.5 0.928211 3.5 0 
C 3.5 -0.928211 3.131218 -1.81853 2.474874 -2.474874 
C 1.81853 -3.131218 0.928211 -3.5 0 -3.5 
C -0.928211 -3.5 -1.81853 -3.131218 -2.474874 -2.474874 
C -3.131218 -1.81853 -3.5 -0.928211 -3.5 0 
C -3.5 0.928211 -3.131218 1.81853 -2.474874 2.474874 
C -1.81853 3.131218 -0.928211 3.5 0 3.5 
z
"/>
    </defs>
    <g clip-path="url(#pe751072196)">
     <use xlink:href="#mefed7aa4ff" x="469.045334" y="138.59906" style="fill: #55a868"/>
     <use xlink:href="#mefed7aa4ff" x="469.045334" y="112.470458" style="fill: #55a868"/>
     <use xlink:href="#mefed7aa4ff" x="433.521019" y="81.116135" style="fill: #55a868"/>
     <use xlink:href="#mefed7aa4ff" x="361.619807" y="49.510978" style="fill: #55a868"/>
     <use xlink:href="#mefed7aa4ff" x="269.79835" y="26.827698" style="fill: #55a868"/>
     <use xlink:href="#mefed7aa4ff" x="186.020715" y="21.853352" style="fill: #55a868"/>
     <use xlink:href="#mefed7aa4ff" x="128.460862" y="35.446413" style="fill: #55a868"/>
     <use xlink:href="#mefed7aa4ff" x="95.782042" y="60.414759" style="fill: #55a868"/>
     <use xlink:href="#mefed7aa4ff" x="78.835963" y="88.863803" style="fill: #55a868"/>
     <use xlink:href="#mefed7aa4ff" x="70.636602" y="116.19062" style="fill: #55a868"/>
     <use xlink:href="#mefed7aa4ff" x="67.504899" y="140.507923" style="fill: #55a868"/>
     <use xlink:href="#mefed7aa4ff" x="67.75337" y="161.324775" style="fill: #55a868"/>
     <use xlink:href="#mefed7aa4ff" x="70.728796" y="178.751301" style="fill: #55a868"/>
     <use xlink:href="#mefed7aa4ff" x="76.351626" y="193.121249" style="fill: #55a868"/>
     <use xlink:href="#mefed7aa4ff" x="84.92544" y="204.823694" style="fill: #55a868"/>
     <use xlink:href="#mefed7aa4ff" x="97.077976" y="214.229546" style="fill: #55a868"/>
     <use xlink:href="#mefed7aa4ff" x="113.770618" y="221.659814" style="fill: #55a868"/>
     <use xlink:href="#mefed7aa4ff" x="136.348385" y="227.371038" style="fill: #55a868"/>
     <use xlink:href="#mefed7aa4ff" x="166.615231" y="231.545185" style="fill: #55a868"/>
     <use xlink:href="#mefed7aa4ff" x="206.918608" y="234.275437" style="fill: #55a868"/>
     <use xlink:href="#mefed7aa4ff" x="260.212347" y="235.538485" style="fill: #55a868"/>
     <use xlink:href="#mefed7aa4ff" x="330.027588" y="235.137917" style="fill: #55a868"/>
    </g>
   </g>
   <g id="line2d_34">
    <path d="M 469.045334 138.59906 
L 469.745782 136.534493 
L 470.228724 134.425069 
L 470.487359 132.271509 
L 470.515215 130.074696 
L 470.306143 127.835678 
L 469.854383 125.55567 
L 469.154732 123.236087 
L 468.202067 120.878493 
L 466.991895 118.484665 
L 465.520437 116.0566 
L 463.784622 113.596524 
L 461.782095 111.10688 
L 459.511211 108.590339 
L 456.971037 106.049794 
L 453.416863 102.845123 
L 449.442778 99.614398 
L 445.052306 96.364655 
L 440.251597 93.103789 
L 435.049029 89.840211 
L 429.455252 86.582708 
L 423.483185 83.340448 
L 417.148017 80.122978 
L 409.091266 76.308736 
L 400.571399 72.562371 
L 391.627611 68.902538 
L 382.30121 65.347653 
L 372.638886 61.916427 
L 362.692848 58.628161 
L 352.515255 55.50098 
L 342.158195 52.551825 
L 331.673687 49.796452 
L 321.11368 47.249435 
L 310.530054 44.924165 
L 299.974618 42.832847 
L 289.499113 40.986505 
L 279.149925 39.393707 
L 268.967784 38.059567 
L 258.99218 36.987616 
L 249.258046 36.179549 
L 239.795756 35.635227 
L 230.631124 35.35268 
L 221.785404 35.328102 
L 213.275292 35.555857 
L 205.112926 36.028471 
L 197.305883 36.736641 
L 189.857182 37.669227 
L 182.769009 38.815316 
L 176.040645 40.16391 
L 169.665112 41.701723 
L 163.634587 43.415655 
L 157.940419 45.2928 
L 152.573123 47.320448 
L 147.522388 49.486083 
L 142.777071 51.777384 
L 138.325201 54.182224 
L 134.153975 56.688673 
L 130.249764 59.284994 
L 126.598105 61.959646 
L 123.184985 64.70166 
L 119.489673 67.973389 
L 116.084305 71.309811 
L 112.950031 74.6975 
L 110.069089 78.123976 
L 107.065442 82.072692 
L 104.347774 86.041333 
L 101.894783 90.015809 
L 99.687019 93.983646 
L 97.47457 98.426065 
L 95.528017 102.833357 
L 93.827532 107.194672 
L 92.202226 111.973252 
L 90.833995 116.670242 
L 89.603312 121.731685 
L 88.638441 126.67277 
L 87.920002 131.484993 
L 87.431602 136.161806 
L 87.145486 141.104002 
L 87.103886 145.876307 
L 87.297222 150.477741 
L 87.716658 154.906647 
L 88.356837 159.16329 
L 89.134805 162.91484 
L 90.094344 166.523823 
L 91.235492 169.991835 
L 92.55952 173.320823 
L 94.068929 176.513091 
L 95.767452 179.571295 
L 97.660026 182.498336 
L 99.752514 185.296676 
L 102.051727 187.969181 
L 104.565509 190.518723 
L 107.302724 192.948068 
L 110.273253 195.25987 
L 113.488002 197.456677 
L 116.958891 199.540925 
L 120.698865 201.514944 
L 124.721886 203.380954 
L 129.042936 205.141065 
L 133.67802 206.79728 
L 139.112116 208.487601 
L 144.96019 210.057381 
L 151.249637 211.508861 
L 158.009602 212.843953 
L 165.898321 214.160335 
L 174.4126 215.342098 
L 183.591694 216.388839 
L 193.47562 217.299175 
L 204.954886 218.124253 
L 217.35082 218.784143 
L 230.716372 219.273296 
L 245.105517 219.584839 
L 261.720842 219.712209 
L 279.642374 219.614298 
L 298.921333 219.272977 
L 318.184627 218.716483 
L 338.701071 217.908668 
L 360.476049 216.822927 
L 381.809299 215.537979 
L 404.185883 213.95602 
L 409.493525 213.545282 
L 409.493525 213.545282 
" clip-path="url(#pe751072196)" style="fill: none; stroke-dasharray: 11.2,2.8,1.75,2.8; stroke-dashoffset: 0; stroke: #c44e52; stroke-width: 1.75"/>
   </g>
   <g id="line2d_35">
    <defs>
     <path id="mc6abcf2cc5" d="M 0 -5 
L -1.12257 -1.545085 
L -4.755283 -1.545085 
L -1.816356 0.59017 
L -2.938926 4.045085 
L -0 1.90983 
L 2.938926 4.045085 
L 1.816356 0.59017 
L 4.755283 -1.545085 
L 1.12257 -1.545085 
z
"/>
    </defs>
    <g clip-path="url(#pe751072196)">
     <use xlink:href="#mc6abcf2cc5" x="469.045334" y="138.59906" style="fill: #c44e52"/>
     <use xlink:href="#mc6abcf2cc5" x="469.045334" y="122.921898" style="fill: #c44e52"/>
     <use xlink:href="#mc6abcf2cc5" x="456.256581" y="105.363478" style="fill: #c44e52"/>
     <use xlink:href="#mc6abcf2cc5" x="429.925254" y="86.830776" style="fill: #c44e52"/>
     <use xlink:href="#mc6abcf2cc5" x="391.415307" y="68.798219" style="fill: #c44e52"/>
     <use xlink:href="#mc6abcf2cc5" x="344.429195" y="53.154996" style="fill: #c44e52"/>
     <use xlink:href="#mc6abcf2cc5" x="294.288164" y="41.77842" style="fill: #c44e52"/>
     <use xlink:href="#mc6abcf2cc5" x="246.389418" y="35.967148" style="fill: #c44e52"/>
     <use xlink:href="#mc6abcf2cc5" x="204.646654" y="36.046445" style="fill: #c44e52"/>
     <use xlink:href="#mc6abcf2cc5" x="170.800314" y="41.386823" style="fill: #c44e52"/>
     <use xlink:href="#mc6abcf2cc5" x="144.760968" y="50.773079" style="fill: #c44e52"/>
     <use xlink:href="#mc6abcf2cc5" x="125.437078" y="62.847326" style="fill: #c44e52"/>
     <use xlink:href="#mc6abcf2cc5" x="111.458954" y="76.409862" style="fill: #c44e52"/>
     <use xlink:href="#mc6abcf2cc5" x="101.580405" y="90.537995" style="fill: #c44e52"/>
     <use xlink:href="#mc6abcf2cc5" x="94.818254" y="104.58513" style="fill: #c44e52"/>
     <use xlink:href="#mc6abcf2cc5" x="90.455062" y="118.129866" style="fill: #c44e52"/>
     <use xlink:href="#mc6abcf2cc5" x="87.993413" y="130.91676" style="fill: #c44e52"/>
     <use xlink:href="#mc6abcf2cc5" x="87.104272" y="142.805681" style="fill: #c44e52"/>
     <use xlink:href="#mc6abcf2cc5" x="87.584271" y="153.733522" style="fill: #c44e52"/>
     <use xlink:href="#mc6abcf2cc5" x="89.324542" y="163.686908" style="fill: #c44e52"/>
     <use xlink:href="#mc6abcf2cc5" x="92.289532" y="172.683327" style="fill: #c44e52"/>
     <use xlink:href="#mc6abcf2cc5" x="96.50341" y="180.75825" style="fill: #c44e52"/>
     <use xlink:href="#mc6abcf2cc5" x="102.041963" y="187.956369" style="fill: #c44e52"/>
     <use xlink:href="#mc6abcf2cc5" x="109.028345" y="194.3256" style="fill: #c44e52"/>
     <use xlink:href="#mc6abcf2cc5" x="117.631494" y="199.912881" style="fill: #c44e52"/>
     <use xlink:href="#mc6abcf2cc5" x="128.066253" y="204.761096" style="fill: #c44e52"/>
     <use xlink:href="#mc6abcf2cc5" x="140.594394" y="208.906619" style="fill: #c44e52"/>
     <use xlink:href="#mc6abcf2cc5" x="155.525644" y="212.377083" style="fill: #c44e52"/>
     <use xlink:href="#mc6abcf2cc5" x="173.217627" y="215.189029" style="fill: #c44e52"/>
     <use xlink:href="#mc6abcf2cc5" x="194.073195" y="217.345067" style="fill: #c44e52"/>
     <use xlink:href="#mc6abcf2cc5" x="218.532857" y="218.830128" style="fill: #c44e52"/>
     <use xlink:href="#mc6abcf2cc5" x="247.058906" y="219.606255" style="fill: #c44e52"/>
     <use xlink:href="#mc6abcf2cc5" x="280.10603" y="219.605167" style="fill: #c44e52"/>
     <use xlink:href="#mc6abcf2cc5" x="318.070575" y="218.717508" style="fill: #c44e52"/>
     <use xlink:href="#mc6abcf2cc5" x="361.206841" y="216.777267" style="fill: #c44e52"/>
     <use xlink:href="#mc6abcf2cc5" x="409.493641" y="213.539349" style="fill: #c44e52"/>
    </g>
   </g>
   <g id="patch_3">
    <path d="M 47.054 246.256 
L 47.054 10.8 
" style="fill: none"/>
   </g>
   <g id="patch_4">
    <path d="M 493.2 246.256 
L 493.2 10.8 
" style="fill: none"/>
   </g>
   <g id="patch_5">
    <path d="M 47.054 246.256 
L 493.2 246.256 
" style="fill: none"/>
   </g>
   <g id="patch_6">
    <path d="M 47.054 10.8 
L 493.2 10.8 
" style="fill: none"/>
   </g>
   <g id="legend_1">
    <g id="line2d_36">
     <path d="M 414.220312 23.457812 
L 424.220312 23.457812 
L 434.220312 23.457812 
" style="fill: none; stroke: #4c72b0; stroke-width: 1.75; stroke-linecap: round"/>
    </g>
    <g id="text_18">
     <!-- exact -->
     <g style="fill: #262626" transform="translate(442.220312 26.957812) scale(0.1 -0.1)">
      <defs>
       <path id="ArialMT-65" d="M 2694 1069 
L 3275 997 
Q 3138 488 2766 206 
Q 2394 -75 1816 -75 
Q 1088 -75 661 373 
Q 234 822 234 1631 
Q 234 2469 665 2931 
Q 1097 3394 1784 3394 
Q 2450 3394 2872 2941 
Q 3294 2488 3294 1666 
Q 3294 1616 3291 1516 
L 816 1516 
Q 847 969 1125 678 
Q 1403 388 1819 388 
Q 2128 388 2347 550 
Q 2566 713 2694 1069 
z
M 847 1978 
L 2700 1978 
Q 2663 2397 2488 2606 
Q 2219 2931 1791 2931 
Q 1403 2931 1139 2672 
Q 875 2413 847 1978 
z
" transform="scale(0.015625)"/>
       <path id="ArialMT-78" d="M 47 0 
L 1259 1725 
L 138 3319 
L 841 3319 
L 1350 2541 
Q 1494 2319 1581 2169 
Q 1719 2375 1834 2534 
L 2394 3319 
L 3066 3319 
L 1919 1756 
L 3153 0 
L 2463 0 
L 1781 1031 
L 1600 1309 
L 728 0 
L 47 0 
z
" transform="scale(0.015625)"/>
       <path id="ArialMT-61" d="M 2588 409 
Q 2275 144 1986 34 
Q 1697 -75 1366 -75 
Q 819 -75 525 192 
Q 231 459 231 875 
Q 231 1119 342 1320 
Q 453 1522 633 1644 
Q 813 1766 1038 1828 
Q 1203 1872 1538 1913 
Q 2219 1994 2541 2106 
Q 2544 2222 2544 2253 
Q 2544 2597 2384 2738 
Q 2169 2928 1744 2928 
Q 1347 2928 1158 2789 
Q 969 2650 878 2297 
L 328 2372 
Q 403 2725 575 2942 
Q 747 3159 1072 3276 
Q 1397 3394 1825 3394 
Q 2250 3394 2515 3294 
Q 2781 3194 2906 3042 
Q 3031 2891 3081 2659 
Q 3109 2516 3109 2141 
L 3109 1391 
Q 3109 606 3145 398 
Q 3181 191 3288 0 
L 2700 0 
Q 2613 175 2588 409 
z
M 2541 1666 
Q 2234 1541 1622 1453 
Q 1275 1403 1131 1340 
Q 988 1278 909 1158 
Q 831 1038 831 891 
Q 831 666 1001 516 
Q 1172 366 1500 366 
Q 1825 366 2078 508 
Q 2331 650 2450 897 
Q 2541 1088 2541 1459 
L 2541 1666 
z
" transform="scale(0.015625)"/>
       <path id="ArialMT-63" d="M 2588 1216 
L 3141 1144 
Q 3050 572 2676 248 
Q 2303 -75 1759 -75 
Q 1078 -75 664 370 
Q 250 816 250 1647 
Q 250 2184 428 2587 
Q 606 2991 970 3192 
Q 1334 3394 1763 3394 
Q 2303 3394 2647 3120 
Q 2991 2847 3088 2344 
L 2541 2259 
Q 2463 2594 2264 2762 
Q 2066 2931 1784 2931 
Q 1359 2931 1093 2626 
Q 828 2322 828 1663 
Q 828 994 1084 691 
Q 1341 388 1753 388 
Q 2084 388 2306 591 
Q 2528 794 2588 1216 
z
" transform="scale(0.015625)"/>
       <path id="ArialMT-74" d="M 1650 503 
L 1731 6 
Q 1494 -44 1306 -44 
Q 1000 -44 831 53 
Q 663 150 594 308 
Q 525 466 525 972 
L 525 2881 
L 113 2881 
L 113 3319 
L 525 3319 
L 525 4141 
L 1084 4478 
L 1084 3319 
L 1650 3319 
L 1650 2881 
L 1084 2881 
L 1084 941 
Q 1084 700 1114 631 
Q 1144 563 1211 522 
Q 1278 481 1403 481 
Q 1497 481 1650 503 
z
" transform="scale(0.015625)"/>
      </defs>
      <use xlink:href="#ArialMT-65"/>
      <use xlink:href="#ArialMT-78" x="55.615234"/>
      <use xlink:href="#ArialMT-61" x="105.615234"/>
      <use xlink:href="#ArialMT-63" x="161.230469"/>
      <use xlink:href="#ArialMT-74" x="211.230469"/>
     </g>
    </g>
    <g id="line2d_37">
     <path d="M 414.220312 37.603125 
L 424.220312 37.603125 
L 434.220312 37.603125 
" style="fill: none; stroke-dasharray: 6.475,2.8; stroke-dashoffset: 0; stroke: #55a868; stroke-width: 1.75"/>
     <g>
      <use xlink:href="#mefed7aa4ff" x="424.220312" y="37.603125" style="fill: #55a868"/>
     </g>
    </g>
    <g id="text_19">
     <!-- h = 0.2$ -->
     <g style="fill: #262626" transform="translate(442.220312 41.103125) scale(0.1 -0.1)">
      <defs>
       <path id="ArialMT-68" d="M 422 0 
L 422 4581 
L 984 4581 
L 984 2938 
Q 1378 3394 1978 3394 
Q 2347 3394 2619 3248 
Q 2891 3103 3008 2847 
Q 3125 2591 3125 2103 
L 3125 0 
L 2563 0 
L 2563 2103 
Q 2563 2525 2380 2717 
Q 2197 2909 1863 2909 
Q 1613 2909 1392 2779 
Q 1172 2650 1078 2428 
Q 984 2206 984 1816 
L 984 0 
L 422 0 
z
" transform="scale(0.015625)"/>
       <path id="ArialMT-20" transform="scale(0.015625)"/>
       <path id="ArialMT-3d" d="M 3381 2694 
L 356 2694 
L 356 3219 
L 3381 3219 
L 3381 2694 
z
M 3381 1303 
L 356 1303 
L 356 1828 
L 3381 1828 
L 3381 1303 
z
" transform="scale(0.015625)"/>
       <path id="ArialMT-24" d="M 1594 -659 
L 1594 -97 
Q 1172 -44 908 92 
Q 644 228 451 531 
Q 259 834 228 1272 
L 794 1378 
Q 859 925 1025 713 
Q 1263 413 1594 378 
L 1594 2169 
Q 1247 2234 884 2438 
Q 616 2588 470 2853 
Q 325 3119 325 3456 
Q 325 4056 750 4428 
Q 1034 4678 1594 4734 
L 1594 5003 
L 1925 5003 
L 1925 4734 
Q 2416 4688 2703 4447 
Q 3072 4141 3147 3606 
L 2566 3519 
Q 2516 3850 2358 4026 
Q 2200 4203 1925 4259 
L 1925 2638 
Q 2350 2531 2488 2472 
Q 2750 2356 2915 2190 
Q 3081 2025 3170 1797 
Q 3259 1569 3259 1303 
Q 3259 719 2887 328 
Q 2516 -63 1925 -91 
L 1925 -659 
L 1594 -659 
z
M 1594 4266 
Q 1266 4216 1077 4003 
Q 888 3791 888 3500 
Q 888 3213 1048 3019 
Q 1209 2825 1594 2709 
L 1594 4266 
z
M 1925 378 
Q 2253 419 2467 662 
Q 2681 906 2681 1266 
Q 2681 1572 2529 1758 
Q 2378 1944 1925 2091 
L 1925 378 
z
" transform="scale(0.015625)"/>
      </defs>
      <use xlink:href="#ArialMT-68"/>
      <use xlink:href="#ArialMT-20" x="55.615234"/>
      <use xlink:href="#ArialMT-3d" x="83.398438"/>
      <use xlink:href="#ArialMT-20" x="141.796875"/>
      <use xlink:href="#ArialMT-30" x="169.580078"/>
      <use xlink:href="#ArialMT-2e" x="225.195312"/>
      <use xlink:href="#ArialMT-32" x="252.978516"/>
      <use xlink:href="#ArialMT-24" x="308.59375"/>
     </g>
    </g>
    <g id="line2d_38">
     <path d="M 414.220312 51.748437 
L 424.220312 51.748437 
L 434.220312 51.748437 
" style="fill: none; stroke-dasharray: 11.2,2.8,1.75,2.8; stroke-dashoffset: 0; stroke: #c44e52; stroke-width: 1.75"/>
     <g>
      <use xlink:href="#mc6abcf2cc5" x="424.220312" y="51.748437" style="fill: #c44e52"/>
     </g>
    </g>
    <g id="text_20">
     <!-- h = 0.12$ -->
     <g style="fill: #262626" transform="translate(442.220312 55.248437) scale(0.1 -0.1)">
      <use xlink:href="#ArialMT-68"/>
      <use xlink:href="#ArialMT-20" x="55.615234"/>
      <use xlink:href="#ArialMT-3d" x="83.398438"/>
      <use xlink:href="#ArialMT-20" x="141.796875"/>
      <use xlink:href="#ArialMT-30" x="169.580078"/>
      <use xlink:href="#ArialMT-2e" x="225.195312"/>
      <use xlink:href="#ArialMT-31" x="252.978516"/>
      <use xlink:href="#ArialMT-32" x="308.59375"/>
      <use xlink:href="#ArialMT-24" x="364.208984"/>
     </g>
    </g>
   </g>
  </g>
 </g>
 <defs>
  <clipPath id="pe751072196">
   <rect x="47.054" y="10.8" width="446.146" height="235.456"/>
  </clipPath>
 </defs>
</svg>
